<?xml version="1.0" standalone="no"?>
<!DOCTYPE svg PUBLIC "-//W3C//DTD SVG 20010904//EN"
 "http://www.w3.org/TR/2001/REC-SVG-20010904/DTD/svg10.dtd">
<svg version="1.0" xmlns="http://www.w3.org/2000/svg"
 width="532.000000pt" height="532.000000pt" viewBox="0 0 532.000000 532.000000"
 preserveAspectRatio="xMidYMid meet">

<g transform="translate(0.000000,532.000000) scale(0.100000,-0.100000)"
fill="#000000" stroke="none">
<path d="M2595 4900 c-3 -5 1 -10 10 -10 9 0 13 5 10 10 -3 6 -8 10 -10 10 -2
0 -7 -4 -10 -10z"/>
<path d="M2433 4883 c-4 -10 -11 -21 -17 -25 -6 -4 4 -8 23 -8 32 0 33 1 18
18 -10 10 -14 22 -10 25 3 4 3 7 -1 7 -3 0 -10 -8 -13 -17z"/>
<path d="M2937 4882 c-4 -5 -4 -12 0 -15 10 -5 -12 1 -32 9 -11 4 -13 2 -9 -9
6 -18 81 -28 104 -15 12 7 11 8 -5 6 -11 -2 -27 5 -36 16 -10 12 -18 15 -22 8z"/>
<path d="M2970 4879 c0 -5 9 -9 20 -9 11 0 20 2 20 4 0 2 -9 6 -20 9 -11 3
-20 1 -20 -4z"/>
<path d="M2280 4870 c13 -9 13 -11 0 -20 -11 -7 -11 -10 -2 -10 7 0 10 -5 6
-12 -4 -7 -3 -8 5 -4 6 4 9 11 6 16 -3 4 1 11 7 13 10 4 9 8 -2 16 -8 6 -19
11 -25 11 -5 0 -3 -5 5 -10z"/>
<path d="M2320 4870 c0 -5 7 -10 15 -10 8 0 15 5 15 10 0 6 -7 10 -15 10 -8 0
-15 -4 -15 -10z"/>
<path d="M2370 4870 c0 -5 7 -10 16 -10 8 0 12 5 9 10 -3 6 -10 10 -16 10 -5
0 -9 -4 -9 -10z"/>
<path d="M2555 4870 c-3 -5 3 -10 14 -10 11 0 23 5 26 10 3 6 -3 10 -14 10
-11 0 -23 -4 -26 -10z"/>
<path d="M2214 4859 c-3 -6 2 -18 12 -27 17 -16 17 -16 4 2 -14 17 -13 18 8
12 25 -8 31 8 6 18 -21 8 -22 8 -30 -5z"/>
<path d="M3070 4850 c-8 -5 -10 -10 -5 -10 6 0 3 -5 -5 -10 -9 -6 -10 -10 -3
-10 7 0 17 8 22 18 9 15 12 15 22 2 9 -12 10 -12 7 -1 -5 19 -19 23 -38 11z"/>
<path d="M3121 4856 c2 -2 18 -6 34 -10 22 -5 26 -4 15 4 -14 9 -59 15 -49 6z"/>
<path d="M2348 4843 c7 -3 16 -2 19 1 4 3 -2 6 -13 5 -11 0 -14 -3 -6 -6z"/>
<path d="M3130 4829 c0 -5 5 -7 10 -4 6 3 10 8 10 11 0 2 -4 4 -10 4 -5 0 -10
-5 -10 -11z"/>
<path d="M3217 4814 c-17 -22 -17 -24 -1 -24 10 0 14 3 11 7 -4 3 -2 12 5 20
6 7 9 15 7 17 -2 2 -12 -7 -22 -20z"/>
<path d="M2070 4810 c12 -23 53 -28 44 -6 -3 8 -12 12 -20 9 -8 -3 -14 0 -14
6 0 6 -5 11 -10 11 -7 0 -7 -6 0 -20z"/>
<path d="M2132 4816 c7 -8 17 -12 22 -9 4 3 2 9 -5 14 -22 13 -31 11 -17 -5z"/>
<path d="M3160 4820 c-9 -6 -10 -10 -3 -10 6 0 15 5 18 10 8 12 4 12 -15 0z"/>
<path d="M2010 4800 c0 -5 -7 -7 -15 -4 -8 4 -17 -1 -21 -10 -5 -12 -10 -14
-19 -6 -13 10 -25 4 -25 -14 0 -6 5 -4 10 4 6 9 10 10 10 3 0 -6 9 -11 20 -10
12 1 18 7 16 14 -3 7 -1 13 4 13 6 0 10 -4 10 -10 0 -19 16 -10 17 10 1 11 0
20 -3 20 -2 0 -4 -4 -4 -10z"/>
<path d="M3290 4804 c0 -2 9 -8 20 -14 11 -6 20 -7 20 -2 0 6 -9 12 -20 15
-11 3 -20 3 -20 1z"/>
<path d="M2035 4790 c-3 -5 -1 -10 4 -10 6 0 11 5 11 10 0 6 -2 10 -4 10 -3 0
-8 -4 -11 -10z"/>
<path d="M3350 4782 c0 -5 10 -17 22 -28 19 -17 21 -17 15 -1 -4 11 -1 17 8
17 8 0 15 -4 15 -10 0 -5 6 -10 13 -10 6 1 1 10 -13 21 -14 12 -26 16 -28 10
-2 -6 -8 -11 -13 -11 -6 0 -7 5 -4 10 3 6 1 10 -4 10 -6 0 -11 -4 -11 -8z"/>
<path d="M1903 4754 c-15 -16 -16 -24 -4 -24 8 0 24 30 19 35 -2 2 -9 -3 -15
-11z"/>
<path d="M3447 4753 c-12 -12 -7 -22 8 -17 8 4 15 1 15 -7 0 -7 2 -10 5 -7 7
7 -5 38 -14 38 -4 0 -11 -3 -14 -7z"/>
<path d="M1842 4725 c-14 -30 -12 -31 10 -5 10 10 14 22 9 24 -4 3 -13 -6 -19
-19z"/>
<path d="M3493 4724 c0 -20 2 -22 13 -13 8 6 14 15 14 19 0 4 -6 10 -14 13 -9
4 -13 -2 -13 -19z"/>
<path d="M3521 4714 c-7 -8 -10 -18 -6 -22 4 -4 10 -1 12 6 3 6 9 12 15 12 6
0 8 -6 5 -14 -3 -8 0 -17 8 -19 13 -6 14 5 0 36 -9 21 -16 21 -34 1z"/>
<path d="M1770 4711 c0 -7 -4 -9 -10 -6 -5 3 -10 2 -10 -4 0 -6 -7 -7 -17 -4
-12 5 -14 3 -8 -7 6 -10 4 -12 -8 -7 -9 3 -19 2 -22 -2 -3 -5 3 -12 12 -15 9
-4 19 -2 23 4 4 6 13 9 21 7 8 -2 10 -2 6 1 -4 2 0 10 10 17 10 7 15 17 10 21
-4 4 -7 2 -7 -5z"/>
<path d="M3590 4680 c-13 -9 -13 -10 0 -10 8 0 22 5 30 10 13 9 13 10 0 10 -8
0 -22 -5 -30 -10z"/>
<path d="M1639 4667 c-1 -1 -2 -14 -3 -28 -1 -19 2 -25 12 -22 9 4 10 9 3 16
-15 15 -14 32 2 19 8 -7 18 -7 27 -2 8 6 11 10 5 11 -5 0 -18 2 -27 4 -10 2
-19 3 -19 2z"/>
<path d="M3646 4658 c3 -4 9 -8 15 -8 5 0 9 4 9 8 0 5 -7 9 -15 9 -8 0 -12 -4
-9 -9z"/>
<path d="M3588 4653 c7 -3 16 -2 19 1 4 3 -2 6 -13 5 -11 0 -14 -3 -6 -6z"/>
<path d="M1576 4625 c-16 -12 -17 -15 -4 -15 9 0 19 -6 22 -12 4 -7 4 -3 2 10
-3 18 -1 22 10 18 9 -3 12 -1 9 4 -8 13 -16 12 -39 -5z"/>
<path d="M3677 4624 c3 -7 9 -14 14 -14 14 0 10 17 -5 23 -10 4 -13 1 -9 -9z"/>
<path d="M3750 4610 c-8 -5 -18 -6 -24 -3 -5 3 -6 1 -2 -5 5 -9 13 -9 28 -1
19 10 20 9 15 -10 -3 -12 -1 -19 4 -15 11 6 12 31 1 38 -4 2 -14 1 -22 -4z"/>
<path d="M2580 4606 c0 -2 8 -10 18 -17 15 -13 16 -12 3 4 -13 16 -21 21 -21
13z"/>
<path d="M2615 4576 c-9 -19 -15 -49 -12 -68 3 -30 4 -29 5 9 1 23 8 46 15 50
10 7 20 43 11 43 -2 0 -10 -15 -19 -34z"/>
<path d="M1540 4589 c0 -5 5 -7 10 -4 6 3 10 8 10 11 0 2 -4 4 -10 4 -5 0 -10
-5 -10 -11z"/>
<path d="M2730 4595 c0 -10 33 -65 40 -65 3 0 6 12 6 28 1 15 -1 21 -3 15 -7
-19 -24 -16 -21 3 2 10 -3 19 -9 21 -7 3 -13 2 -13 -2z"/>
<path d="M1490 4571 c0 -10 19 -25 25 -20 1 2 -3 10 -11 17 -8 7 -14 8 -14 3z"/>
<path d="M1473 4553 c6 -25 -3 -29 -21 -11 -9 9 -12 9 -12 -1 0 -7 -3 -10 -7
-8 -5 3 -14 -2 -22 -10 -12 -13 -11 -14 9 -8 19 6 22 4 17 -9 -4 -11 -3 -15 4
-11 6 4 8 13 5 21 -3 8 -1 14 4 14 6 0 10 -5 10 -12 0 -8 6 -7 16 4 13 13 14
20 4 34 -10 18 -11 17 -7 -3z"/>
<path d="M2283 4548 c2 -7 0 -24 -5 -38 -6 -17 -6 -22 1 -15 14 14 22 65 10
65 -6 0 -9 -6 -6 -12z"/>
<path d="M2342 4540 c7 -11 19 -20 26 -20 10 0 10 5 2 20 -6 11 -17 20 -25 20
-13 0 -13 -3 -3 -20z"/>
<path d="M3032 4545 c1 -11 -3 -30 -10 -42 -12 -21 -11 -23 15 -22 17 1 21 3
10 6 -9 2 -15 8 -12 13 3 5 13 7 23 4 14 -5 15 -4 2 5 -13 9 -12 12 5 25 11 9
15 16 8 16 -6 0 -15 -5 -19 -12 -5 -8 -10 -6 -16 8 -7 18 -8 18 -6 -1z"/>
<path d="M3821 4543 c7 -8 15 -10 18 -6 4 4 10 11 14 14 4 4 -4 7 -18 7 -21 0
-23 -3 -14 -15z"/>
<path d="M3865 4531 c-3 -5 5 -11 17 -13 13 -2 24 -9 24 -15 1 -7 2 -18 3 -23
1 -7 6 -6 15 2 11 11 11 15 -3 26 -14 12 -14 13 4 7 13 -4 16 -3 10 3 -15 15
-63 23 -70 13z"/>
<path d="M2740 4524 c0 -5 7 -20 16 -32 8 -12 13 -26 9 -31 -3 -5 -1 -12 4
-15 15 -10 6 39 -12 65 -10 13 -17 19 -17 13z"/>
<path d="M2781 4515 c1 -19 18 -51 18 -35 0 8 -4 22 -9 30 -5 8 -9 11 -9 5z"/>
<path d="M3150 4508 c0 -6 3 -8 7 -5 3 4 13 1 22 -6 14 -11 14 -10 2 6 -15 20
-31 22 -31 5z"/>
<path d="M2038 4503 c7 -3 16 -2 19 1 4 3 -2 6 -13 5 -11 0 -14 -3 -6 -6z"/>
<path d="M2370 4501 c0 -5 7 -11 14 -14 10 -4 13 -1 9 9 -6 15 -23 19 -23 5z"/>
<path d="M1390 4479 c0 -6 -7 -9 -15 -5 -8 3 -14 0 -12 -7 1 -7 -6 -11 -17
-10 -12 1 -15 -2 -8 -9 7 -7 16 -6 29 1 27 14 49 41 34 41 -6 0 -11 -5 -11
-11z"/>
<path d="M3146 4475 c-3 -8 0 -15 6 -15 9 0 9 -3 0 -12 -16 -16 -15 -29 3 -22
8 4 13 17 12 35 -2 31 -11 38 -21 14z"/>
<path d="M3954 4482 c3 -5 0 -12 -6 -15 -7 -2 -10 -7 -7 -11 3 -4 12 0 18 8 9
11 9 16 0 22 -7 4 -9 3 -5 -4z"/>
<path d="M2626 4465 c4 -8 8 -15 10 -15 2 0 4 7 4 15 0 8 -4 15 -10 15 -5 0
-7 -7 -4 -15z"/>
<path d="M2066 4457 c3 -10 9 -15 12 -12 3 3 0 11 -7 18 -10 9 -11 8 -5 -6z"/>
<path d="M2397 4454 c3 -7 9 -14 14 -14 14 0 10 17 -5 23 -10 4 -13 1 -9 -9z"/>
<path d="M2591 4434 c0 -11 3 -14 6 -6 3 7 2 16 -1 19 -3 4 -6 -2 -5 -13z"/>
<path d="M2612 4430 c0 -14 2 -19 5 -12 2 6 2 18 0 25 -3 6 -5 1 -5 -13z"/>
<path d="M3336 4432 c-3 -9 -9 -23 -12 -29 -3 -7 -1 -13 5 -13 6 0 11 5 11 11
0 7 7 17 16 24 15 10 15 12 1 18 -9 3 -17 -1 -21 -11z"/>
<path d="M3966 4438 c3 -5 10 -6 15 -3 13 9 11 12 -6 12 -8 0 -12 -4 -9 -9z"/>
<path d="M1290 4435 c0 -5 5 -17 10 -25 5 -8 10 -10 10 -5 0 6 -5 17 -10 25
-5 8 -10 11 -10 5z"/>
<path d="M1315 4430 c3 -5 8 -10 11 -10 2 0 4 5 4 10 0 6 -5 10 -11 10 -5 0
-7 -4 -4 -10z"/>
<path d="M2747 4424 c-3 -11 -8 -35 -12 -54 l-6 -35 15 29 c9 15 14 32 11 36
-3 5 -1 10 5 12 5 2 6 9 1 17 -7 11 -10 10 -14 -5z"/>
<path d="M2406 4414 c-5 -13 8 -54 18 -54 2 0 3 13 4 30 1 33 -13 48 -22 24z"/>
<path d="M3016 4420 c-17 -6 -18 -7 -3 -13 9 -3 19 -2 23 4 9 15 2 18 -20 9z"/>
<path d="M3117 4401 c-4 -17 -3 -21 5 -13 5 5 8 16 6 23 -3 8 -7 3 -11 -10z"/>
<path d="M3290 4400 c-6 -11 -7 -20 -3 -20 4 0 -1 -7 -11 -15 -20 -15 -20 -15
0 -15 31 0 51 17 37 31 -6 6 -9 18 -6 25 8 21 -5 17 -17 -6z"/>
<path d="M4020 4406 c0 -2 8 -10 18 -17 15 -13 16 -12 3 4 -13 16 -21 21 -21
13z"/>
<path d="M1233 4387 c-3 -5 0 -13 7 -17 9 -6 8 -10 -6 -19 -11 -6 -14 -10 -9
-10 6 -1 21 8 35 19 14 11 19 20 12 20 -7 0 -11 4 -8 8 3 5 -2 9 -10 9 -8 0
-18 -5 -21 -10z"/>
<path d="M1916 4375 c-6 -18 10 -30 18 -13 3 7 3 3 0 -9 -4 -16 -1 -23 9 -23
8 0 18 -12 21 -26 4 -15 10 -24 13 -20 7 7 -33 92 -47 101 -4 3 -10 -2 -14
-10z"/>
<path d="M2584 4365 c-19 -17 -22 -25 -12 -25 9 0 18 7 22 15 6 17 26 20 26 4
0 -5 -4 -7 -10 -4 -5 3 -10 1 -10 -4 0 -6 3 -11 8 -11 4 -1 23 -2 42 -4 19 -2
27 -1 18 1 -9 2 -22 12 -30 21 -9 11 -10 14 0 8 6 -4 12 -5 12 -2 0 3 -9 10
-19 16 -16 8 -25 5 -47 -15z"/>
<path d="M3000 4386 c0 -2 7 -7 16 -10 8 -3 12 -2 9 4 -6 10 -25 14 -25 6z"/>
<path d="M2255 4360 c-7 -23 1 -40 18 -39 9 0 9 2 0 6 -8 3 -11 14 -7 29 7 29
-2 32 -11 4z"/>
<path d="M4055 4370 c-3 -6 1 -7 9 -4 18 7 21 14 7 14 -6 0 -13 -4 -16 -10z"/>
<path d="M4085 4363 c-16 -13 -17 -15 -2 -10 12 5 17 1 18 -11 0 -10 3 -12 6
-4 2 6 9 12 15 12 6 0 8 -7 5 -14 -4 -10 -1 -13 7 -10 8 3 17 1 21 -5 3 -6 10
-11 15 -11 9 0 -22 35 -50 57 -12 9 -20 8 -35 -4z"/>
<path d="M2445 4360 c-3 -5 -1 -10 4 -10 6 0 11 5 11 10 0 6 -2 10 -4 10 -3 0
-8 -4 -11 -10z"/>
<path d="M1710 4338 c14 -7 26 -20 28 -28 2 -8 7 -21 11 -28 7 -12 9 -11 14 2
4 10 3 15 -2 12 -5 -3 -11 1 -15 9 -3 8 0 15 6 15 22 0 -6 18 -37 24 -30 6
-30 6 -5 -6z"/>
<path d="M3121 4336 c-8 -10 -9 -16 -1 -21 6 -3 8 -10 5 -15 -3 -4 3 -14 12
-21 14 -12 15 -11 9 9 -5 15 -3 22 5 22 7 0 4 7 -7 16 -18 15 -18 15 5 8 16
-4 21 -3 17 5 -10 15 -31 14 -45 -3z"/>
<path d="M2415 4330 c-3 -5 -1 -10 4 -10 6 0 11 5 11 10 0 6 -2 10 -4 10 -3 0
-8 -4 -11 -10z"/>
<path d="M2450 4329 c0 -5 5 -7 10 -4 6 3 10 8 10 11 0 2 -4 4 -10 4 -5 0 -10
-5 -10 -11z"/>
<path d="M2974 4329 c-3 -5 -9 -7 -13 -5 -4 3 -13 0 -21 -5 -11 -6 -5 -8 18
-4 17 3 32 1 32 -4 0 -5 7 -12 16 -15 8 -3 13 -2 9 3 -3 5 -1 11 5 13 5 1 -2
8 -15 15 -15 6 -27 7 -31 2z"/>
<path d="M3255 4330 c-8 -13 5 -13 25 0 13 8 13 10 -2 10 -9 0 -20 -4 -23 -10z"/>
<path d="M3625 4330 c4 -6 1 -19 -7 -28 -12 -15 -11 -16 5 -3 19 15 24 2 5
-17 -9 -9 -9 -12 0 -12 18 0 32 42 20 58 -13 15 -32 16 -23 2z"/>
<path d="M1170 4320 c-13 -8 -12 -10 3 -10 12 0 16 -4 11 -12 -5 -9 -2 -9 9 1
18 14 23 26 8 17 -5 -4 -11 -2 -13 4 -2 6 -8 6 -18 0z"/>
<path d="M3290 4309 c0 -6 -7 -9 -15 -5 -12 4 -15 -3 -15 -29 0 -33 15 -54 28
-40 4 4 1 10 -5 12 -7 3 -13 13 -13 24 0 11 5 16 13 13 7 -2 13 4 14 16 1 11
0 20 -3 20 -2 0 -4 -5 -4 -11z"/>
<path d="M2270 4299 c0 -5 5 -7 10 -4 6 3 10 8 10 11 0 2 -4 4 -10 4 -5 0 -10
-5 -10 -11z"/>
<path d="M3100 4298 c0 -20 18 -43 27 -35 4 5 1 12 -6 16 -7 5 -10 14 -7 20 4
6 2 11 -3 11 -6 0 -11 -6 -11 -12z"/>
<path d="M2117 4293 c-4 -3 -7 -13 -7 -22 1 -13 3 -13 11 2 11 19 8 33 -4 20z"/>
<path d="M3720 4282 c0 -5 7 -15 15 -22 8 -7 15 -8 15 -2 0 5 -7 15 -15 22 -8
7 -15 8 -15 2z"/>
<path d="M1090 4250 c-7 -16 -17 -30 -22 -30 -5 0 -6 -5 -2 -11 4 -8 -1 -9
-16 -4 -15 5 -20 4 -16 -4 4 -6 0 -11 -9 -11 -9 0 -14 -4 -10 -9 3 -6 -1 -13
-8 -18 -19 -11 -27 -37 -17 -53 6 -10 10 -7 15 13 4 15 11 27 17 27 5 0 6 -6
2 -12 -4 -7 8 3 25 22 47 52 50 57 44 64 -4 3 2 6 13 6 14 0 15 3 6 8 -7 5
-10 16 -6 25 11 30 -3 18 -16 -13z m-35 -70 c3 -5 -1 -10 -10 -10 -9 0 -13 5
-10 10 3 6 8 10 10 10 2 0 7 -4 10 -10z"/>
<path d="M1126 4265 c-3 -8 -1 -15 4 -15 6 0 10 7 10 15 0 8 -2 15 -4 15 -2 0
-6 -7 -10 -15z"/>
<path d="M3589 4253 c-13 -16 -12 -17 4 -4 16 13 21 21 13 21 -2 0 -10 -8 -17
-17z"/>
<path d="M4177 4259 c7 -7 15 -10 18 -7 3 3 -2 9 -12 12 -14 6 -15 5 -6 -5z"/>
<path d="M4217 4259 c7 -7 15 -10 18 -7 3 3 -2 9 -12 12 -14 6 -15 5 -6 -5z"/>
<path d="M1980 4244 c8 -10 15 -20 16 -22 1 -2 4 1 7 5 3 5 -4 15 -16 23 -21
12 -21 12 -7 -6z"/>
<path d="M3116 4241 c-17 -6 -17 -8 -4 -14 10 -3 19 0 22 9 3 8 4 14 3 13 -1
0 -11 -4 -21 -8z"/>
<path d="M3600 4235 c-10 -12 -10 -18 -2 -26 7 -5 10 -6 7 -2 -3 3 2 15 12 25
9 10 11 18 6 18 -6 0 -16 -7 -23 -15z"/>
<path d="M1581 4231 c-7 -5 -9 -11 -5 -14 5 -3 15 1 22 9 14 16 5 18 -17 5z"/>
<path d="M3720 4231 c0 -10 19 -25 25 -20 1 2 -3 10 -11 17 -8 7 -14 8 -14 3z"/>
<path d="M4233 4224 c-3 -8 0 -21 7 -27 10 -9 14 -9 17 1 3 6 9 10 14 6 13 -8
11 10 -3 24 -16 16 -27 15 -35 -4z"/>
<path d="M1632 4208 c2 -6 10 -14 16 -16 7 -2 10 2 6 12 -7 18 -28 22 -22 4z"/>
<path d="M1463 4196 c-6 -7 -8 -18 -5 -23 8 -12 25 3 30 25 3 16 -10 15 -25
-2z"/>
<path d="M1600 4197 c0 -10 8 -17 18 -17 9 0 13 4 7 8 -5 4 -13 11 -17 16 -5
5 -8 2 -8 -7z"/>
<path d="M3400 4194 c0 -8 5 -12 10 -9 6 4 8 11 5 16 -9 14 -15 11 -15 -7z"/>
<path d="M4290 4196 c0 -2 7 -7 16 -10 8 -3 12 -2 9 4 -6 10 -25 14 -25 6z"/>
<path d="M1856 4165 c9 -14 12 -25 6 -25 -5 0 -12 7 -16 15 -6 18 -36 20 -36
3 0 -6 3 -8 7 -5 3 4 15 -1 25 -10 26 -23 45 -4 26 26 -7 11 -16 21 -21 21 -4
0 0 -11 9 -25z"/>
<path d="M3547 4183 c-10 -10 -8 -23 4 -23 5 0 7 5 3 12 -5 8 -2 9 10 5 10 -4
15 -3 11 3 -7 12 -19 13 -28 3z"/>
<path d="M3695 4180 c-3 -5 -3 -10 2 -11 4 0 -1 -4 -12 -9 -17 -7 -17 -9 -3
-9 10 -1 22 8 28 19 11 20 -3 30 -15 10z"/>
<path d="M1637 4173 c-4 -3 -7 -16 -6 -27 0 -19 1 -19 10 3 10 24 8 36 -4 24z"/>
<path d="M1483 4124 c0 -7 4 -11 8 -8 4 2 10 -6 12 -18 3 -16 4 -13 4 8 -1 29
-24 46 -24 18z"/>
<path d="M3658 4133 c7 -3 16 -2 19 1 4 3 -2 6 -13 5 -11 0 -14 -3 -6 -6z"/>
<path d="M1660 4100 c0 -5 5 -10 10 -10 6 0 10 5 10 10 0 6 -4 10 -10 10 -5 0
-10 -4 -10 -10z"/>
<path d="M950 4085 c-7 -9 -8 -15 -2 -15 5 0 12 7 16 15 3 8 4 15 2 15 -2 0
-9 -7 -16 -15z"/>
<path d="M1525 4090 c-3 -5 -1 -10 4 -10 6 0 11 5 11 10 0 6 -2 10 -4 10 -3 0
-8 -4 -11 -10z"/>
<path d="M3855 4090 c-3 -5 -1 -10 4 -10 6 0 11 5 11 10 0 6 -2 10 -4 10 -3 0
-8 -4 -11 -10z"/>
<path d="M2553 4075 c-15 -16 -16 -25 -5 -25 4 0 13 9 20 20 14 23 3 26 -15 5z"/>
<path d="M2618 4083 c6 -2 18 -2 25 0 6 3 1 5 -13 5 -14 0 -19 -2 -12 -5z"/>
<path d="M2736 4083 c5 -5 12 -12 16 -18 4 -6 8 -2 8 8 0 9 -7 17 -17 17 -9 0
-12 -3 -7 -7z"/>
<path d="M2775 4080 c-3 -5 -1 -10 4 -10 6 0 11 5 11 10 0 6 -2 10 -4 10 -3 0
-8 -4 -11 -10z"/>
<path d="M4368 4080 c6 -8 12 -18 12 -23 0 -4 -6 -5 -12 -2 -7 4 1 -7 19 -23
17 -17 28 -33 25 -37 -4 -4 5 -1 20 6 22 9 25 15 17 25 -8 10 -17 11 -29 4
-20 -11 -30 -4 -30 20 0 10 -8 24 -17 31 -15 11 -16 11 -5 -1z m72 -60 c0 -5
-5 -10 -11 -10 -5 0 -7 5 -4 10 3 6 8 10 11 10 2 0 4 -4 4 -10z"/>
<path d="M1312 4052 c-11 -25 -11 -25 4 -10 9 9 15 21 13 27 -2 6 -10 -2 -17
-17z"/>
<path d="M2451 4064 c0 -11 3 -14 6 -6 3 7 2 16 -1 19 -3 4 -6 -2 -5 -13z"/>
<path d="M2497 4066 c-6 -14 21 -32 31 -21 3 3 0 5 -6 5 -6 0 -9 7 -6 15 4 8
2 15 -4 15 -5 0 -12 -6 -15 -14z"/>
<path d="M2850 4070 c0 -5 5 -10 11 -10 5 0 7 5 4 10 -3 6 -8 10 -11 10 -2 0
-4 -4 -4 -10z"/>
<path d="M3790 4072 c0 -5 7 -9 15 -9 8 0 12 4 9 9 -3 4 -9 8 -15 8 -5 0 -9
-4 -9 -8z"/>
<path d="M3957 4064 c-3 -3 -3 -12 -1 -19 3 -7 -2 -15 -11 -19 -9 -3 -14 -10
-10 -15 3 -5 1 -12 -5 -16 -5 -3 -10 -1 -10 4 0 6 -5 11 -11 11 -8 0 -8 -5 1
-15 10 -12 16 -13 26 -4 8 6 11 15 8 20 -3 5 1 9 8 9 8 0 22 9 31 21 18 20 18
21 -4 14 -14 -5 -19 -4 -15 4 8 12 3 15 -7 5z"/>
<path d="M930 4050 c0 -5 7 -7 15 -4 8 4 15 8 15 10 0 2 -7 4 -15 4 -8 0 -15
-4 -15 -10z"/>
<path d="M2788 4053 c7 -3 16 -2 19 1 4 3 -2 6 -13 5 -11 0 -14 -3 -6 -6z"/>
<path d="M2990 4056 c0 -2 7 -7 16 -10 8 -3 12 -2 9 4 -6 10 -25 14 -25 6z"/>
<path d="M2310 4046 c0 -2 7 -7 16 -10 8 -3 12 -2 9 4 -6 10 -25 14 -25 6z"/>
<path d="M2356 4035 c-3 -8 -1 -15 4 -15 6 0 10 7 10 15 0 8 -2 15 -4 15 -2 0
-6 -7 -10 -15z"/>
<path d="M3760 4035 c-10 -12 -10 -15 3 -15 19 0 31 16 18 24 -5 3 -14 -1 -21
-9z"/>
<path d="M880 4031 c0 -10 19 -25 25 -20 1 2 -3 10 -11 17 -8 7 -14 8 -14 3z"/>
<path d="M2266 4021 c-11 -17 18 -30 37 -16 16 11 16 13 2 19 -9 3 -13 2 -10
-4 3 -6 -1 -10 -10 -10 -9 0 -13 5 -10 10 3 6 4 10 1 10 -3 0 -7 -4 -10 -9z"/>
<path d="M2905 4019 c-3 -5 1 -6 9 -3 9 3 16 2 16 -4 0 -6 8 -9 18 -7 9 1 28
-2 41 -7 18 -6 29 -5 40 7 10 10 11 15 3 15 -7 0 -12 -5 -12 -12 0 -9 -3 -9
-11 -1 -6 6 -18 9 -27 6 -11 -5 -13 -3 -7 8 8 12 6 12 -8 0 -9 -7 -17 -9 -17
-4 0 12 -38 14 -45 2z"/>
<path d="M3095 4010 c-3 -11 -14 -20 -23 -21 -13 0 -13 -2 -3 -6 8 -3 22 5 32
18 l19 24 -3 -25 c-2 -26 26 -41 45 -22 6 6 0 8 -16 5 -15 -3 -26 -1 -26 6 0
5 6 8 14 5 8 -3 17 -1 21 5 3 6 0 9 -8 5 -8 -3 -17 2 -20 10 -9 22 -24 20 -32
-4z"/>
<path d="M2172 4012 c-9 -7 -8 -13 8 -27 11 -10 20 -13 20 -7 0 6 -5 14 -11
18 -8 4 -7 9 2 15 8 5 10 9 4 9 -5 0 -16 -4 -23 -8z"/>
<path d="M3065 4010 c-3 -5 -1 -10 4 -10 6 0 11 5 11 10 0 6 -2 10 -4 10 -3 0
-8 -4 -11 -10z"/>
<path d="M1280 4005 c0 -8 29 -12 39 -5 9 5 4 8 -13 8 -14 0 -26 -2 -26 -3z"/>
<path d="M1626 3997 c3 -10 9 -15 12 -12 3 3 0 11 -7 18 -10 9 -11 8 -5 -6z"/>
<path d="M2210 4003 c0 -16 25 -23 41 -11 11 8 11 9 -2 5 -9 -3 -22 0 -28 6
-8 8 -11 8 -11 0z"/>
<path d="M3723 3982 c0 -30 1 -31 14 -12 7 11 21 24 31 29 9 6 12 11 5 11 -6
0 -18 -7 -27 -15 -13 -13 -15 -13 -19 3 -2 9 -4 2 -4 -16z"/>
<path d="M883 3992 c-8 -5 -9 -13 -3 -22 8 -13 10 -13 10 2 0 9 6 19 13 21 6
3 8 6 2 6 -5 0 -15 -3 -22 -7z"/>
<path d="M1349 3991 c11 -7 11 -9 0 -14 -8 -3 -4 -4 8 -4 17 1 19 4 11 14 -6
7 -16 13 -22 13 -6 0 -5 -4 3 -9z"/>
<path d="M2135 3990 c-4 -6 -10 -8 -15 -5 -5 3 -12 0 -16 -6 -4 -8 -3 -9 4 -5
8 5 12 -1 12 -14 0 -12 5 -18 10 -15 6 4 8 11 4 16 -3 5 0 16 6 24 7 8 10 15
7 15 -3 0 -9 -5 -12 -10z"/>
<path d="M1595 3980 c3 -5 8 -10 11 -10 2 0 4 5 4 10 0 6 -5 10 -11 10 -5 0
-7 -4 -4 -10z"/>
<path d="M3878 3970 c-9 -10 -14 -21 -10 -24 3 -3 -1 -6 -9 -6 -11 0 -11 -2 1
-10 11 -7 16 -4 21 13 3 13 12 21 23 21 13 -2 14 1 5 12 -6 8 -12 14 -13 13 0
0 -8 -9 -18 -19z"/>
<path d="M853 3955 c0 -8 4 -15 9 -15 4 0 8 7 8 15 0 8 -4 15 -8 15 -5 0 -9
-7 -9 -15z"/>
<path d="M1365 3949 c-11 -16 -1 -19 13 -3 7 8 8 14 3 14 -5 0 -13 -5 -16 -11z"/>
<path d="M2090 3951 c0 -5 5 -13 10 -16 6 -3 10 -2 10 4 0 5 -4 13 -10 16 -5
3 -10 2 -10 -4z"/>
<path d="M3235 3950 c-3 -5 -1 -10 4 -10 6 0 11 5 11 10 0 6 -2 10 -4 10 -3 0
-8 -4 -11 -10z"/>
<path d="M3269 3948 c-1 -2 -3 -12 -4 -23 -2 -16 4 -21 24 -22 25 -2 25 -1 4
7 -15 6 -21 15 -17 25 5 12 -2 23 -7 13z"/>
<path d="M2015 3930 c-3 -5 -2 -10 4 -10 5 0 13 5 16 10 3 6 2 10 -4 10 -5 0
-13 -4 -16 -10z"/>
<path d="M808 3898 c-30 -32 -35 -44 -17 -32 7 4 10 1 7 -7 -3 -8 -12 -13 -21
-13 -9 1 -14 -2 -12 -7 3 -4 -3 -12 -12 -18 -10 -6 -14 -11 -10 -11 19 0 68
43 63 56 -3 8 1 14 11 14 9 0 13 3 10 6 -3 4 -2 15 4 25 13 26 9 23 -23 -13z"/>
<path d="M1440 3910 c0 -5 5 -10 11 -10 5 0 7 5 4 10 -3 6 -8 10 -11 10 -2 0
-4 -4 -4 -10z"/>
<path d="M2045 3910 c-16 -7 -17 -9 -3 -9 9 -1 20 4 23 9 7 11 7 11 -20 0z"/>
<path d="M4480 3909 c0 -5 5 -9 11 -9 5 0 7 -5 3 -11 -4 -8 1 -9 17 -4 20 6
22 5 12 -6 -16 -16 -17 -29 -3 -29 6 0 10 6 10 14 0 8 5 16 11 18 5 2 -6 11
-25 19 -20 9 -36 13 -36 8z"/>
<path d="M1960 3903 c0 -19 18 -25 37 -13 17 11 16 11 -1 5 -11 -3 -23 0 -28
7 -5 9 -8 10 -8 1z"/>
<path d="M3330 3900 c-8 -5 -12 -11 -10 -14 3 -2 14 2 24 10 22 15 10 19 -14
4z"/>
<path d="M3804 3898 c-4 -5 -3 -12 0 -15 3 -4 6 -1 6 5 0 6 7 9 16 5 13 -5 13
-7 2 -14 -10 -7 -9 -9 5 -9 9 0 17 6 17 14 0 8 6 16 13 19 6 2 -3 4 -21 4 -18
0 -35 -4 -38 -9z"/>
<path d="M1477 3883 c-4 -3 -7 -13 -7 -21 0 -18 13 -7 16 13 2 17 1 18 -9 8z"/>
<path d="M1913 3884 c-7 -3 -9 -12 -6 -20 8 -20 18 -17 20 6 1 11 1 20 0 19
-1 0 -7 -3 -14 -5z"/>
<path d="M3350 3877 c0 -18 17 -32 48 -40 14 -3 20 -1 15 6 -4 6 0 8 11 4 14
-6 15 -3 6 13 -6 11 -13 20 -16 20 -3 0 -2 -5 1 -10 3 -6 -1 -13 -11 -17 -11
-4 -23 1 -36 16 -12 16 -18 19 -18 8z"/>
<path d="M1941 3873 c-1 -17 16 -25 25 -12 4 7 3 9 -4 5 -5 -3 -13 0 -15 6 -4
9 -6 10 -6 1z"/>
<path d="M4547 3864 c-3 -3 -3 -12 0 -20 4 -10 0 -12 -13 -7 -17 6 -17 5 -5
-10 7 -9 18 -14 24 -10 6 3 7 1 3 -6 -8 -12 18 -44 28 -34 3 4 6 -1 6 -9 0 -9
6 -19 13 -21 9 -4 9 -8 0 -14 -8 -6 -8 -13 3 -27 8 -11 14 -14 14 -7 0 7 5 9
10 6 8 -5 7 -11 -1 -21 -15 -18 -2 -18 17 0 12 13 12 16 -2 24 -9 5 -18 20
-19 33 -1 13 -3 27 -4 31 0 4 -13 15 -28 23 -17 10 -20 14 -8 11 19 -6 18 -5
-2 13 -12 10 -19 21 -16 25 4 3 1 6 -6 6 -7 0 -9 5 -6 10 7 11 2 14 -8 4z"/>
<path d="M1170 3849 c0 -5 4 -8 9 -4 5 3 16 -2 25 -10 8 -8 17 -11 20 -7 3 5
-6 14 -20 21 -31 14 -34 14 -34 0z"/>
<path d="M1878 3843 c7 -3 10 -9 7 -14 -7 -11 3 -11 30 1 13 6 15 9 5 9 -8 1
-24 3 -35 5 -11 2 -14 1 -7 -1z"/>
<path d="M3450 3839 c0 -5 5 -7 10 -4 14 9 12 -8 -2 -24 -11 -11 -9 -11 9 0
16 10 19 16 11 26 -13 16 -28 17 -28 2z"/>
<path d="M1832 3824 c-14 -15 -7 -17 22 -5 15 6 16 9 5 13 -8 3 -20 -1 -27 -8z"/>
<path d="M4190 3831 c0 -6 4 -13 10 -16 6 -3 7 1 4 9 -7 18 -14 21 -14 7z"/>
<path d="M1086 3801 c-3 -5 1 -11 9 -14 9 -4 12 -1 8 9 -6 16 -10 17 -17 5z"/>
<path d="M1858 3803 c7 -3 16 -2 19 1 4 3 -2 6 -13 5 -11 0 -14 -3 -6 -6z"/>
<path d="M730 3790 c0 -5 5 -10 11 -10 5 0 7 5 4 10 -3 6 -8 10 -11 10 -2 0
-4 -4 -4 -10z"/>
<path d="M4143 3779 c14 -8 22 -8 30 0 8 8 3 11 -18 11 -26 -1 -28 -2 -12 -11z"/>
<path d="M3516 3772 c-3 -5 1 -15 9 -22 16 -14 20 -3 6 19 -5 8 -11 9 -15 3z"/>
<path d="M3554 3767 c3 -10 6 -23 6 -28 0 -6 9 -7 20 -4 27 9 25 -3 -2 -15
-16 -6 -18 -9 -7 -9 22 -1 44 25 29 34 -6 4 -14 4 -18 1 -3 -4 -12 4 -20 16
-9 15 -11 17 -8 5z"/>
<path d="M1107 3764 c-3 -5 1 -15 9 -22 16 -14 18 -5 5 17 -5 7 -11 9 -14 5z"/>
<path d="M3945 3760 c3 -5 8 -10 11 -10 2 0 4 5 4 10 0 6 -5 10 -11 10 -5 0
-7 -4 -4 -10z"/>
<path d="M4087 3750 c-3 -11 -1 -23 4 -26 19 -12 7 -34 -23 -43 -18 -5 -25
-10 -15 -10 38 -2 58 18 54 55 -5 42 -13 52 -20 24z"/>
<path d="M698 3729 c-4 -23 -1 -29 9 -24 8 3 17 5 19 5 11 0 2 39 -10 43 -10
4 -15 -4 -18 -24z"/>
<path d="M1766 3747 c3 -10 9 -15 12 -12 3 3 0 11 -7 18 -10 9 -11 8 -5 -6z"/>
<path d="M3620 3720 c0 -5 5 -10 11 -10 5 0 7 5 4 10 -3 6 -8 10 -11 10 -2 0
-4 -4 -4 -10z"/>
<path d="M1150 3709 c0 -5 5 -7 10 -4 6 3 10 8 10 11 0 2 -4 4 -10 4 -5 0 -10
-5 -10 -11z"/>
<path d="M1187 3700 c-6 -22 -5 -22 52 -24 22 0 37 3 34 7 -3 5 -11 6 -19 3
-7 -3 -16 -1 -19 4 -3 6 -14 14 -24 20 -15 7 -20 5 -24 -10z m33 -10 c0 -5 -5
-10 -11 -10 -5 0 -7 5 -4 10 3 6 8 10 11 10 2 0 4 -4 4 -10z"/>
<path d="M4060 3716 c0 -2 7 -7 16 -10 8 -3 12 -2 9 4 -6 10 -25 14 -25 6z"/>
<path d="M1710 3701 c0 -6 4 -13 10 -16 6 -3 7 1 4 9 -7 18 -14 21 -14 7z"/>
<path d="M3629 3683 c-13 -16 -12 -17 4 -4 16 13 21 21 13 21 -2 0 -10 -8 -17
-17z"/>
<path d="M1657 3673 c5 -12 2 -15 -10 -10 -11 4 -14 2 -10 -9 3 -8 -1 -14 -8
-14 -10 0 -10 -3 -1 -12 14 -14 16 -32 3 -24 -5 3 -15 -2 -22 -12 -11 -14 -11
-15 0 -5 7 6 20 9 29 6 12 -5 14 -1 10 15 -4 13 1 31 13 46 16 20 16 25 4 29
-10 4 -12 1 -8 -10z"/>
<path d="M4276 3675 c3 -8 10 -13 14 -10 5 3 11 -3 13 -12 4 -16 5 -17 6 -1 0
10 -8 22 -19 28 -16 9 -18 8 -14 -5z"/>
<path d="M642 3643 c-20 -54 -25 -76 -13 -69 16 10 13 -3 -4 -20 -8 -9 -15
-21 -15 -27 0 -6 11 0 24 13 17 18 21 30 15 42 -5 9 -9 25 -9 35 1 14 4 13 15
-7 14 -24 14 -24 15 -3 0 12 5 23 12 25 8 3 8 9 -1 24 -11 18 -11 18 -9 0 2
-10 -3 -21 -11 -24 -9 -3 -11 1 -6 17 9 31 -1 26 -13 -6z"/>
<path d="M1040 3661 c0 -5 6 -14 13 -20 10 -8 14 -7 14 4 0 8 -6 16 -14 19 -7
3 -13 2 -13 -3z"/>
<path d="M1233 3653 c9 -2 23 -2 30 0 6 3 -1 5 -18 5 -16 0 -22 -2 -12 -5z"/>
<path d="M1286 3645 c4 -8 8 -15 10 -15 2 0 4 7 4 15 0 8 -4 15 -10 15 -5 0
-7 -7 -4 -15z"/>
<path d="M3621 3656 c2 -2 15 -9 29 -15 24 -11 24 -11 6 3 -16 13 -49 24 -35
12z"/>
<path d="M1660 3640 c0 -5 5 -10 10 -10 6 0 10 5 10 10 0 6 -4 10 -10 10 -5 0
-10 -4 -10 -10z"/>
<path d="M1090 3622 c-13 -14 -12 -15 3 -9 9 3 17 2 17 -2 0 -5 -6 -12 -12
-14 -7 -3 -3 -6 9 -6 16 -1 20 3 16 19 -7 28 -15 31 -33 12z"/>
<path d="M4234 3625 c-5 -13 -9 -13 -22 -3 -13 11 -14 11 -8 0 4 -7 2 -20 -5
-28 -9 -11 -4 -10 19 3 18 10 32 24 32 31 0 17 -9 15 -16 -3z"/>
<path d="M1130 3621 c0 -5 5 -13 10 -16 6 -3 10 -2 10 4 0 5 -4 13 -10 16 -5
3 -10 2 -10 -4z"/>
<path d="M3717 3599 c-24 -14 -21 -32 4 -26 15 4 19 2 15 -9 -3 -8 -1 -12 4
-9 9 6 9 39 -1 49 -2 2 -12 0 -22 -5z"/>
<path d="M1162 3576 c7 -8 17 -12 22 -9 4 3 2 9 -5 14 -22 13 -31 11 -17 -5z"/>
<path d="M1561 3570 c-22 -19 -22 -20 -3 -20 11 0 22 -5 24 -12 3 -7 7 -5 11
6 4 11 3 15 -4 10 -8 -4 -9 1 -4 15 8 26 6 26 -24 1z"/>
<path d="M4130 3586 c0 -2 7 -7 16 -10 8 -3 12 -2 9 4 -6 10 -25 14 -25 6z"/>
<path d="M4665 3580 c3 -5 8 -10 11 -10 2 0 4 5 4 10 0 6 -5 10 -11 10 -5 0
-7 -4 -4 -10z"/>
<path d="M4692 3570 c-7 -11 -8 -20 -3 -20 9 0 24 30 18 36 -1 2 -8 -6 -15
-16z"/>
<path d="M4088 3568 c8 -9 11 -21 8 -27 -8 -12 3 -41 16 -41 5 0 6 6 1 13 -4
6 -6 19 -5 28 2 9 -5 22 -15 30 -16 13 -17 12 -5 -3z"/>
<path d="M4122 3564 c10 -10 20 -16 22 -13 3 3 -5 11 -17 18 -21 13 -21 12 -5
-5z"/>
<path d="M4710 3544 c0 -8 5 -12 10 -9 6 4 8 11 5 16 -9 14 -15 11 -15 -7z"/>
<path d="M3758 3543 c-10 -2 -18 -9 -18 -14 0 -6 5 -7 12 -3 8 5 9 2 5 -9 -4
-11 2 -22 16 -32 21 -15 52 -22 32 -7 -17 12 -36 52 -30 62 4 6 5 9 3 9 -2 -1
-11 -3 -20 -6z"/>
<path d="M3800 3515 c7 -9 15 -13 17 -11 7 7 -7 26 -19 26 -6 0 -6 -6 2 -15z"/>
<path d="M1505 3500 c-11 -5 -15 -9 -10 -10 6 0 1 -7 -9 -15 -11 -8 -17 -17
-15 -20 3 -3 15 4 26 15 12 10 24 16 29 12 4 -4 4 -2 0 5 -3 6 1 13 11 16 12
3 13 5 3 5 -8 0 -24 -3 -35 -8z"/>
<path d="M4705 3500 c-4 -6 1 -7 11 -3 11 4 15 2 11 -4 -4 -6 3 -13 14 -16 20
-5 20 -5 3 14 -19 21 -30 24 -39 9z"/>
<path d="M1085 3451 c-3 -5 -1 -12 5 -16 5 -3 10 1 10 9 0 18 -6 21 -15 7z"/>
<path d="M4142 3451 c2 -7 7 -12 11 -12 12 1 9 15 -3 20 -7 2 -11 -2 -8 -8z"/>
<path d="M4746 3433 c-6 -14 -5 -15 5 -6 7 7 10 15 7 18 -3 3 -9 -2 -12 -12z"/>
<path d="M577 3433 c-10 -9 -9 -33 1 -33 4 0 8 9 9 20 2 21 0 24 -10 13z"/>
<path d="M1460 3433 c0 -6 8 -17 18 -24 16 -13 16 -13 2 6 -8 11 -16 22 -17
24 -2 2 -3 0 -3 -6z"/>
<path d="M4435 3430 c3 -5 8 -10 11 -10 2 0 4 5 4 10 0 6 -5 10 -11 10 -5 0
-7 -4 -4 -10z"/>
<path d="M4410 3422 c0 -15 16 -29 33 -29 24 0 21 10 -8 24 -14 6 -25 8 -25 5z"/>
<path d="M4746 3394 c-9 -24 -7 -31 4 -14 9 13 11 13 19 0 7 -10 6 -17 -2 -22
-9 -6 -9 -8 1 -8 7 0 10 -4 7 -10 -3 -6 4 -10 17 -10 21 1 22 1 4 11 -15 9
-16 13 -5 20 9 5 10 9 2 9 -6 0 -9 9 -6 20 4 15 0 20 -15 20 -11 0 -23 -7 -26
-16z"/>
<path d="M1443 3389 c-13 -5 -23 -10 -23 -12 0 -6 59 -1 65 5 11 10 -20 15
-42 7z"/>
<path d="M4355 3390 c-3 -6 1 -7 9 -4 18 7 21 14 7 14 -6 0 -13 -4 -16 -10z"/>
<path d="M4390 3391 c0 -6 4 -13 10 -16 6 -3 7 1 4 9 -7 18 -14 21 -14 7z"/>
<path d="M890 3370 c0 -6 -5 -8 -11 -4 -8 4 -8 0 0 -15 7 -11 13 -21 15 -21 9
0 13 41 5 46 -5 3 -9 0 -9 -6z"/>
<path d="M3858 3373 c7 -3 16 -2 19 1 4 3 -2 6 -13 5 -11 0 -14 -3 -6 -6z"/>
<path d="M555 3360 c3 -5 8 -10 11 -10 2 0 4 5 4 10 0 6 -5 10 -11 10 -5 0 -7
-4 -4 -10z"/>
<path d="M3896 3361 c-4 -6 -12 -9 -19 -7 -7 1 -9 1 -4 -1 4 -3 5 -9 1 -14 -9
-15 6 -10 23 6 8 9 13 18 10 21 -3 3 -8 1 -11 -5z"/>
<path d="M4297 3359 c7 -7 15 -10 18 -7 3 3 -2 9 -12 12 -14 6 -15 5 -6 -5z"/>
<path d="M4206 3351 c-4 -6 -1 -11 6 -11 11 0 10 -2 0 -9 -11 -7 -11 -9 1 -14
7 -3 20 -1 28 3 7 5 18 5 24 0 6 -5 17 -5 25 0 11 7 12 10 2 10 -7 0 -10 5 -7
10 3 6 1 10 -4 10 -6 0 -11 -4 -11 -9 0 -13 -40 -7 -49 8 -6 9 -11 10 -15 2z"/>
<path d="M520 3340 c0 -5 5 -10 10 -10 6 0 10 5 10 10 0 6 -4 10 -10 10 -5 0
-10 -4 -10 -10z"/>
<path d="M1428 3343 c7 -3 16 -2 19 1 4 3 -2 6 -13 5 -11 0 -14 -3 -6 -6z"/>
<path d="M915 3331 c-8 -15 3 -31 21 -31 9 0 14 7 12 17 -4 20 -24 28 -33 14z
m25 -11 c0 -5 -2 -10 -4 -10 -3 0 -8 5 -11 10 -3 6 -1 10 4 10 6 0 11 -4 11
-10z"/>
<path d="M1405 3320 c2 -27 15 -38 15 -12 0 11 -4 23 -8 26 -5 3 -8 -4 -7 -14z"/>
<path d="M3922 3316 c7 -8 15 -12 17 -11 5 6 -10 25 -20 25 -5 0 -4 -6 3 -14z"/>
<path d="M966 3309 c3 -6 0 -15 -7 -20 -10 -6 -7 -8 9 -6 12 0 22 2 22 3 0 12
-14 34 -22 34 -5 0 -6 -5 -2 -11z"/>
<path d="M4775 3309 c-11 -16 -1 -19 13 -3 7 8 8 14 3 14 -5 0 -13 -5 -16 -11z"/>
<path d="M1025 3290 c-3 -6 1 -7 9 -4 18 7 21 14 7 14 -6 0 -13 -4 -16 -10z"/>
<path d="M3906 3285 c-9 -26 -7 -32 5 -12 6 10 9 21 6 23 -2 3 -7 -2 -11 -11z"/>
<path d="M526 3273 c-6 -14 -5 -15 5 -6 7 7 10 15 7 18 -3 3 -9 -2 -12 -12z"/>
<path d="M1048 3273 c7 -3 16 -2 19 1 4 3 -2 6 -13 5 -11 0 -14 -3 -6 -6z"/>
<path d="M4806 3265 c-9 -26 -7 -32 5 -12 6 10 9 21 6 23 -2 3 -7 -2 -11 -11z"/>
<path d="M510 3233 c-10 -12 -11 -18 -2 -21 7 -2 9 -9 5 -15 -3 -7 -2 -9 2 -5
7 7 18 59 12 58 -1 -1 -9 -8 -17 -17z"/>
<path d="M4406 3228 c-13 -15 -20 -17 -26 -8 -5 9 -9 9 -14 1 -4 -6 -3 -11 3
-11 6 0 8 -7 5 -15 -4 -8 -1 -15 5 -15 6 0 11 4 11 9 0 4 11 7 25 6 14 -2 23
1 20 5 -3 5 -13 6 -23 3 -15 -6 -15 -5 -3 11 10 12 17 14 25 6 5 -5 15 -10 21
-10 5 0 2 5 -8 11 -9 6 -15 14 -12 20 11 17 -10 8 -29 -13z"/>
<path d="M1342 3231 c0 -3 -1 -9 -2 -13 -1 -5 -3 -11 -4 -15 -1 -5 -10 -23
-20 -41 -9 -19 -15 -37 -11 -40 3 -3 8 4 12 16 3 12 10 22 15 22 5 0 7 4 4 9
-3 5 3 11 15 14 16 4 18 3 8 -9 -7 -8 -7 -14 -1 -14 20 0 23 32 2 37 -11 3
-17 10 -14 15 3 5 12 7 20 4 8 -3 14 -2 14 3 0 5 -9 11 -20 14 -10 3 -19 2
-18 -2z"/>
<path d="M4470 3233 c0 -19 21 -27 33 -13 9 10 9 11 -2 5 -8 -4 -17 -2 -22 6
-6 9 -9 10 -9 2z"/>
<path d="M4825 3230 c3 -5 8 -10 11 -10 2 0 4 5 4 10 0 6 -5 10 -11 10 -5 0
-7 -4 -4 -10z"/>
<path d="M3946 3211 c-5 -7 -3 -18 3 -24 14 -14 20 -6 11 17 -5 15 -9 16 -14
7z"/>
<path d="M813 3202 c-8 -5 -9 -13 -3 -22 7 -11 10 -12 10 -2 0 7 4 11 9 8 5
-3 11 1 15 9 6 16 -11 20 -31 7z"/>
<path d="M4816 3201 c-4 -7 -5 -15 -2 -18 9 -9 19 4 14 18 -4 11 -6 11 -12 0z"/>
<path d="M856 3192 c-8 -13 39 -21 56 -11 10 7 9 9 -4 9 -9 0 -23 3 -31 6 -8
3 -18 1 -21 -4z"/>
<path d="M930 3190 c0 -5 4 -10 9 -10 6 0 13 5 16 10 3 6 -1 10 -9 10 -9 0
-16 -4 -16 -10z"/>
<path d="M4310 3189 c0 -13 14 -17 35 -9 17 6 16 7 -8 12 -15 3 -27 2 -27 -3z"/>
<path d="M980 3177 c0 -9 -5 -17 -11 -17 -5 0 -7 5 -3 11 4 7 2 10 -5 8 -19
-7 -15 -22 9 -31 13 -5 19 -4 15 2 -3 6 -1 10 4 10 6 0 11 -8 12 -17 0 -11 3
-13 6 -6 2 7 -3 23 -11 35 -13 18 -16 19 -16 5z"/>
<path d="M472 3160 c-7 -11 -8 -20 -3 -20 9 0 24 30 18 36 -1 2 -8 -6 -15 -16z"/>
<path d="M4813 3155 c0 -8 5 -16 12 -18 6 -3 11 4 11 14 0 11 -5 19 -11 19 -7
0 -12 -7 -12 -15z"/>
<path d="M4280 3139 c0 -5 5 -7 10 -4 6 3 10 8 10 11 0 2 -4 4 -10 4 -5 0 -10
-5 -10 -11z"/>
<path d="M1288 3087 c-3 -15 -2 -27 3 -27 13 0 17 14 9 35 -6 17 -7 16 -12 -8z"/>
<path d="M1325 3090 c-3 -5 -1 -10 4 -10 6 0 11 5 11 10 0 6 -2 10 -4 10 -3 0
-8 -4 -11 -10z"/>
<path d="M467 3083 c-12 -12 -7 -22 8 -17 8 4 15 10 15 15 0 11 -14 12 -23 2z"/>
<path d="M766 3052 c-3 -4 4 -9 15 -9 23 -2 25 3 4 10 -8 4 -16 3 -19 -1z"/>
<path d="M4857 3054 c-3 -3 -3 -13 0 -22 4 -10 2 -13 -5 -8 -7 4 -12 2 -12 -3
0 -13 27 -14 35 -2 3 5 0 13 -6 17 -8 4 -7 9 2 15 8 5 9 9 3 9 -6 0 -13 -3
-17 -6z"/>
<path d="M888 3036 c-17 -13 -14 -26 5 -26 6 0 7 3 4 7 -4 3 -2 12 4 20 14 16
9 16 -13 -1z"/>
<path d="M1016 3041 c-4 -5 -17 -8 -31 -5 -20 3 -23 1 -18 -12 5 -13 3 -15 -7
-9 -8 5 -5 -5 6 -24 10 -17 22 -31 26 -31 13 0 9 12 -9 26 -10 7 -14 16 -10
20 4 5 12 2 17 -6 8 -12 11 -13 22 -2 11 11 10 13 -1 10 -7 -2 -16 3 -19 11
-2 8 0 11 5 8 11 -7 40 9 31 18 -3 4 -9 2 -12 -4z"/>
<path d="M4373 3043 c9 -2 23 -2 30 0 6 3 -1 5 -18 5 -16 0 -22 -2 -12 -5z"/>
<path d="M476 3014 c-4 -9 -13 -14 -21 -10 -17 6 -18 4 -9 -18 5 -14 9 -13 25
5 11 12 19 26 19 31 0 13 -7 9 -14 -8z"/>
<path d="M758 3023 c7 -3 16 -2 19 1 4 3 -2 6 -13 5 -11 0 -14 -3 -6 -6z"/>
<path d="M1296 3012 c3 -15 0 -24 -10 -28 -13 -5 -13 -8 -1 -20 19 -20 30 -17
14 3 -12 15 -12 16 4 10 12 -4 16 -3 11 4 -4 6 0 15 7 20 12 7 12 10 0 21 -10
10 -12 10 -7 1 4 -7 3 -13 -3 -13 -5 0 -12 6 -15 13 -3 6 -3 2 0 -11z"/>
<path d="M4040 3008 c0 -9 -8 -18 -17 -20 -17 -3 -17 -4 -1 -10 22 -9 40 13
28 32 -8 13 -10 12 -10 -2z"/>
<path d="M1270 3000 c0 -5 5 -10 11 -10 5 0 7 5 4 10 -3 6 -8 10 -11 10 -2 0
-4 -4 -4 -10z"/>
<path d="M2599 2993 c-13 -16 -12 -17 4 -4 16 13 21 21 13 21 -2 0 -10 -8 -17
-17z"/>
<path d="M4846 2988 c3 -7 16 -21 30 -32 26 -18 26 -18 15 1 -6 11 -7 23 -3
27 3 4 -2 4 -12 0 -14 -5 -17 -4 -12 4 4 7 1 12 -8 12 -8 0 -13 -6 -10 -12z"/>
<path d="M466 2964 c-3 -9 -12 -14 -21 -10 -19 7 -19 -1 -1 -19 11 -12 15 -10
25 12 6 14 10 27 8 30 -3 2 -7 -4 -11 -13z"/>
<path d="M4860 2943 c0 -6 6 -16 14 -22 7 -6 11 -22 8 -36 -2 -14 0 -25 4 -25
16 0 9 59 -8 77 -10 9 -18 12 -18 6z"/>
<path d="M2606 2917 c3 -10 9 -15 12 -12 3 3 0 11 -7 18 -10 9 -11 8 -5 -6z"/>
<path d="M435 2900 c-3 -5 -1 -10 4 -10 6 0 11 5 11 10 0 6 -2 10 -4 10 -3 0
-8 -4 -11 -10z"/>
<path d="M3292 2894 c10 -10 20 -16 22 -13 3 3 -5 11 -17 18 -21 13 -21 12 -5
-5z"/>
<path d="M4850 2880 c0 -5 5 -10 11 -10 5 0 7 5 4 10 -3 6 -8 10 -11 10 -2 0
-4 -4 -4 -10z"/>
<path d="M426 2865 c4 -8 8 -15 10 -15 2 0 4 7 4 15 0 8 -4 15 -10 15 -5 0 -7
-7 -4 -15z"/>
<path d="M435 2840 c-11 -5 -15 -9 -9 -9 7 -1 9 -12 6 -28 -5 -24 -3 -26 9
-13 11 12 25 63 16 59 -1 0 -11 -4 -22 -9z"/>
<path d="M4877 2839 c7 -7 15 -10 18 -7 3 3 -2 9 -12 12 -14 6 -15 5 -6 -5z"/>
<path d="M4081 2805 c-1 -13 -4 -16 -9 -8 -16 25 -35 -3 -26 -38 4 -19 7 -37
6 -41 -3 -12 16 -10 23 2 3 6 1 10 -4 10 -11 0 5 38 20 50 4 3 3 14 -2 25 l-8
20 0 -20z m-14 -47 c-3 -8 -6 -5 -6 6 -1 11 2 17 5 13 3 -3 4 -12 1 -19z"/>
<path d="M4873 2789 c-2 -21 2 -29 14 -29 13 0 15 -10 10 -67 -4 -51 -3 -59 3
-33 14 54 9 128 -9 144 -14 13 -16 11 -18 -15z m27 -9 c0 -5 -4 -10 -10 -10
-5 0 -10 5 -10 10 0 6 5 10 10 10 6 0 10 -4 10 -10z"/>
<path d="M1267 2803 c-4 -3 -7 -11 -7 -17 0 -6 5 -5 12 2 6 6 9 14 7 17 -3 3
-9 2 -12 -2z"/>
<path d="M3458 2783 c6 -2 18 -2 25 0 6 3 1 5 -13 5 -14 0 -19 -2 -12 -5z"/>
<path d="M4437 2759 c-4 -16 -3 -18 9 -8 17 14 18 5 3 -23 -8 -15 -8 -19 0
-14 6 4 11 1 11 -6 0 -8 4 -7 11 4 5 10 17 15 27 12 14 -5 14 -4 2 4 -10 8
-19 7 -29 -1 -12 -10 -14 -9 -8 6 7 19 -1 47 -13 47 -4 0 -10 -9 -13 -21z"/>
<path d="M1260 2753 c0 -15 -2 -16 -10 -3 -9 13 -11 13 -20 0 -5 -8 -9 -24 -9
-35 1 -16 2 -15 8 5 5 18 9 21 15 12 6 -10 11 -9 22 5 16 22 18 33 4 33 -5 0
-10 -8 -10 -17z"/>
<path d="M3566 2735 c-3 -8 -1 -15 4 -15 6 0 10 7 10 15 0 8 -2 15 -4 15 -2 0
-6 -7 -10 -15z"/>
<path d="M3100 2720 c0 -5 5 -10 11 -10 5 0 7 5 4 10 -3 6 -8 10 -11 10 -2 0
-4 -4 -4 -10z"/>
<path d="M4395 2720 c-3 -6 1 -7 9 -4 18 7 21 14 7 14 -6 0 -13 -4 -16 -10z"/>
<path d="M4070 2700 c-14 -9 -7 -12 16 -9 4 0 11 -5 16 -13 7 -10 8 -8 6 6 -4
23 -18 29 -38 16z"/>
<path d="M4426 2699 c5 -8 2 -11 -7 -7 -10 4 -15 -1 -15 -13 0 -24 12 -25 21
-1 7 16 8 16 14 -2 6 -16 9 -17 13 -5 4 9 -2 21 -14 28 -16 10 -18 10 -12 0z"/>
<path d="M3465 2689 c-4 -6 -5 -12 -2 -15 2 -3 7 2 10 11 7 17 1 20 -8 4z"/>
<path d="M1220 2670 c0 -5 5 -10 10 -10 6 0 10 5 10 10 0 6 -4 10 -10 10 -5 0
-10 -4 -10 -10z"/>
<path d="M3488 2663 c7 -3 16 -2 19 1 4 3 -2 6 -13 5 -11 0 -14 -3 -6 -6z"/>
<path d="M4474 2655 c8 -8 18 -15 22 -15 3 0 1 7 -6 15 -7 8 -17 15 -22 15 -5
0 -3 -7 6 -15z"/>
<path d="M2623 2615 c0 -22 2 -30 4 -17 2 12 2 30 0 40 -3 9 -5 -1 -4 -23z"/>
<path d="M4050 2638 c0 -25 12 -58 21 -58 5 0 4 12 -2 26 -5 15 -7 29 -4 32 3
4 8 -4 12 -16 6 -23 23 -31 23 -11 0 12 -29 38 -42 39 -5 0 -8 -6 -8 -12z"/>
<path d="M1262 2610 c0 -14 2 -19 5 -12 2 6 2 18 0 25 -3 6 -5 1 -5 -13z"/>
<path d="M2621 2554 c0 -11 3 -14 6 -6 3 7 2 16 -1 19 -3 4 -6 -2 -5 -13z"/>
<path d="M4080 2547 c0 -14 5 -29 10 -32 7 -4 9 3 6 20 -7 37 -16 44 -16 12z"/>
<path d="M4870 2549 c0 -5 10 -9 22 -9 12 0 18 3 14 7 -10 11 -36 12 -36 2z"/>
<path d="M2771 2534 c0 -11 3 -14 6 -6 3 7 2 16 -1 19 -3 4 -6 -2 -5 -13z"/>
<path d="M4049 2548 c-6 -11 -3 -58 2 -58 4 0 7 14 7 30 -1 26 -5 37 -9 28z"/>
<path d="M4880 2515 c12 -15 3 -37 -25 -57 -6 -5 -5 -8 3 -8 6 0 12 -7 12 -15
0 -8 5 -15 10 -15 6 0 8 11 4 26 -5 20 -4 25 5 20 8 -6 11 3 9 28 -1 23 -7 36
-16 36 -12 0 -12 -3 -2 -15z"/>
<path d="M2770 2471 c0 -6 4 -13 10 -16 6 -3 7 1 4 9 -7 18 -14 21 -14 7z"/>
<path d="M445 2460 c-3 -5 -1 -10 4 -10 6 0 11 5 11 10 0 6 -2 10 -4 10 -3 0
-8 -4 -11 -10z"/>
<path d="M2831 2454 c0 -11 3 -14 6 -6 3 7 2 16 -1 19 -3 4 -6 -2 -5 -13z"/>
<path d="M3886 2435 c-9 -26 -7 -32 5 -12 6 10 9 21 6 23 -2 3 -7 -2 -11 -11z"/>
<path d="M4360 2423 c0 -12 5 -25 10 -28 6 -4 8 -10 5 -15 -7 -12 28 -7 43 7
16 15 15 20 -3 20 -8 0 -11 -5 -8 -10 3 -5 0 -8 -8 -5 -8 3 -20 15 -26 29 -12
23 -13 23 -13 2z"/>
<path d="M4586 2413 c-4 -9 0 -22 9 -30 8 -7 10 -8 5 -1 -13 16 -13 31 0 23 6
-3 10 1 10 9 0 21 -16 20 -24 -1z"/>
<path d="M4031 2402 c-12 -12 -11 -13 7 -7 17 5 21 3 16 -10 -4 -9 -13 -14
-22 -10 -12 4 -12 2 1 -19 12 -18 13 -26 4 -29 -6 -2 -8 -8 -4 -13 4 -5 12 -2
17 6 6 9 5 19 0 24 -6 6 -3 18 10 31 18 19 18 21 2 31 -13 9 -21 8 -31 -4z"/>
<path d="M4516 2406 c10 -7 28 -16 39 -20 20 -7 20 -7 0 11 -11 11 -28 20 -39
21 -19 1 -19 1 0 -12z"/>
<path d="M4475 2400 c27 -12 43 -12 25 0 -8 5 -22 9 -30 9 -10 0 -8 -3 5 -9z"/>
<path d="M455 2390 c-3 -5 -3 -10 2 -11 4 0 -1 -5 -12 -10 -19 -8 -19 -9 -1
-6 11 1 20 10 22 20 3 19 -2 22 -11 7z"/>
<path d="M2930 2370 c-9 -6 -10 -10 -3 -10 6 0 15 5 18 10 8 12 4 12 -15 0z"/>
<path d="M2990 2376 c0 -2 7 -7 16 -10 8 -3 12 -2 9 4 -6 10 -25 14 -25 6z"/>
<path d="M1255 2360 c3 -5 8 -10 11 -10 2 0 4 5 4 10 0 6 -5 10 -11 10 -5 0
-7 -4 -4 -10z"/>
<path d="M4845 2350 c-4 -6 -4 -14 -1 -17 3 -4 6 -1 6 6 0 7 5 9 11 6 7 -5 4
-14 -7 -26 -15 -17 -16 -19 -2 -14 23 9 29 31 13 45 -10 8 -15 8 -20 0z"/>
<path d="M890 2340 c0 -5 4 -10 9 -10 6 0 13 5 16 10 3 6 -1 10 -9 10 -9 0
-16 -4 -16 -10z"/>
<path d="M863 2318 c-2 -15 1 -18 9 -10 6 6 18 8 27 5 20 -8 12 1 -14 15 -18
9 -21 7 -22 -10z"/>
<path d="M952 2324 c10 -10 20 -15 24 -12 3 4 -5 12 -18 18 -22 12 -22 12 -6
-6z"/>
<path d="M727 2314 c6 -15 23 -19 23 -5 0 5 -7 11 -14 14 -10 4 -13 1 -9 -9z"/>
<path d="M797 2323 c-4 -3 -7 -16 -6 -27 0 -19 1 -19 10 3 10 24 8 36 -4 24z"/>
<path d="M1260 2315 c0 -5 8 -19 16 -30 16 -20 16 -20 9 3 -3 12 -3 22 2 21
18 -3 36 1 30 8 -11 11 -57 10 -57 -2z"/>
<path d="M981 2284 c0 -11 3 -14 6 -6 3 7 2 16 -1 19 -3 4 -6 -2 -5 -13z"/>
<path d="M4872 2280 c0 -14 2 -19 5 -12 2 6 2 18 0 25 -3 6 -5 1 -5 -13z"/>
<path d="M4517 2259 c7 -7 15 -10 18 -7 3 3 -2 9 -12 12 -14 6 -15 5 -6 -5z"/>
<path d="M4842 2244 c10 -10 20 -16 22 -13 3 3 -5 11 -17 18 -21 13 -21 12 -5
-5z"/>
<path d="M950 2240 c-8 -5 -12 -12 -9 -15 4 -3 12 1 19 10 14 17 11 19 -10 5z"/>
<path d="M3993 2235 c0 -8 6 -16 14 -19 11 -4 11 -1 3 14 -13 24 -17 25 -17 5z"/>
<path d="M4553 2235 c0 -8 4 -12 9 -9 5 3 6 10 3 15 -9 13 -12 11 -12 -6z"/>
<path d="M482 2235 c4 -4 3 -14 -2 -20 -8 -9 -6 -15 6 -19 9 -4 19 -4 22 -1 3
3 0 5 -6 5 -6 0 -9 6 -6 14 3 8 -1 17 -8 22 -7 4 -10 4 -6 -1z"/>
<path d="M885 2220 c11 -5 16 -9 10 -10 -5 -1 0 -5 13 -11 17 -6 31 -5 50 7
25 14 15 13 -23 -2 -10 -4 -13 -2 -10 8 4 10 -4 14 -27 15 -27 2 -29 0 -13 -7z"/>
<path d="M830 2200 c-21 -21 -28 -46 -10 -35 6 3 10 13 10 21 0 8 4 13 9 10 5
-3 11 1 15 9 7 20 0 19 -24 -5z"/>
<path d="M1305 2194 c0 -20 2 -22 11 -9 18 24 23 17 13 -17 -11 -41 -11 -41 1
-33 6 3 10 17 10 31 0 13 5 24 12 24 18 0 -7 23 -29 26 -13 2 -18 -4 -18 -22z"/>
<path d="M4830 2209 c0 -5 5 -7 10 -4 6 3 10 8 10 11 0 2 -4 4 -10 4 -5 0 -10
-5 -10 -11z"/>
<path d="M3975 2200 c-3 -6 1 -7 9 -4 18 7 21 14 7 14 -6 0 -13 -4 -16 -10z"/>
<path d="M780 2190 c-8 -5 -10 -10 -5 -10 6 0 17 5 25 10 8 5 11 10 5 10 -5 0
-17 -5 -25 -10z"/>
<path d="M4570 2191 c0 -5 5 -13 10 -16 6 -3 10 -2 10 4 0 5 -4 13 -10 16 -5
3 -10 2 -10 -4z"/>
<path d="M467 2184 c-4 -4 -3 -12 2 -18 5 -6 11 -22 13 -36 1 -14 9 -25 16
-25 7 0 17 -7 23 -15 9 -12 10 -12 5 3 -3 10 -6 21 -6 23 0 2 -7 4 -15 4 -9 0
-15 6 -14 13 3 18 -16 59 -24 51z"/>
<path d="M736 2181 c-17 -6 -17 -8 -4 -14 10 -3 19 0 22 9 3 8 4 14 3 13 -1 0
-11 -4 -21 -8z"/>
<path d="M4831 2174 c0 -11 3 -14 6 -6 3 7 2 16 -1 19 -3 4 -6 -2 -5 -13z"/>
<path d="M502 2160 c7 -10 14 -18 15 -16 6 6 -9 36 -18 36 -5 0 -4 -9 3 -20z"/>
<path d="M696 2144 c-4 -10 -1 -14 6 -12 15 5 23 28 10 28 -5 0 -13 -7 -16
-16z"/>
<path d="M4358 2153 c7 -3 16 -2 19 1 4 3 -2 6 -13 5 -11 0 -14 -3 -6 -6z"/>
<path d="M4393 2135 c0 -8 4 -12 8 -9 4 2 12 -4 18 -13 6 -11 11 -13 11 -5 0
12 -23 42 -33 42 -2 0 -4 -7 -4 -15z"/>
<path d="M3967 2108 c4 -21 3 -22 -10 -6 -16 20 -39 5 -30 -19 3 -8 2 -18 -4
-22 -5 -3 0 -14 11 -25 16 -16 18 -17 13 -3 -3 9 -2 17 3 17 12 0 37 53 32 68
-7 22 -20 13 -15 -10z m-13 -23 c3 -8 1 -15 -3 -15 -5 0 -11 7 -15 15 -3 8 -1
15 3 15 5 0 11 -7 15 -15z"/>
<path d="M1344 2100 c3 -26 26 -35 34 -12 2 6 -3 12 -11 12 -9 0 -18 6 -21 13
-2 6 -3 1 -2 -13z"/>
<path d="M4440 2109 c0 -5 5 -7 10 -4 6 3 10 8 10 11 0 2 -4 4 -10 4 -5 0 -10
-5 -10 -11z"/>
<path d="M4805 2110 c-3 -5 -1 -10 4 -10 6 0 11 5 11 10 0 6 -2 10 -4 10 -3 0
-8 -4 -11 -10z"/>
<path d="M934 2091 c14 -5 16 -10 7 -15 -6 -4 -20 -2 -29 5 -14 11 -15 11 -4
-1 17 -19 15 -28 -5 -33 -13 -3 -14 -5 -3 -6 8 0 28 10 43 24 19 19 27 22 27
11 0 -10 6 -13 16 -9 13 5 13 8 2 15 -9 7 -5 8 15 5 15 -2 27 0 27 4 0 5 -26
9 -57 8 -38 0 -51 -3 -39 -8z"/>
<path d="M4450 2080 c0 -5 5 -10 11 -10 5 0 7 5 4 10 -3 6 -8 10 -11 10 -2 0
-4 -4 -4 -10z"/>
<path d="M4808 2078 c8 -8 8 -15 1 -24 -7 -8 -6 -14 2 -20 7 -4 9 -3 5 4 -3 5
-1 12 5 14 13 4 1 38 -14 38 -8 0 -7 -4 1 -12z"/>
<path d="M1373 2064 c-9 -4 -7 -15 7 -39 10 -18 18 -35 17 -37 -1 -2 3 3 10
10 16 19 28 -4 12 -24 -9 -12 -10 -17 0 -27 10 -9 11 -8 6 6 -4 10 -2 17 4 17
22 0 10 40 -19 62 -22 16 -27 24 -18 30 14 8 1 10 -19 2z"/>
<path d="M4260 2061 c0 -6 5 -13 11 -17 8 -4 7 -9 -2 -15 -8 -5 -9 -9 -4 -9 6
0 17 5 25 10 10 6 11 10 3 10 -7 0 -13 7 -13 15 0 8 -4 15 -10 15 -5 0 -10 -4
-10 -9z"/>
<path d="M4785 2059 c-4 -6 -5 -12 -2 -15 2 -3 7 2 10 11 7 17 1 20 -8 4z"/>
<path d="M850 2050 c-12 -8 -12 -10 3 -16 9 -3 14 -11 10 -18 -3 -6 0 -5 8 2
12 11 12 14 0 21 -11 7 -11 9 0 14 8 3 10 6 4 6 -5 0 -17 -3 -25 -9z"/>
<path d="M522 2023 c-6 -12 -4 -28 5 -48 9 -20 12 -22 10 -8 -3 15 -1 20 9 16
8 -3 14 1 14 11 0 9 -7 16 -16 16 -10 0 -14 6 -10 15 8 21 -1 19 -12 -2z"/>
<path d="M940 2033 c5 -2 8 -9 4 -14 -3 -5 0 -9 6 -9 15 0 7 23 -8 26 -7 1 -8
0 -2 -3z"/>
<path d="M3908 2018 c4 -16 2 -19 -8 -13 -9 5 -11 4 -6 -4 6 -9 11 -9 22 0 18
15 18 25 0 32 -10 4 -12 0 -8 -15z"/>
<path d="M830 2009 c0 -5 5 -7 10 -4 6 3 10 8 10 11 0 2 -4 4 -10 4 -5 0 -10
-5 -10 -11z"/>
<path d="M4295 2007 c8 -19 52 -29 52 -11 0 7 -6 10 -14 7 -7 -3 -20 0 -28 7
-13 11 -14 10 -10 -3z"/>
<path d="M957 1971 c-4 -17 -3 -21 5 -13 5 5 8 16 6 23 -3 8 -7 3 -11 -10z"/>
<path d="M3900 1970 c-13 -11 -19 -20 -13 -20 5 0 18 9 28 20 10 11 16 20 13
20 -3 0 -15 -9 -28 -20z"/>
<path d="M821 1954 c0 -11 3 -14 6 -6 3 7 2 16 -1 19 -3 4 -6 -2 -5 -13z"/>
<path d="M4406 1962 c-3 -5 1 -9 9 -9 8 0 12 4 9 9 -3 4 -7 8 -9 8 -2 0 -6 -4
-9 -8z"/>
<path d="M4468 1953 c7 -3 16 -2 19 1 4 3 -2 6 -13 5 -11 0 -14 -3 -6 -6z"/>
<path d="M4755 1929 c-4 -17 -3 -35 1 -39 5 -5 10 9 11 31 1 47 -3 50 -12 8z"/>
<path d="M3837 1926 c-4 -10 -1 -13 9 -9 15 6 19 23 5 23 -5 0 -11 -7 -14 -14z"/>
<path d="M4455 1930 c3 -5 8 -10 11 -10 2 0 4 5 4 10 0 6 -5 10 -11 10 -5 0
-7 -4 -4 -10z"/>
<path d="M1463 1923 c4 -6 2 -15 -3 -18 -8 -5 -6 -13 4 -24 9 -10 13 -20 10
-23 -3 -3 -1 -9 5 -12 11 -7 28 20 27 43 -1 7 -12 21 -26 30 -13 9 -21 11 -17
4z m33 -36 c1 -9 -1 -17 -6 -17 -12 0 -30 26 -23 34 11 10 26 1 29 -17z"/>
<path d="M581 1883 c7 -10 15 -20 16 -22 2 -2 3 3 3 11 0 9 -7 19 -16 22 -15
6 -15 4 -3 -11z"/>
<path d="M885 1890 c-3 -6 1 -7 9 -4 18 7 21 14 7 14 -6 0 -13 -4 -16 -10z"/>
<path d="M584 1845 c10 -7 15 -18 11 -24 -3 -7 0 -8 9 -5 20 8 10 31 -17 38
-21 5 -21 4 -3 -9z"/>
<path d="M1146 1847 c3 -10 9 -15 12 -12 3 3 0 11 -7 18 -10 9 -11 8 -5 -6z"/>
<path d="M1510 1851 c0 -5 5 -13 10 -16 6 -3 10 -2 10 4 0 5 -4 13 -10 16 -5
3 -10 2 -10 -4z"/>
<path d="M3780 1856 c0 -2 7 -7 16 -10 8 -3 12 -2 9 4 -6 10 -25 14 -25 6z"/>
<path d="M1083 1843 c-7 -2 -13 -9 -13 -15 0 -7 5 -6 14 1 7 6 22 8 31 4 13
-4 16 -3 11 5 -7 12 -22 14 -43 5z"/>
<path d="M3744 1789 c-14 -20 -19 -38 -16 -57 4 -19 7 -22 10 -9 2 9 9 17 15
18 7 0 3 4 -8 9 -11 5 -14 9 -7 9 6 1 12 9 12 19 0 13 2 14 9 3 12 -18 25 4
14 23 -6 12 -12 8 -29 -15z"/>
<path d="M3786 1812 c-2 -4 -1 -14 4 -22 7 -11 9 -9 7 8 -1 24 -3 26 -11 14z"/>
<path d="M607 1797 c-11 -29 -9 -43 4 -30 6 6 9 19 7 29 -3 18 -4 18 -11 1z"/>
<path d="M4320 1795 c0 -8 4 -15 8 -15 5 0 9 7 9 15 0 8 -4 15 -9 15 -4 0 -8
-7 -8 -15z"/>
<path d="M994 1786 c-3 -9 -10 -13 -15 -10 -5 3 -9 0 -9 -5 0 -6 4 -11 9 -11
13 0 35 29 28 37 -4 3 -9 -2 -13 -11z"/>
<path d="M1182 1780 c0 -14 2 -19 5 -12 2 6 2 18 0 25 -3 6 -5 1 -5 -13z"/>
<path d="M942 1764 c-7 -8 -8 -14 -3 -14 10 0 25 19 20 25 -2 1 -10 -3 -17
-11z"/>
<path d="M1160 1751 c0 -5 7 -15 17 -22 15 -13 15 -12 4 9 -12 23 -21 28 -21
13z"/>
<path d="M4380 1749 c0 -5 5 -7 10 -4 6 3 10 8 10 11 0 2 -4 4 -10 4 -5 0 -10
-5 -10 -11z"/>
<path d="M1590 1741 c0 -6 4 -13 10 -16 6 -3 7 1 4 9 -7 18 -14 21 -14 7z"/>
<path d="M1622 1736 c4 -5 3 -17 -3 -27 -11 -22 3 -26 20 -5 9 10 7 16 -6 27
-10 7 -15 10 -11 5z"/>
<path d="M4665 1730 c-4 -6 3 -10 14 -10 25 0 27 6 6 13 -8 4 -17 2 -20 -3z"/>
<path d="M644 1716 c-3 -8 -1 -23 6 -33 9 -16 10 -15 4 6 -4 16 -3 21 5 17 6
-4 11 0 11 8 0 20 -19 21 -26 2z"/>
<path d="M943 1715 c0 -8 4 -15 9 -15 4 0 8 4 8 9 0 6 -4 12 -8 15 -5 3 -9 -1
-9 -9z"/>
<path d="M1114 1712 c2 -9 10 -16 20 -18 13 -2 14 1 7 10 -6 7 -9 15 -6 18 3
2 -1 5 -9 5 -7 0 -13 -7 -12 -15z"/>
<path d="M3685 1710 c3 -5 8 -10 11 -10 2 0 4 5 4 10 0 6 -5 10 -11 10 -5 0
-7 -4 -4 -10z"/>
<path d="M4235 1712 c-6 -4 -11 -14 -13 -22 -3 -12 0 -12 14 2 18 18 17 33 -1
20z"/>
<path d="M1060 1706 c0 -2 9 -6 20 -9 11 -3 18 -1 14 4 -5 9 -34 13 -34 5z"/>
<path d="M1646 1692 c-2 -4 0 -14 6 -22 8 -12 9 -12 5 2 -3 9 -1 19 6 22 9 3
9 5 0 5 -6 1 -14 -3 -17 -7z"/>
<path d="M670 1679 c0 -5 5 -7 10 -4 6 3 10 8 10 11 0 2 -4 4 -10 4 -5 0 -10
-5 -10 -11z"/>
<path d="M1670 1667 c0 -10 8 -17 18 -17 9 0 13 4 7 8 -5 4 -13 11 -17 16 -5
5 -8 2 -8 -7z"/>
<path d="M3670 1660 c-8 -5 -12 -11 -9 -14 2 -3 11 -1 19 4 8 5 12 11 9 14 -2
3 -11 1 -19 -4z"/>
<path d="M1647 1639 c7 -7 15 -10 18 -7 3 3 -2 9 -12 12 -14 6 -15 5 -6 -5z"/>
<path d="M3595 1631 c-3 -5 0 -13 6 -17 7 -4 9 -3 5 4 -3 5 0 13 6 15 9 4 10
6 1 6 -6 1 -14 -3 -18 -8z"/>
<path d="M4305 1629 c-4 -6 -5 -12 -2 -15 2 -3 7 2 10 11 7 17 1 20 -8 4z"/>
<path d="M694 1603 c0 -17 6 -31 11 -30 6 1 9 -4 8 -10 -3 -15 13 -17 21 -4 3
5 -1 12 -10 15 -8 3 -12 10 -9 16 3 5 2 10 -4 10 -5 0 -12 8 -14 18 -2 9 -4 3
-3 -15z"/>
<path d="M1148 1609 c-11 -6 -15 -16 -11 -26 4 -11 3 -14 -5 -9 -7 4 -12 2
-12 -3 0 -18 20 -12 27 7 4 9 11 20 17 24 17 11 2 17 -16 7z"/>
<path d="M1726 1612 c-3 -4 4 -9 15 -9 23 -2 25 3 4 10 -8 4 -16 3 -19 -1z"/>
<path d="M3617 1606 c-4 -10 -1 -13 8 -9 8 3 12 9 9 14 -7 12 -11 11 -17 -5z"/>
<path d="M3557 1591 c-23 -15 -25 -19 -12 -24 9 -4 18 -1 22 8 4 13 8 13 22 3
14 -11 14 -11 4 3 -7 9 -10 19 -6 22 12 13 -2 7 -30 -12z"/>
<path d="M1777 1579 c7 -7 15 -10 18 -7 3 3 -2 9 -12 12 -14 6 -15 5 -6 -5z"/>
<path d="M1750 1570 c0 -5 5 -10 11 -10 5 0 7 5 4 10 -3 6 -8 10 -11 10 -2 0
-4 -4 -4 -10z"/>
<path d="M4576 1545 c-16 -14 -24 -25 -18 -25 6 0 13 4 17 10 3 5 12 7 19 4
17 -7 32 14 19 27 -5 5 -21 -2 -37 -16z m34 5 c0 -5 -5 -10 -11 -10 -5 0 -7 5
-4 10 3 6 8 10 11 10 2 0 4 -4 4 -10z"/>
<path d="M1285 1550 c3 -5 1 -10 -5 -10 -6 0 -9 -4 -6 -9 3 -4 -6 -13 -19 -19
-14 -7 -25 -16 -25 -21 0 -6 -8 -7 -17 -4 -12 5 -15 2 -10 -10 4 -12 -2 -21
-22 -32 -19 -9 -28 -21 -26 -32 2 -10 4 -22 5 -28 1 -5 6 1 12 15 6 14 11 28
10 32 -1 4 7 9 17 13 11 3 37 25 59 49 23 24 44 41 48 38 5 -4 2 1 -5 11 -14
18 -26 24 -16 7z"/>
<path d="M1805 1551 c6 -11 2 -13 -18 -9 -15 3 -24 1 -21 -3 2 -5 20 -8 39 -7
19 1 34 2 33 2 -2 1 -12 8 -22 16 -16 12 -18 12 -11 1z"/>
<path d="M3521 1557 c2 -1 13 -9 24 -17 19 -14 19 -14 6 3 -7 9 -18 17 -24 17
-6 0 -8 -1 -6 -3z"/>
<path d="M735 1540 c-3 -5 -1 -10 5 -10 6 0 9 -4 6 -9 -3 -5 1 -12 9 -15 12
-4 13 -2 6 13 -6 10 -7 21 -4 25 3 3 1 6 -5 6 -6 0 -14 -4 -17 -10z"/>
<path d="M3507 1539 c7 -7 15 -10 18 -7 3 3 -2 9 -12 12 -14 6 -15 5 -6 -5z"/>
<path d="M3460 1540 c-8 -24 -7 -46 1 -59 8 -13 9 -12 4 5 -4 15 1 24 17 33
13 6 15 9 6 7 -9 -3 -19 0 -22 7 -2 7 -5 10 -6 7z"/>
<path d="M1830 1516 c0 -2 7 -7 16 -10 8 -3 12 -2 9 4 -6 10 -25 14 -25 6z"/>
<path d="M4000 1507 c0 -10 -4 -15 -10 -12 -5 3 -10 1 -10 -4 0 -13 26 -15 34
-3 2 4 1 14 -5 22 -7 12 -9 12 -9 -3z"/>
<path d="M760 1476 c14 -15 25 -31 24 -34 -1 -4 6 -18 14 -31 15 -22 16 -22
29 -5 16 21 17 11 3 -17 -7 -13 -7 -19 0 -19 5 0 10 5 10 11 0 8 6 7 16 -2 15
-12 14 -14 -7 -21 -22 -7 -21 -7 4 -4 21 3 27 0 23 -11 -3 -8 -1 -11 4 -8 14
9 12 19 -8 41 -10 10 -21 27 -24 36 -4 10 -14 15 -26 11 -15 -3 -20 0 -19 12
1 9 -14 29 -33 43 l-35 26 25 -28z"/>
<path d="M1901 1481 c13 -11 26 -17 29 -14 6 6 -30 33 -43 33 -5 0 1 -9 14
-19z"/>
<path d="M3425 1490 c-3 -5 -1 -10 4 -10 6 0 11 5 11 10 0 6 -2 10 -4 10 -3 0
-8 -4 -11 -10z"/>
<path d="M1940 1457 c0 -14 5 -29 10 -32 7 -4 8 3 4 22 -9 38 -14 42 -14 10z"/>
<path d="M3382 1459 c-8 -11 -9 -18 -3 -14 6 3 11 1 11 -4 0 -15 -23 -14 -38
1 -9 9 -12 9 -12 -1 0 -7 -4 -10 -9 -6 -15 8 -25 -15 -12 -28 8 -8 11 -8 11 1
0 7 10 12 23 12 26 0 77 21 77 32 0 4 -6 5 -14 2 -8 -3 -16 1 -18 11 -2 13 -5
12 -16 -6z"/>
<path d="M4016 1453 c-6 -14 -5 -15 5 -6 7 7 10 15 7 18 -3 3 -9 -2 -12 -12z"/>
<path d="M4513 1448 c3 -9 1 -18 -6 -21 -6 -2 -7 -6 -2 -9 6 -3 17 2 25 11 8
9 13 15 11 14 -2 -2 -11 3 -19 10 -13 10 -15 9 -9 -5z"/>
<path d="M4056 1435 c4 -9 13 -14 22 -10 12 4 13 3 3 -9 -10 -12 -8 -17 9 -26
25 -13 50 -7 49 12 0 10 -2 10 -6 1 -6 -16 -29 -17 -39 -1 -4 6 -3 8 4 4 6 -3
13 -2 16 3 5 7 -14 21 -34 25 -3 1 -11 5 -17 9 -9 6 -11 3 -7 -8z"/>
<path d="M1430 1429 c0 -5 5 -7 10 -4 6 3 10 8 10 11 0 2 -4 4 -10 4 -5 0 -10
-5 -10 -11z"/>
<path d="M2010 1424 c0 -8 5 -12 10 -9 6 4 8 11 5 16 -9 14 -15 11 -15 -7z"/>
<path d="M3860 1412 c-13 -14 -12 -15 2 -10 8 4 21 1 27 -5 8 -8 11 -8 11 0 0
22 -24 32 -40 15z"/>
<path d="M1388 1413 c6 -2 18 -2 25 0 6 3 1 5 -13 5 -14 0 -19 -2 -12 -5z"/>
<path d="M1496 1407 c3 -10 9 -15 12 -12 3 3 0 11 -7 18 -10 9 -11 8 -5 -6z"/>
<path d="M1976 1408 c3 -5 10 -6 15 -3 13 9 11 12 -6 12 -8 0 -12 -4 -9 -9z"/>
<path d="M4470 1395 c-10 -12 -9 -15 6 -16 16 0 16 -2 -3 -9 -13 -5 -23 -15
-23 -22 0 -9 3 -9 8 -2 4 6 15 14 26 17 15 6 16 10 6 22 -15 18 0 20 20 3 12
-11 12 -10 1 5 -16 21 -25 21 -41 2z"/>
<path d="M1390 1390 c-9 -6 -10 -10 -3 -10 6 0 15 5 18 10 8 12 4 12 -15 0z"/>
<path d="M2080 1385 c6 -8 8 -20 4 -27 -5 -10 -4 -10 5 -2 13 12 5 44 -11 44
-6 0 -5 -6 2 -15z"/>
<path d="M3213 1392 c-12 -2 -27 -11 -34 -20 -11 -14 -11 -15 1 -4 8 6 25 12
40 11 25 0 25 0 3 -9 -13 -5 -23 -12 -23 -14 0 -5 60 0 65 6 8 9 -33 33 -52
30z"/>
<path d="M3278 1378 c5 -5 16 -8 23 -6 8 3 3 7 -10 11 -17 4 -21 3 -13 -5z"/>
<path d="M3901 1377 c-8 -10 -7 -19 5 -33 14 -18 15 -18 4 4 -10 21 -7 26 13
23 5 -1 6 3 2 9 -8 13 -10 13 -24 -3z"/>
<path d="M1506 1372 c-2 -4 -1 -14 4 -22 7 -11 9 -9 7 8 -1 24 -3 26 -11 14z"/>
<path d="M2115 1370 c4 -7 2 -16 -5 -20 -9 -5 -9 -9 -1 -14 6 -4 11 -2 11 3 0
6 10 11 22 11 18 0 18 15 0 15 -4 0 -13 4 -21 9 -10 7 -12 6 -6 -4z"/>
<path d="M3926 1354 c6 -3 9 -15 7 -28 -3 -13 1 -27 7 -31 9 -5 10 -2 6 13 -4
11 -2 23 5 27 12 8 -7 25 -26 24 -5 0 -5 -3 1 -5z"/>
<path d="M1298 1325 c-6 -13 -15 -22 -19 -19 -5 3 -9 0 -9 -5 0 -16 20 -13 26
4 4 8 10 12 16 9 5 -3 3 -13 -6 -23 -14 -15 -14 -18 -1 -18 8 0 15 6 15 12 0
7 9 24 21 39 11 14 16 26 11 26 -6 0 -13 -7 -16 -16 -3 -8 -11 -12 -17 -8 -8
4 -7 9 2 15 11 7 11 9 1 9 -7 0 -17 -11 -24 -25z"/>
<path d="M2200 1346 c0 -2 7 -6 15 -10 8 -3 15 -1 15 4 0 6 -7 10 -15 10 -8 0
-15 -2 -15 -4z"/>
<path d="M3113 1340 c-13 -5 -23 -17 -23 -27 0 -15 2 -15 15 3 13 17 16 17 26
4 9 -13 10 -13 5 2 -3 12 2 18 17 21 19 4 20 4 2 5 -11 0 -30 -3 -42 -8z"/>
<path d="M4420 1335 c-7 -9 -10 -25 -6 -41 6 -22 4 -25 -13 -19 -11 3 -22 1
-26 -4 -3 -7 0 -8 9 -5 9 3 16 1 16 -5 0 -6 -4 -11 -10 -11 -5 0 -10 -6 -10
-14 0 -8 -12 -19 -27 -24 -21 -8 -23 -11 -9 -11 11 -1 34 15 52 35 27 29 32
41 27 66 -6 28 -4 30 18 23 13 -3 20 -3 14 2 -5 5 -13 12 -16 16 -3 4 -12 1
-19 -8z"/>
<path d="M1480 1330 c0 -5 5 -10 11 -10 5 0 7 5 4 10 -3 6 -8 10 -11 10 -2 0
-4 -4 -4 -10z"/>
<path d="M2140 1336 c0 -2 7 -9 15 -16 13 -11 14 -10 9 4 -5 14 -24 23 -24 12z"/>
<path d="M2283 1314 c-7 -3 -9 -12 -6 -20 8 -21 22 -17 20 6 -1 11 -1 20 -2
19 0 0 -5 -3 -12 -5z"/>
<path d="M3740 1309 c0 -5 5 -7 10 -4 6 3 10 8 10 11 0 2 -4 4 -10 4 -5 0 -10
-5 -10 -11z"/>
<path d="M2340 1296 c0 -9 7 -12 20 -9 11 3 17 9 14 14 -8 14 -34 10 -34 -5z"/>
<path d="M894 1284 c3 -9 6 -18 6 -20 0 -2 8 -4 18 -3 10 0 12 3 5 6 -7 2 -13
11 -13 19 0 8 -5 14 -11 14 -6 0 -8 -7 -5 -16z"/>
<path d="M1604 1279 c-14 -16 -16 -23 -6 -26 6 -3 9 -10 5 -16 -3 -7 3 -4 14
6 13 11 19 26 16 38 -7 24 -6 24 -29 -2z m21 -9 c3 -5 1 -10 -4 -10 -6 0 -11
5 -11 10 0 6 2 10 4 10 3 0 8 -4 11 -10z"/>
<path d="M2935 1290 c-3 -5 -1 -10 4 -10 6 0 11 5 11 10 0 6 -2 10 -4 10 -3 0
-8 -4 -11 -10z"/>
<path d="M2423 1283 c4 -3 -1 -12 -11 -20 -16 -14 -16 -14 1 -9 10 3 25 6 34
6 13 0 13 2 -1 15 -8 8 -18 15 -22 15 -4 0 -4 -3 -1 -7z"/>
<path d="M2900 1280 c0 -5 5 -10 11 -10 5 0 7 5 4 10 -3 6 -8 10 -11 10 -2 0
-4 -4 -4 -10z"/>
<path d="M2980 1286 c0 -2 7 -7 16 -10 8 -3 12 -2 9 4 -6 10 -25 14 -25 6z"/>
<path d="M2365 1270 c-8 -13 5 -13 25 0 13 8 13 10 -2 10 -9 0 -20 -4 -23 -10z"/>
<path d="M2780 1272 c0 -4 9 -13 20 -20 19 -12 20 -11 8 8 -13 20 -28 27 -28
12z"/>
<path d="M3789 1266 c9 -11 9 -15 -1 -18 -8 -3 -6 -7 6 -11 10 -4 15 -3 11 3
-3 6 -1 10 5 10 7 0 5 6 -4 15 -19 19 -32 20 -17 1z"/>
<path d="M4010 1270 c-8 -5 -12 -12 -9 -15 4 -3 12 1 19 10 14 17 11 19 -10 5z"/>
<path d="M2624 1261 c4 -6 1 -11 -8 -11 -20 0 -29 -17 -15 -26 8 -4 9 -3 5 5
-6 8 -1 10 17 6 21 -6 25 -3 23 11 -2 10 -9 20 -16 22 -7 3 -10 0 -6 -7z"/>
<path d="M2701 1267 c2 -1 13 -9 24 -17 19 -14 19 -14 6 3 -7 9 -18 17 -24 17
-6 0 -8 -1 -6 -3z"/>
<path d="M2687 1249 c7 -7 15 -10 18 -7 3 3 -2 9 -12 12 -14 6 -15 5 -6 -5z"/>
<path d="M966 1240 c5 -8 10 -23 11 -33 5 -30 26 -64 31 -49 2 6 8 10 13 6 14
-8 11 6 -5 22 -11 11 -16 11 -19 1 -4 -7 -6 -5 -7 6 -2 9 -3 21 -4 27 0 5 -7
15 -15 22 -12 11 -12 10 -5 -2z"/>
<path d="M1430 1239 c0 -5 5 -7 10 -4 6 3 10 8 10 11 0 2 -4 4 -10 4 -5 0 -10
-5 -10 -11z"/>
<path d="M2750 1246 c0 -2 9 -6 20 -9 11 -3 18 -1 14 4 -5 9 -34 13 -34 5z"/>
<path d="M4344 1235 c-10 -8 -14 -15 -8 -15 6 0 17 7 24 15 16 19 9 19 -16 0z"/>
<path d="M1565 1229 c-4 -6 -5 -12 -2 -15 2 -3 7 2 10 11 7 17 1 20 -8 4z"/>
<path d="M3824 1231 c4 -5 0 -12 -6 -14 -8 -3 -6 -6 5 -6 9 -1 17 6 17 14 0 8
-5 15 -11 15 -5 0 -8 -4 -5 -9z"/>
<path d="M940 1220 c0 -5 5 -10 11 -10 5 0 7 5 4 10 -3 6 -8 10 -11 10 -2 0
-4 -4 -4 -10z"/>
<path d="M1345 1220 c-16 -7 -17 -9 -3 -9 9 -1 20 4 23 9 7 11 7 11 -20 0z"/>
<path d="M1380 1210 c0 -5 5 -10 10 -10 6 0 10 5 10 10 0 6 -4 10 -10 10 -5 0
-10 -4 -10 -10z"/>
<path d="M3650 1207 c0 -12 37 -58 47 -58 4 0 7 -6 7 -14 -1 -8 4 -11 12 -8
10 3 12 0 8 -10 -4 -12 0 -14 18 -10 18 4 20 3 8 -6 -13 -10 -13 -11 0 -12 8
-1 21 -1 28 0 6 1 12 -3 12 -9 0 -6 -4 -8 -10 -5 -5 3 -10 1 -10 -6 0 -8 -4
-8 -13 -1 -10 9 -13 6 -13 -12 l0 -22 33 20 c37 24 40 32 16 40 -10 3 -36 24
-58 46 -22 21 -44 39 -49 40 -5 0 -15 8 -22 18 -7 9 -14 13 -14 9z"/>
<path d="M1550 1190 c-9 -6 -10 -10 -3 -10 6 0 15 5 18 10 8 12 4 12 -15 0z"/>
<path d="M4318 1183 c6 -2 9 -10 6 -15 -4 -7 -2 -8 5 -4 13 9 5 26 -12 25 -9
0 -8 -2 1 -6z"/>
<path d="M1803 1148 c-1 -20 2 -27 6 -17 3 9 14 15 23 13 10 -1 21 3 25 8 3 6
1 8 -5 4 -6 -3 -17 1 -25 9 -22 21 -24 19 -24 -17z"/>
<path d="M3490 1150 c0 -5 4 -10 9 -10 6 0 13 5 16 10 3 6 -1 10 -9 10 -9 0
-16 -4 -16 -10z"/>
<path d="M4292 1143 c-17 -30 -15 -37 4 -19 8 9 14 22 11 29 -2 7 -8 4 -15
-10z"/>
<path d="M1033 1131 c-1 -11 6 -26 15 -33 13 -11 14 -11 7 2 -5 8 -8 23 -7 33
2 9 -1 17 -5 17 -5 0 -9 -9 -10 -19z"/>
<path d="M1497 1133 c-8 -14 7 -43 20 -35 8 5 8 12 -2 25 -7 10 -15 15 -18 10z"/>
<path d="M1075 1105 c18 -34 62 -61 62 -39 0 7 -4 11 -8 8 -4 -2 -12 4 -18 13
-6 10 -11 14 -11 9 0 -4 -9 2 -21 15 l-20 24 16 -30z"/>
<path d="M4230 1115 c-9 -11 -9 -15 -1 -15 7 0 10 -4 6 -10 -3 -5 -13 -6 -23
-3 -18 7 -17 5 11 -17 16 -11 18 -11 15 1 -2 8 3 13 10 12 6 -2 12 2 12 7 0 6
-5 10 -11 10 -6 0 -9 7 -5 15 3 8 4 15 2 15 -2 0 -9 -7 -16 -15z"/>
<path d="M1816 1103 c-6 -14 -5 -15 5 -6 7 7 10 15 7 18 -3 3 -9 -2 -12 -12z"/>
<path d="M1785 1100 c-3 -5 -1 -10 4 -10 6 0 11 5 11 10 0 6 -2 10 -4 10 -3 0
-8 -4 -11 -10z"/>
<path d="M3520 1100 c-13 -8 -13 -10 2 -10 9 0 20 5 23 10 8 13 -5 13 -25 0z"/>
<path d="M1955 1080 c-19 -8 -19 -9 3 -9 12 -1 22 4 22 9 0 6 -1 10 -2 9 -2 0
-12 -4 -23 -9z"/>
<path d="M1787 1062 c-14 -15 -14 -19 -3 -19 8 0 17 9 19 19 3 10 4 18 3 18
-2 0 -10 -8 -19 -18z"/>
<path d="M3250 1065 c-9 -11 -10 -19 -3 -26 7 -7 14 -5 23 6 9 11 10 19 3 26
-7 7 -14 5 -23 -6z m11 -18 c-10 -9 -11 -8 -5 6 3 10 9 15 12 12 3 -3 0 -11
-7 -18z"/>
<path d="M3350 1070 c0 -6 7 -13 15 -16 8 -4 13 -9 11 -13 -2 -3 2 -15 10 -26
8 -10 14 -14 14 -9 0 6 -6 16 -12 23 -11 11 -10 13 5 8 24 -9 21 -4 -13 21
-16 13 -30 18 -30 12z"/>
<path d="M4196 1054 c-9 -24 -7 -28 9 -14 17 14 20 30 6 30 -5 0 -12 -7 -15
-16z"/>
<path d="M1118 1032 c19 -21 29 -26 38 -18 7 6 8 13 3 14 -5 2 -6 9 -2 15 4 8
1 8 -9 -1 -12 -10 -18 -9 -28 3 -7 8 -16 15 -20 15 -4 0 4 -13 18 -28z"/>
<path d="M4160 1036 c0 -2 8 -10 18 -17 15 -13 16 -12 3 4 -13 16 -21 21 -21
13z"/>
<path d="M3258 1013 c-11 -14 -11 -16 1 -9 18 11 33 -14 19 -32 -9 -10 -7 -17
5 -28 9 -8 13 -9 8 -3 -6 7 -5 20 1 35 8 18 7 26 -5 38 -13 14 -16 14 -29 -1z"/>
<path d="M3598 998 c3 -14 2 -19 -6 -14 -15 9 -16 -6 -1 -21 17 -17 39 -4 39
21 -1 20 -1 20 -15 -4 l-15 -25 6 33 c4 19 2 32 -4 32 -5 0 -8 -10 -4 -22z"/>
<path d="M1922 990 c0 -14 2 -19 5 -12 2 6 2 18 0 25 -3 6 -5 1 -5 -13z"/>
<path d="M3162 985 c0 -16 2 -22 5 -12 2 9 2 23 0 30 -3 6 -5 -1 -5 -18z"/>
<path d="M3416 991 c4 -17 3 -21 -6 -16 -9 6 -11 4 -5 -4 5 -9 11 -9 17 -3 7
7 6 16 -1 29 -11 16 -11 15 -5 -6z"/>
<path d="M4130 998 c0 -5 -4 -7 -9 -3 -5 3 -13 0 -17 -6 -4 -8 -3 -9 4 -5 7 4
12 0 12 -10 0 -16 2 -15 20 4 24 25 25 29 5 29 -8 0 -15 -4 -15 -9z"/>
<path d="M2325 970 c3 -5 0 -18 -6 -29 -10 -15 -9 -22 4 -36 9 -9 17 -12 17
-6 0 5 -4 13 -10 16 -6 4 -4 15 5 29 14 21 14 24 0 30 -9 3 -13 2 -10 -4z"/>
<path d="M1900 949 c0 -11 4 -18 10 -14 5 3 7 12 3 20 -7 21 -13 19 -13 -6z"/>
<path d="M3010 963 c0 -15 28 -43 43 -43 7 0 4 5 -5 11 -10 5 -22 17 -27 27
-6 9 -11 12 -11 5z"/>
<path d="M4076 957 c5 -12 2 -16 -9 -12 -8 4 -17 -1 -20 -9 -4 -9 -2 -16 3
-16 6 0 10 6 11 13 0 6 4 3 9 -8 7 -17 9 -17 9 -2 1 9 6 16 12 15 6 -2 13 3
15 10 1 7 0 8 -3 2 -3 -7 -10 -4 -19 7 -13 17 -14 17 -8 0z"/>
<path d="M2633 948 c-14 -18 -23 -57 -14 -62 4 -3 8 7 9 21 1 14 7 32 13 39 6
8 9 14 6 14 -2 0 -9 -6 -14 -12z"/>
<path d="M2882 945 c-7 -8 -9 -15 -4 -15 14 0 7 -41 -9 -51 -11 -7 -11 -9 3
-9 12 0 16 -5 11 -17 -3 -10 -2 -14 3 -10 6 6 16 119 10 117 0 -1 -7 -7 -14
-15z"/>
<path d="M1247 939 c7 -7 15 -10 18 -7 3 3 -2 9 -12 12 -14 6 -15 5 -6 -5z"/>
<path d="M2590 925 c0 -8 4 -15 10 -15 5 0 7 7 4 15 -4 8 -8 15 -10 15 -2 0
-4 -7 -4 -15z"/>
<path d="M3408 933 c7 -3 16 -2 19 1 4 3 -2 6 -13 5 -11 0 -14 -3 -6 -6z"/>
<path d="M1277 923 c-3 -4 5 -20 16 -34 17 -21 26 -25 42 -18 19 9 19 9 -2 5
-17 -3 -23 1 -25 22 -3 25 -22 40 -31 25z"/>
<path d="M3186 917 c3 -10 9 -15 12 -12 3 3 0 11 -7 18 -10 9 -11 8 -5 -6z"/>
<path d="M3295 920 c-16 -7 -17 -9 -3 -9 9 -1 20 4 23 9 7 11 7 11 -20 0z"/>
<path d="M2736 912 c-9 -14 10 -33 27 -26 21 8 22 20 1 28 -20 8 -22 8 -28 -2z"/>
<path d="M3428 908 c9 -9 9 -15 -1 -27 -11 -14 -10 -14 6 -2 13 10 15 17 6 27
-6 8 -14 14 -17 14 -3 0 -1 -5 6 -12z"/>
<path d="M4020 905 c6 -8 8 -20 4 -27 -4 -7 2 -4 14 6 22 19 30 32 13 21 -5
-3 -12 -1 -16 5 -3 5 -11 10 -17 10 -7 0 -6 -5 2 -15z"/>
<path d="M3052 890 c-7 -11 -12 -25 -12 -32 0 -7 7 0 15 16 18 33 15 45 -3 16z"/>
<path d="M3995 890 c6 -9 -8 -14 -27 -11 -5 0 -8 -6 -8 -14 0 -14 3 -13 25 1
26 17 33 34 14 34 -5 0 -7 -4 -4 -10z"/>
<path d="M2760 871 c0 -19 12 -41 20 -36 10 6 1 45 -11 45 -5 0 -9 -4 -9 -9z"/>
<path d="M2599 868 c-1 -2 -2 -31 -3 -65 -2 -51 0 -58 10 -45 7 10 9 18 5 20
-5 2 -6 23 -3 47 2 25 2 45 -2 45 -3 0 -7 -1 -7 -2z"/>
<path d="M2743 819 c1 -26 5 -45 10 -42 10 6 9 55 -3 73 -7 11 -9 1 -7 -31z"/>
<path d="M3937 853 c-4 -3 -7 -11 -7 -17 0 -6 5 -5 12 2 6 6 9 14 7 17 -3 3
-9 2 -12 -2z"/>
<path d="M1370 835 c0 -8 4 -15 10 -15 5 0 7 7 4 15 -4 8 -8 15 -10 15 -2 0
-4 -7 -4 -15z"/>
<path d="M2325 820 c-18 -20 -18 -21 1 -15 19 7 19 6 0 -9 -11 -9 -15 -16 -9
-16 14 0 27 19 28 42 2 22 2 22 -20 -2z"/>
<path d="M3215 830 c3 -5 8 -10 11 -10 2 0 4 5 4 10 0 6 -5 10 -11 10 -5 0 -7
-4 -4 -10z"/>
<path d="M3895 830 c-3 -5 -1 -10 4 -10 6 0 11 5 11 10 0 6 -2 10 -4 10 -3 0
-8 -4 -11 -10z"/>
<path d="M2181 804 c0 -11 3 -14 6 -6 3 7 2 16 -1 19 -3 4 -6 -2 -5 -13z"/>
<path d="M2881 804 c0 -11 3 -14 6 -6 3 7 2 16 -1 19 -3 4 -6 -2 -5 -13z"/>
<path d="M1456 788 c3 -4 9 -8 15 -8 5 0 9 4 9 8 0 5 -7 9 -15 9 -8 0 -12 -4
-9 -9z"/>
<path d="M2912 774 c-11 -12 -10 -15 3 -20 9 -4 19 -4 22 0 4 3 1 6 -5 6 -6 0
-9 7 -6 15 8 19 3 19 -14 -1z"/>
<path d="M1500 765 c-7 -9 -8 -15 -2 -15 5 0 12 7 16 15 3 8 4 15 2 15 -2 0
-9 -7 -16 -15z"/>
<path d="M1525 760 c-3 -5 1 -10 10 -10 9 0 13 5 10 10 -3 6 -8 10 -10 10 -2
0 -7 -4 -10 -10z"/>
<path d="M2318 752 c-4 -13 0 -18 13 -17 24 2 37 15 15 15 -9 0 -14 5 -11 10
3 6 2 10 -3 10 -5 0 -12 -8 -14 -18z"/>
<path d="M1490 736 c0 -2 7 -7 16 -10 8 -3 12 -2 9 4 -6 10 -25 14 -25 6z"/>
<path d="M1575 729 c-4 -6 -5 -12 -2 -15 2 -3 7 2 10 11 7 17 1 20 -8 4z"/>
<path d="M2622 731 c-11 -6 -10 -10 4 -15 9 -3 19 -4 22 -1 3 3 0 5 -7 5 -7 0
-9 5 -6 10 7 12 4 12 -13 1z"/>
<path d="M3626 664 c-9 -24 -7 -27 9 -10 17 17 19 26 6 26 -5 0 -12 -7 -15
-16z"/>
<path d="M1810 600 c-14 -11 -20 -20 -14 -20 6 0 19 9 29 20 23 25 17 25 -15
0z"/>
<path d="M1853 586 c14 -10 15 -15 5 -19 -9 -4 -7 -6 4 -6 29 -2 29 15 0 28
-24 10 -25 10 -9 -3z"/>
<path d="M3376 563 c-6 -14 -5 -15 5 -6 7 7 10 15 7 18 -3 3 -9 -2 -12 -12z"/>
<path d="M3485 570 c-3 -5 -2 -10 4 -10 5 0 13 5 16 10 3 6 2 10 -4 10 -5 0
-13 -4 -16 -10z"/>
<path d="M1960 560 c0 -5 5 -10 11 -10 5 0 7 5 4 10 -3 6 -8 10 -11 10 -2 0
-4 -4 -4 -10z"/>
<path d="M3370 530 c-13 -8 -12 -10 3 -10 9 0 17 5 17 10 0 12 -1 12 -20 0z"/>
<path d="M2015 520 c3 -5 8 -10 11 -10 2 0 4 5 4 10 0 6 -5 10 -11 10 -5 0 -7
-4 -4 -10z"/>
<path d="M3166 511 c-17 -6 -17 -8 -4 -14 10 -3 19 0 22 9 3 8 4 14 3 13 -1 0
-11 -4 -21 -8z"/>
<path d="M2160 500 c0 -5 5 -10 11 -10 5 0 7 5 4 10 -3 6 -8 10 -11 10 -2 0
-4 -4 -4 -10z"/>
<path d="M2250 481 c0 -6 5 -13 10 -16 6 -3 10 1 10 9 0 9 -4 16 -10 16 -5 0
-10 -4 -10 -9z"/>
<path d="M3120 481 c0 -5 5 -13 10 -16 6 -3 10 -2 10 4 0 5 -4 13 -10 16 -5 3
-10 2 -10 -4z"/>
<path d="M2327 465 c3 -8 9 -12 14 -9 12 7 11 11 -5 17 -10 4 -13 1 -9 -8z"/>
<path d="M2289 453 c-13 -16 -12 -17 4 -4 16 13 21 21 13 21 -2 0 -10 -8 -17
-17z"/>
<path d="M2940 450 c6 -11 15 -18 21 -15 5 4 3 12 -5 21 -21 20 -28 17 -16 -6z"/>
<path d="M2976 455 c4 -8 11 -15 16 -15 6 0 5 6 -2 15 -7 8 -14 15 -16 15 -2
0 -1 -7 2 -15z"/>
<path d="M2348 447 c-14 -11 -10 -13 25 -13 23 -1 31 1 18 3 -19 4 -21 7 -10
14 12 7 12 9 -1 9 -8 -1 -22 -6 -32 -13z"/>
<path d="M2421 444 c0 -11 3 -14 6 -6 3 7 2 16 -1 19 -3 4 -6 -2 -5 -13z"/>
<path d="M2440 449 c0 -5 5 -7 10 -4 6 3 10 8 10 11 0 2 -4 4 -10 4 -5 0 -10
-5 -10 -11z"/>
<path d="M2817 449 c-9 -6 -22 -7 -27 -4 -6 3 -10 2 -10 -3 0 -6 -8 -8 -19 -5
-10 3 -22 0 -25 -5 -4 -6 3 -8 16 -5 19 4 20 3 8 -7 -12 -9 -11 -10 7 -5 12 3
43 8 69 10 46 4 75 15 38 15 -11 0 -24 4 -29 9 -6 6 -17 6 -28 0z m26 -16 c-7
-2 -19 -2 -25 0 -7 3 -2 5 12 5 14 0 19 -2 13 -5z"/>
<path d="M2690 425 c-7 -8 -8 -15 -2 -15 5 0 15 7 22 15 7 8 8 15 2 15 -5 0
-15 -7 -22 -15z"/>
<path d="M2560 420 c-8 -5 -10 -10 -5 -10 6 0 17 5 25 10 8 5 11 10 5 10 -5 0
-17 -5 -25 -10z"/>
</g>
</svg>
