<?xml version="1.0" standalone="no"?>
<!DOCTYPE svg PUBLIC "-//W3C//DTD SVG 20010904//EN"
 "http://www.w3.org/TR/2001/REC-SVG-20010904/DTD/svg10.dtd">
<svg version="1.0" xmlns="http://www.w3.org/2000/svg"
 width="330.000000pt" height="330.000000pt" viewBox="0 0 330.000000 330.000000"
 preserveAspectRatio="xMidYMid meet">
<metadata>
Created by potrace 1.16, written by Peter Selinger 2001-2019
</metadata>
<g transform="translate(0.000000,330.000000) scale(0.100000,-0.100000)"
fill="#000000" stroke="none">
<path d="M0 1650 l0 -1650 1650 0 1650 0 0 1650 0 1650 -1650 0 -1650 0 0
-1650z m1772 629 l3 -281 115 197 c63 109 114 202 112 206 -1 5 3 9 9 9 6 0 9
9 6 19 -3 13 6 30 29 52 19 18 35 31 37 28 2 -2 0 -23 -5 -47 -7 -30 -16 -46
-31 -52 -12 -5 -19 -9 -15 -9 4 -1 -3 -16 -15 -34 -12 -18 -74 -121 -137 -230
l-115 -198 -29 33 c-38 43 -28 26 67 -115 93 -141 94 -152 13 -190 -29 -14
-62 -37 -73 -51 -16 -19 -23 -22 -32 -13 -10 9 -11 8 -6 -4 5 -12 -2 -18 -25
-22 -17 -4 -51 -26 -78 -52 -73 -72 -77 -69 -178 113 -98 178 -92 168 -101
159 -3 -4 1 -15 9 -24 8 -10 27 -40 42 -66 20 -36 25 -52 17 -60 -11 -11 -16
2 -12 26 1 5 -2 6 -7 3 -5 -3 -21 21 -36 52 -25 52 -27 67 -24 142 l3 85 -140
143 c-78 78 -139 145 -136 147 2 3 -5 5 -17 5 -15 0 -28 12 -42 41 -12 23 -19
43 -16 46 9 9 76 -38 76 -54 0 -9 40 -57 88 -107 49 -50 107 -111 130 -136 38
-41 42 -43 42 -21 0 21 2 22 17 10 16 -13 -84 121 -204 273 -36 46 -49 69 -41
74 6 4 13 3 15 -3 2 -6 61 -84 130 -174 70 -90 155 -201 190 -247 l63 -83 0
49 c0 43 -12 68 -122 257 -66 116 -125 212 -130 213 -12 5 1 22 16 22 7 0 13
-6 13 -12 0 -7 49 -96 109 -198 l109 -185 3 273 2 272 150 0 150 0 2 -281z
m413 90 c4 -6 0 -16 -8 -22 -15 -13 -79 -94 -206 -262 -45 -60 -69 -95 -53
-76 29 32 30 32 34 11 2 -19 22 -3 125 107 66 72 125 127 130 123 4 -5 -78
-98 -184 -206 -106 -109 -195 -195 -199 -191 -4 4 5 20 19 35 15 16 27 35 27
43 0 8 3 19 8 25 4 5 -8 -6 -25 -26 -18 -19 -33 -38 -33 -42 0 -5 -5 -8 -11
-8 -20 0 -2 27 171 251 94 121 174 227 177 235 6 17 19 18 28 3z m-1125 -674
l0 -156 -72 3 -73 3 -3 140 c-1 76 0 145 2 152 4 9 27 13 76 13 l70 0 0 -155z
m1270 5 l0 -150 -70 0 -70 0 0 150 0 150 70 0 70 0 0 -150z m-961 -64 c50 -91
51 -96 51 -176 l0 -83 46 6 45 5 -7 -32 c-8 -41 -19 -53 -60 -68 -19 -6 -34
-18 -34 -24 0 -16 39 -44 62 -44 12 0 16 -5 11 -17 -9 -28 -34 -43 -69 -43
-49 0 -82 33 -101 100 -14 53 -23 64 -86 116 -38 32 -87 78 -108 103 -37 42
-39 47 -39 113 l0 70 113 -106 112 -105 3 139 c1 77 4 140 7 140 2 0 26 -42
54 -94z m571 -75 l5 -113 113 107 112 107 0 -73 0 -72 -67 -67 c-38 -36 -87
-82 -111 -102 -34 -28 -45 -46 -56 -89 -17 -65 -52 -99 -102 -99 -36 0 -73 15
-86 34 -4 6 -7 -11 -7 -39 0 -33 3 -44 8 -31 14 37 21 -11 21 -155 0 -133 -1
-139 -20 -139 -30 0 -96 -36 -114 -62 l-16 -22 -16 22 c-19 28 -85 62 -119 62
l-25 0 0 128 c0 70 4 132 8 139 4 6 19 9 36 6 28 -6 28 -7 23 -55 -5 -41 -3
-52 14 -69 38 -38 109 -7 109 46 0 18 5 20 39 17 21 -2 41 0 44 5 3 5 -7 7
-24 5 -26 -4 -29 -2 -29 24 0 16 -5 114 -11 217 -10 172 -10 190 5 205 26 26
31 8 46 -151 7 -78 15 -137 17 -130 3 8 15 10 34 6 21 -4 35 0 49 12 25 23 26
45 1 45 -25 0 -38 17 -46 63 -7 36 -7 37 24 37 l31 0 0 110 0 109 52 36 c29
19 49 35 45 35 -5 0 -95 -55 -200 -123 -106 -68 -197 -126 -204 -130 -15 -9
-139 211 -126 224 11 11 83 -120 76 -139 -3 -7 1 -11 8 -10 7 2 14 -7 15 -18
1 -25 12 -44 24 -44 4 0 95 56 202 125 106 69 198 123 203 122 6 -2 12 -54 15
-116z"/>
</g>
</svg>
