<?xml version="1.0" standalone="no"?>
<!DOCTYPE svg PUBLIC "-//W3C//DTD SVG 20010904//EN"
 "http://www.w3.org/TR/2001/REC-SVG-20010904/DTD/svg10.dtd">
<svg version="1.0" xmlns="http://www.w3.org/2000/svg"
 width="532.000000pt" height="532.000000pt" viewBox="0 0 532.000000 532.000000"
 preserveAspectRatio="xMidYMid meet">
<metadata>
Created by potrace 1.16, written by Peter Selinger 2001-2019
</metadata>
<g transform="translate(0.000000,532.000000) scale(0.100000,-0.100000)"
fill="#000000" stroke="none">
<path d="M0 2660 l0 -2660 2660 0 2660 0 0 2660 0 2660 -2660 0 -2660 0 0
-2660z m2840 2235 c14 -2 41 -3 60 -4 24 -1 39 -8 48 -22 11 -17 11 -20 0 -13
-7 4 -41 7 -76 6 -35 -2 -61 1 -58 6 3 5 -5 8 -17 6 -12 -2 -95 -5 -184 -7
-132 -3 -163 -1 -167 10 -8 20 15 25 99 21 41 -2 75 0 75 5 0 6 127 2 220 -8z
m135 -15 c3 -5 20 -9 38 -8 33 1 81 -14 89 -29 3 -4 3 -2 1 5 -2 9 3 11 17 7
11 -4 30 -7 43 -9 13 -1 28 -6 35 -10 7 -4 17 -4 22 -1 6 3 10 2 10 -4 0 -5 9
-8 19 -6 11 2 25 -3 31 -10 6 -8 19 -11 27 -8 12 5 14 3 8 -6 -5 -10 -2 -11
14 -6 13 4 21 2 21 -5 0 -6 6 -10 13 -9 6 1 19 0 27 -4 8 -3 36 -13 63 -23 26
-9 47 -20 47 -25 0 -5 7 -6 16 -2 11 4 15 2 12 -7 -6 -20 -24 -23 -41 -6 -8 8
-17 13 -20 10 -9 -9 -77 16 -77 28 0 6 -7 7 -16 4 -9 -4 -22 -2 -28 3 -6 5
-23 12 -36 14 -55 10 -90 20 -90 26 0 4 -8 7 -17 8 -67 5 -117 13 -122 20 -3
4 -14 8 -23 9 -51 2 -59 5 -52 16 5 8 2 9 -10 5 -16 -6 -46 12 -46 27 0 10 18
7 25 -4z m1150 -547 c-5 -15 -4 -16 6 -5 14 13 30 16 27 5 -1 -5 17 -27 41
-50 23 -23 40 -46 37 -51 -3 -6 2 -8 14 -5 14 4 20 0 20 -13 0 -9 3 -15 6 -11
3 3 18 -6 33 -21 46 -45 101 -119 94 -126 -4 -3 0 -6 8 -6 15 -1 99 -110 99
-129 0 -6 5 -11 10 -11 6 0 10 -5 10 -11 0 -6 7 -17 15 -25 8 -8 12 -21 8 -29
-3 -10 -1 -13 9 -10 9 4 19 -4 27 -22 7 -15 9 -25 5 -21 -4 4 -14 2 -22 -5
-13 -10 -14 -9 -2 12 10 20 10 23 -1 19 -15 -5 -51 26 -42 36 3 3 -2 8 -11 12
-13 5 -14 9 -5 20 9 11 9 13 -2 10 -8 -3 -30 15 -53 45 -32 41 -36 53 -25 61
10 6 6 7 -11 2 -23 -6 -24 -6 -10 11 8 11 10 16 4 12 -14 -8 -58 38 -49 53 3
6 3 9 -2 8 -20 -5 -50 16 -78 55 -16 23 -28 45 -27 49 1 4 -12 15 -28 25 -17
9 -30 23 -30 30 0 7 -4 13 -10 13 -5 0 -25 14 -45 31 -34 30 -46 59 -24 59 6
0 8 -7 4 -17z m-1354 -249 c5 -3 43 -7 86 -9 43 -2 79 -8 81 -14 2 -5 10 -7
17 -5 8 3 31 0 52 -7 38 -14 46 -16 73 -18 26 -2 41 -17 34 -34 -3 -9 -10 -17
-16 -17 -5 0 -7 4 -4 8 2 4 -11 6 -30 4 -24 -3 -41 1 -54 13 -11 10 -20 13
-20 7 0 -14 -33 -8 -38 7 -3 9 -8 9 -20 -1 -9 -8 -13 -8 -9 -2 4 8 -2 12 -16
13 -39 1 -97 13 -97 20 0 4 -55 5 -121 3 -95 -3 -123 -1 -130 9 -6 10 -9 11
-9 2 0 -7 -7 -13 -16 -13 -8 0 -12 -5 -9 -10 4 -6 -16 -10 -52 -11 -90 -1
-112 -3 -105 -13 3 -5 -5 -7 -16 -4 -12 4 -25 2 -28 -3 -3 -5 -10 -9 -15 -9
-6 0 -8 4 -5 9 4 5 -4 7 -16 3 -16 -4 -19 -2 -13 8 5 9 4 11 -4 6 -9 -6 -9
-11 1 -24 11 -14 10 -15 -5 -9 -11 4 -28 1 -40 -8 -15 -11 -24 -12 -34 -3 -23
19 -14 26 65 51 88 28 145 39 219 41 29 1 55 5 58 8 8 7 224 10 236 2z m-637
-96 c-5 -9 -2 -8 10 1 15 12 19 12 33 -2 15 -15 14 -17 -12 -27 -22 -8 -30 -8
-37 2 -6 10 -8 9 -8 -4 0 -12 -5 -16 -17 -11 -10 3 -15 2 -10 -2 7 -8 -78 -65
-98 -65 -5 0 -3 5 5 10 8 5 11 10 5 10 -5 0 -21 -12 -34 -25 -12 -14 -37 -29
-55 -33 -17 -5 -31 -14 -31 -22 0 -8 -15 -23 -33 -33 -29 -17 -36 -18 -44 -6
-8 11 -9 10 -4 -3 3 -11 -2 -22 -15 -28 -11 -6 -17 -15 -14 -21 4 -5 -3 -9
-14 -9 -12 0 -21 -6 -21 -13 0 -8 -11 -20 -25 -27 -13 -7 -22 -17 -19 -22 3
-4 -5 -8 -17 -8 -18 0 -19 2 -9 15 7 8 8 15 4 15 -5 0 -15 -9 -22 -21 -8 -12
-9 -18 -3 -14 6 3 11 -1 11 -10 0 -11 -5 -15 -14 -12 -7 3 -13 0 -12 -7 1 -15
-60 -86 -74 -86 -6 0 -8 -5 -5 -10 4 -6 -10 -33 -30 -61 -32 -43 -40 -48 -54
-37 -13 10 -14 10 -3 -2 17 -19 15 -30 -5 -31 -11 0 -13 -3 -6 -6 9 -3 -4 -37
-41 -106 -49 -94 -72 -151 -68 -169 1 -5 -3 -8 -8 -8 -6 0 -10 -6 -9 -12 1 -7
-2 -28 -6 -46 -6 -25 -12 -32 -24 -27 -13 5 -14 4 -3 -7 10 -10 8 -15 -10 -26
l-23 -13 23 6 c12 4 22 3 22 -2 0 -5 -11 -10 -25 -11 -19 -1 -25 3 -25 19 0
11 4 18 9 15 5 -3 9 6 9 20 0 14 4 35 10 47 6 12 13 34 16 49 3 15 13 33 21
41 8 8 11 17 8 21 -4 3 1 6 10 6 9 0 19 5 23 12 5 7 0 9 -14 6 -18 -5 -20 -3
-11 19 16 43 30 64 39 58 4 -3 6 3 3 13 -2 10 7 34 21 54 13 20 22 39 19 42
-3 3 2 8 11 12 9 3 16 12 16 19 0 8 8 21 18 31 9 10 17 21 17 25 0 13 67 90
73 84 7 -7 32 15 32 28 0 6 -7 2 -15 -9 -8 -10 -15 -15 -15 -11 0 12 103 127
113 127 5 0 18 11 29 25 11 14 24 23 29 19 5 -3 8 0 7 8 -2 7 5 12 14 12 10
-1 16 2 13 6 -7 11 27 38 63 51 19 7 29 16 26 24 -4 10 1 12 17 8 15 -4 20 -3
15 5 -4 7 0 15 11 19 10 3 26 13 36 21 9 8 20 13 23 9 3 -3 15 3 27 13 11 11
24 17 28 14 4 -2 11 1 14 6 4 6 17 16 28 21 12 5 36 18 52 28 37 24 38 24 29
9z m-1274 -40 c-1 -18 -29 -53 -43 -53 -7 -1 -11 -7 -9 -14 2 -8 -3 -21 -11
-30 -7 -9 -22 -33 -32 -55 -11 -21 -28 -41 -37 -43 -21 -6 -32 -34 -17 -43 8
-6 8 -9 0 -14 -12 -8 -51 -88 -51 -106 0 -6 -4 -8 -10 -5 -5 3 -10 1 -10 -5 0
-6 -7 -18 -15 -26 -18 -18 -20 -38 -3 -28 7 5 8 3 2 -7 -4 -8 -9 -18 -10 -24
-1 -5 -10 -28 -20 -50 -10 -22 -17 -43 -16 -47 1 -5 -6 -8 -15 -9 -11 0 -13
-3 -5 -6 6 -2 12 -9 12 -14 0 -6 -4 -8 -9 -5 -5 3 -8 0 -8 -7 3 -28 -15 -107
-25 -107 -5 0 -7 -7 -4 -16 4 -9 1 -23 -5 -30 -6 -7 -12 -30 -13 -51 -5 -67
-6 -71 -22 -69 -9 0 -19 -4 -21 -11 -3 -7 3 -9 16 -6 27 7 27 -11 0 -48 -11
-16 -16 -29 -11 -29 5 0 5 -22 0 -52 -4 -29 -9 -60 -10 -68 -1 -8 -7 -25 -14
-39 -7 -14 -9 -28 -4 -31 4 -3 9 -82 11 -175 1 -94 6 -181 11 -194 6 -16 4
-29 -4 -39 -7 -9 -8 -13 -2 -9 6 3 11 1 11 -6 2 -26 13 -84 22 -113 7 -25 5
-36 -8 -49 -15 -17 -15 -17 2 -12 9 4 18 3 18 -1 5 -25 9 -60 10 -79 1 -13 5
-23 9 -23 4 0 10 -12 12 -27 3 -16 9 -37 13 -47 7 -16 5 -18 -8 -13 -15 6 -16
3 -7 -13 6 -11 15 -20 20 -20 11 0 28 -50 44 -126 1 -7 8 -19 15 -28 7 -8 10
-20 6 -26 -3 -5 -3 -10 2 -10 16 0 41 -58 30 -69 -7 -7 -7 -17 1 -33 11 -22
11 -21 7 7 l-5 30 12 -25 c7 -14 18 -31 26 -39 20 -21 52 -88 45 -95 -4 -3 -1
-6 7 -6 10 0 10 -3 0 -15 -11 -13 -10 -14 2 -10 9 4 18 -1 22 -10 4 -10 2 -14
-6 -9 -7 4 -8 3 -4 -4 4 -7 13 -12 20 -12 15 0 39 -47 31 -61 -3 -5 0 -6 8 -3
17 6 29 -19 21 -41 -8 -20 -24 -19 -24 1 0 8 5 12 10 9 6 -3 10 -2 10 3 0 5
-10 12 -21 15 -14 4 -20 11 -16 21 3 8 2 18 -3 21 -6 4 -10 1 -10 -6 0 -18
-13 -2 -39 44 -12 21 -19 42 -16 48 4 5 0 9 -8 9 -7 0 -19 12 -26 28 -7 15
-25 47 -39 72 -15 25 -27 50 -28 55 -1 6 -9 27 -18 49 -9 21 -15 40 -12 43 3
3 -2 12 -10 20 -8 8 -12 19 -9 24 4 5 1 9 -6 9 -7 0 -9 3 -6 7 4 3 2 12 -4 20
-6 7 -9 13 -5 13 4 0 0 13 -9 30 -9 17 -13 30 -10 30 3 0 -4 18 -15 40 -11 22
-18 40 -15 40 3 0 0 10 -7 23 -15 28 -19 49 -7 41 15 -9 10 13 -6 26 -21 18
-19 35 3 19 9 -7 7 -2 -6 13 -13 14 -23 34 -22 44 1 11 1 21 0 24 -7 20 -12
52 -13 92 -1 27 -5 48 -8 48 -9 0 -13 84 -14 280 0 190 4 240 17 240 4 0 8 5
8 11 0 5 -5 7 -11 3 -8 -5 -9 6 -3 37 4 24 7 53 7 64 -1 39 20 135 29 135 6 0
8 7 4 15 -3 8 -1 15 4 15 5 0 7 6 4 14 -5 14 33 135 46 146 3 3 6 17 6 31 2
29 32 100 48 111 8 5 7 8 -1 8 -7 0 -4 17 10 49 11 28 25 47 30 44 6 -4 8 1 4
11 -4 9 -3 15 2 12 5 -3 12 9 15 27 3 17 21 57 40 88 19 31 37 66 41 78 3 11
13 21 20 21 8 0 17 5 21 12 4 7 3 8 -4 4 -7 -4 -12 -2 -12 3 0 6 5 11 11 11 5
0 7 5 4 10 -3 6 1 10 9 10 8 0 18 5 22 12 4 7 3 8 -4 4 -17 -10 -15 6 3 30 12
15 16 16 23 6 7 -11 10 -10 15 3 4 9 3 13 -3 10 -12 -7 -12 -3 -4 19 7 19 34
22 34 4z m3741 -198 c6 0 7 5 3 12 -4 7 -3 8 4 4 6 -4 9 -13 5 -22 -3 -9 0
-14 8 -12 8 2 14 -5 14 -16 0 -11 6 -21 13 -24 6 -2 12 -10 12 -18 0 -8 4 -14
9 -14 5 0 15 -17 22 -37 6 -21 16 -43 20 -49 5 -6 6 -20 2 -29 -4 -11 -2 -16
3 -12 6 3 16 -4 23 -15 11 -18 11 -20 -1 -15 -9 3 -15 -1 -15 -9 0 -10 7 -12
21 -8 12 4 18 3 14 -1 -4 -4 0 -21 8 -37 14 -27 14 -31 -2 -42 -16 -12 -15
-13 7 -20 24 -6 24 -6 4 -22 -20 -16 -20 -16 3 -9 13 4 22 2 22 -5 0 -6 -4 -8
-10 -5 -5 3 -10 1 -10 -4 0 -6 6 -11 14 -11 17 0 70 -207 83 -320 2 -25 8 -63
13 -85 6 -26 5 -42 -2 -46 -6 -4 -6 -9 -1 -12 6 -4 10 -20 11 -37 0 -21 -3
-28 -11 -23 -9 5 -9 3 -1 -8 6 -8 12 -21 12 -29 0 -8 3 -57 6 -109 3 -51 3
-99 -1 -105 -4 -6 -7 -35 -7 -66 -1 -38 -5 -54 -13 -53 -7 2 -13 -2 -13 -8 0
-6 7 -9 15 -5 12 4 15 -1 12 -27 -2 -18 -7 -39 -11 -46 -5 -7 -10 -34 -12 -59
-4 -50 -8 -57 -24 -47 -11 7 -10 36 5 113 17 97 20 379 5 526 -7 65 -6 93 2
103 9 11 8 13 -2 11 -7 -2 -15 3 -18 11 -3 10 0 11 9 5 11 -6 11 -4 0 10 -8
10 -16 25 -16 34 -1 10 -5 36 -9 60 -6 32 -5 42 6 43 7 0 4 4 -7 9 -11 5 -14
9 -7 9 18 1 15 21 -4 21 -12 0 -15 7 -12 29 2 17 1 28 -3 26 -4 -3 -10 7 -14
23 -3 15 -13 41 -20 57 -7 17 -18 48 -25 70 -13 46 -43 121 -73 183 -11 24
-20 50 -20 58 0 7 -4 14 -8 14 -5 0 -5 7 -2 17 4 11 3 14 -5 9 -7 -4 -12 -2
-12 4 0 7 -11 26 -25 42 -14 17 -22 35 -18 41 5 8 9 6 11 -5 2 -10 8 -18 13
-18z m-503 -1095 c1 -72 -2 -105 -8 -95 -8 13 -10 12 -10 -2 0 -10 5 -18 11
-18 5 0 8 -3 5 -8 -2 -4 -7 -28 -10 -52 -11 -76 -17 -100 -26 -95 -4 3 -11 -2
-14 -11 -3 -8 -2 -12 4 -9 6 3 9 -4 8 -18 -2 -18 -7 -23 -18 -19 -12 5 -13 3
-3 -9 9 -12 10 -25 2 -55 -13 -47 -12 -46 -32 -38 -12 4 -14 11 -7 24 5 9 7
19 5 22 -2 2 2 27 9 56 8 29 11 52 8 52 -4 0 1 5 11 11 9 5 17 15 17 22 0 7
-4 6 -10 -3 -10 -15 -10 -9 6 80 3 19 5 55 5 78 -2 32 1 42 10 36 9 -5 10 -2
4 12 -12 29 -14 108 -3 122 7 8 7 12 0 12 -12 0 -11 31 3 46 19 22 32 -31 33
-141z m-83 -455 c-1 -31 -27 -90 -37 -84 -6 4 -8 -1 -4 -14 5 -15 2 -22 -14
-27 -22 -7 -28 -25 -7 -25 7 0 8 -3 2 -8 -6 -4 -16 -19 -22 -34 -7 -16 -18
-28 -24 -28 -6 0 -9 -6 -6 -14 3 -8 -4 -24 -16 -37 -12 -13 -21 -26 -19 -29 1
-3 -4 -12 -12 -22 -8 -9 -12 -19 -9 -22 4 -3 1 -6 -5 -6 -7 0 -12 -7 -12 -15
0 -8 -9 -20 -20 -27 -11 -7 -20 -18 -20 -24 0 -6 -28 -40 -62 -75 -34 -35 -61
-67 -60 -71 1 -5 -2 -8 -7 -8 -4 0 -20 -11 -35 -25 -26 -24 -54 -26 -40 -3 4
7 2 8 -5 4 -9 -6 -9 -11 0 -22 17 -21 -15 -51 -37 -33 -14 11 -14 13 0 21 9 5
16 15 16 23 0 7 8 16 18 20 24 8 67 48 82 74 7 14 17 20 27 17 11 -5 13 -2 9
9 -4 11 4 21 22 32 16 9 34 29 41 45 7 15 17 28 22 28 6 0 7 -5 3 -12 -4 -7
-3 -8 4 -4 9 5 9 13 1 28 -10 18 -9 20 4 15 11 -4 14 -2 11 7 -3 8 4 20 15 28
12 8 18 18 15 21 -4 4 1 9 10 13 9 3 16 13 16 21 0 21 36 64 45 55 5 -4 5 -1
1 6 -12 21 4 54 22 47 14 -5 15 -4 5 6 -16 16 -17 33 -1 23 8 -5 9 -2 5 9 -7
19 9 23 17 5 3 -7 3 -1 0 13 -6 31 20 99 38 99 9 0 9 3 -2 11 -12 8 -11 10 5
7 11 -2 20 -10 20 -18z m696 -444 c-6 -8 -14 -24 -16 -37 -3 -12 -10 -26 -17
-31 -7 -4 -9 -8 -3 -8 5 0 4 -5 -3 -12 -7 -7 -12 -20 -12 -29 0 -10 -10 -25
-22 -33 -13 -9 -17 -16 -9 -16 11 0 11 -3 1 -15 -7 -8 -16 -13 -20 -10 -5 3
-12 0 -16 -6 -4 -8 -3 -9 4 -5 7 4 12 2 12 -3 0 -6 -4 -11 -10 -11 -5 0 -6 -7
-3 -17 4 -11 3 -14 -5 -9 -8 5 -10 2 -6 -8 4 -11 0 -16 -11 -16 -9 0 -14 -4
-11 -9 3 -4 -3 -16 -14 -26 -11 -10 -17 -21 -15 -25 3 -4 -7 -20 -20 -34 -14
-15 -25 -31 -25 -37 0 -5 -4 -9 -10 -9 -5 0 -10 -5 -10 -11 0 -6 -9 -22 -20
-36 -18 -23 -20 -23 -26 -8 -8 20 9 51 25 48 6 -2 8 4 4 13 -4 10 2 17 16 21
11 3 18 9 15 14 -3 5 0 9 5 9 6 0 10 4 8 9 -3 12 45 91 56 91 4 0 5 5 2 10 -3
6 -1 10 5 10 6 0 8 5 4 12 -5 7 -3 8 6 3 10 -6 12 -4 7 8 -3 9 -1 22 6 30 23
25 97 165 97 183 0 7 8 14 18 16 23 6 27 1 13 -16z m-2868 -238 c-2 -4 3 -5
11 -2 10 4 25 -6 42 -26 15 -17 30 -27 33 -22 4 6 15 3 28 -8 12 -9 19 -21 15
-25 -4 -5 0 -6 9 -2 9 3 22 0 28 -6 6 -6 11 -8 11 -3 0 4 13 -2 29 -13 16 -12
38 -21 50 -21 11 0 26 -9 33 -20 7 -11 24 -20 38 -20 14 0 39 -9 57 -20 18
-10 35 -15 38 -11 5 10 66 -8 76 -22 3 -5 12 -7 20 -6 29 6 99 -13 99 -26 0
-7 6 -16 13 -18 25 -11 -22 -7 -50 4 -15 6 -50 12 -78 14 -38 2 -49 6 -47 18
1 9 -2 18 -8 22 -5 3 -10 0 -10 -8 0 -12 -14 -10 -77 10 -43 13 -85 26 -93 27
-9 2 -14 13 -13 27 2 21 1 22 -7 7 -9 -14 -15 -15 -36 -6 -18 9 -21 14 -12 20
8 6 5 7 -10 3 -16 -5 -36 2 -67 22 -25 15 -45 31 -45 36 0 4 -4 7 -10 7 -5 0
-37 17 -70 39 -53 33 -58 39 -40 44 15 4 19 10 14 19 -4 7 2 4 13 -7 11 -11
19 -23 16 -27z m-922 -217 c35 -39 52 -68 56 -95 2 -11 6 -22 10 -25 3 -3 3 4
0 17 -3 12 -1 22 4 22 5 0 9 -7 9 -15 0 -8 4 -15 10 -15 5 0 9 -6 7 -12 -1 -7
4 -12 11 -11 6 2 12 -1 12 -6 0 -5 17 -26 38 -47 20 -21 31 -34 25 -30 -8 4
-13 2 -13 -4 0 -6 8 -10 18 -8 21 3 82 -50 82 -71 0 -8 3 -12 6 -8 3 3 15 -3
27 -13 12 -10 32 -27 45 -37 12 -10 25 -31 28 -47 l5 -29 -34 34 c-19 19 -53
51 -76 71 -24 20 -40 41 -37 47 4 5 1 13 -5 17 -7 4 -9 3 -5 -4 3 -5 0 -9 -7
-8 -19 3 -97 88 -90 99 3 6 2 7 -4 4 -5 -3 -28 14 -51 39 -23 24 -39 44 -35
44 4 0 -2 9 -13 20 -29 29 -49 54 -46 57 1 2 -1 4 -5 5 -16 3 -44 48 -38 58 4
6 2 9 -3 8 -6 -2 -10 0 -11 5 -4 28 3 28 25 2 14 -16 38 -45 55 -64z m2172 16
c-4 -7 1 -6 10 2 10 8 20 11 24 7 10 -10 -8 -21 -57 -35 -25 -8 -57 -18 -73
-23 -15 -6 -45 -11 -66 -12 -22 0 -37 -5 -34 -10 4 -5 -7 -6 -26 -3 -21 4 -30
3 -26 -3 4 -7 -8 -10 -32 -10 -21 1 -75 -2 -119 -5 -57 -5 -84 -3 -89 4 -5 8
1 10 19 5 22 -5 25 -3 21 15 -3 17 1 21 21 21 14 0 34 -5 45 -10 14 -8 19 -8
17 2 -4 17 43 23 53 6 6 -9 11 -10 17 -2 4 5 30 11 57 13 28 1 54 7 60 12 12
12 28 12 20 -1 -3 -5 -1 -10 4 -10 6 0 11 4 11 8 0 7 78 30 118 34 6 1 12 5
12 10 0 5 5 6 10 3 6 -4 7 -12 3 -18z m-913 -822 c8 -1 25 -2 37 -3 12 -1 29
-9 37 -18 9 -8 16 -11 16 -5 0 6 9 11 21 11 13 0 18 -4 13 -12 -5 -7 -3 -8 6
-3 7 4 16 2 21 -6 7 -11 9 -11 9 -1 0 16 91 6 102 -12 5 -7 8 -7 8 2 0 10 9
12 32 7 41 -9 282 -8 368 2 36 4 68 6 73 5 4 -1 27 2 51 8 46 10 119 20 171
23 17 1 33 6 37 12 5 6 12 5 19 -2 7 -7 10 -15 8 -18 -8 -7 -150 -38 -191 -41
-21 -1 -59 -7 -85 -13 -27 -6 -72 -10 -100 -7 -29 2 -50 0 -47 -5 4 -8 -19 -6
-78 6 -10 2 -21 -1 -24 -6 -8 -13 -61 -11 -70 2 -4 8 -9 7 -15 -2 -6 -10 -9
-11 -9 -1 0 6 -5 12 -11 12 -5 0 -8 -3 -6 -7 7 -12 -86 -3 -100 9 -9 7 -13 7
-13 0 0 -10 -6 -10 -60 3 -19 5 -22 4 -10 -4 17 -12 10 -14 -14 -5 -9 3 -13
11 -10 16 4 6 -2 8 -15 3 -12 -4 -54 -1 -94 6 -73 12 -117 31 -117 50 0 6 6 7
12 2 7 -4 20 -8 28 -8z"/>
</g>
</svg>
