<?xml version="1.0" standalone="no"?>
<!DOCTYPE svg PUBLIC "-//W3C//DTD SVG 20010904//EN"
 "http://www.w3.org/TR/2001/REC-SVG-20010904/DTD/svg10.dtd">
<svg version="1.0" xmlns="http://www.w3.org/2000/svg"
 width="330.000000pt" height="330.000000pt" viewBox="0 0 330.000000 330.000000"
 preserveAspectRatio="xMidYMid meet">

<g transform="translate(0.000000,330.000000) scale(0.100000,-0.100000)"
fill="#000000" stroke="none">
<path d="M1365 3291 c-49 -4 -100 -13 -112 -19 -35 -19 -63 -62 -63 -97 l0
-32 -102 -6 c-111 -6 -227 -27 -323 -58 -87 -29 -219 -97 -266 -137 -42 -36
-44 -46 -24 -108 6 -19 -2 -24 -87 -54 -125 -43 -225 -92 -268 -130 l-35 -31
88 5 c48 4 87 4 87 1 0 -2 -20 -36 -45 -74 -25 -38 -45 -72 -45 -76 0 -3 24
10 54 29 92 59 130 74 271 112 164 43 210 61 259 105 38 33 41 48 21 101 -5
14 10 22 92 49 97 33 100 33 313 36 118 2 225 5 237 8 39 9 54 44 44 103 l-8
52 77 0 c42 0 119 3 169 7 l93 6 -7 -55 c-8 -64 -2 -93 23 -104 9 -5 118 -11
242 -14 219 -6 228 -7 323 -39 l98 -32 -7 -44 c-5 -40 -3 -47 22 -71 42 -39
113 -69 259 -108 148 -40 189 -55 259 -100 28 -18 57 -36 65 -41 15 -9 -8 34
-62 113 l-29 43 86 -7 c49 -4 86 -3 86 2 0 11 -80 65 -135 92 -22 10 -88 36
-148 58 -85 30 -106 42 -101 54 4 8 9 32 12 52 4 34 0 39 -40 68 -139 102
-335 161 -620 186 l-78 6 0 44 c0 52 -21 77 -77 94 -46 14 -472 21 -598 11z
m159 -108 c13 -46 13 -53 0 -53 -7 0 -14 7 -14 15 0 8 -7 15 -15 15 -8 0 -15
-7 -15 -15 0 -8 -4 -15 -9 -15 -4 0 -6 11 -4 24 3 16 10 23 19 19 9 -3 14 2
14 17 0 11 -4 18 -10 15 -11 -7 -13 6 -4 30 9 23 20 8 38 -52z m106 57 c0 -5
-7 -7 -15 -4 -12 5 -15 -4 -15 -50 0 -31 -4 -56 -10 -56 -5 0 -10 25 -10 56 0
46 -3 55 -15 50 -8 -3 -15 -1 -15 4 0 6 18 10 40 10 22 0 40 -4 40 -10z m100
-5 c11 -13 11 -20 0 -39 -7 -14 -9 -33 -5 -47 7 -21 6 -22 -9 -10 -9 7 -16 20
-16 27 0 8 -4 14 -10 14 -5 0 -10 -11 -10 -25 0 -14 -4 -25 -10 -25 -6 0 -10
27 -10 60 0 59 0 60 29 60 16 0 34 -7 41 -15z m-290 -10 c16 -19 6 -45 -20
-52 -13 -3 -20 -14 -20 -29 0 -13 -4 -24 -9 -24 -12 0 -21 36 -21 83 0 34 2
37 29 37 16 0 34 -7 41 -15z m352 -40 c-5 -71 -22 -71 -22 0 0 37 4 55 13 55
8 0 11 -16 9 -55z m94 -12 c4 -37 3 -53 -5 -53 -6 0 -11 7 -11 16 0 10 -7 14
-17 12 -10 -2 -17 -10 -15 -16 1 -7 -2 -12 -8 -12 -12 0 -12 3 -4 24 3 9 15
16 25 16 22 0 23 4 8 31 -12 23 -4 58 11 43 5 -5 12 -33 16 -61z m-816 -84
c12 -8 10 -9 -7 -4 -34 9 -37 -14 -4 -33 35 -19 49 -48 32 -65 -8 -8 -11 -7
-11 5 0 9 -13 26 -30 38 -31 22 -40 54 -17 63 18 8 21 8 37 -4z m1035 -51 c0
-49 2 -53 23 -52 12 0 22 -3 22 -8 0 -4 -15 -8 -32 -8 l-33 0 -2 60 c-1 41 2
60 10 60 8 0 12 -18 12 -52z m83 -8 c-2 -41 -7 -60 -16 -60 -10 0 -12 16 -10
60 2 41 7 60 16 60 9 0 12 -16 10 -60z m87 0 l0 -55 -35 -3 -35 -3 3 61 4 61
31 -3 c32 -3 32 -4 32 -58z m-1290 26 c32 -48 -1 -116 -42 -90 -25 16 -40 79
-23 98 18 23 47 19 65 -8z m1371 14 c8 0 14 -4 14 -9 0 -5 -9 -7 -20 -4 -14 4
-20 0 -20 -11 0 -9 8 -16 17 -16 9 0 13 -3 9 -7 -4 -5 -13 -8 -19 -8 -7 0 -13
-12 -15 -27 -3 -23 1 -28 20 -29 13 0 17 -3 10 -6 -7 -3 -23 -2 -36 1 -22 5
-22 8 -13 66 8 47 13 60 24 56 8 -4 21 -6 29 -6z m-1467 -66 c7 -30 10 -58 7
-61 -9 -9 -11 -4 -29 60 -12 44 -13 57 -3 57 7 0 18 -24 25 -56z m1559 34 c17
-17 15 -43 -4 -59 -10 -8 -13 -21 -9 -36 8 -34 -3 -28 -19 10 l-14 32 -1 -27
c-1 -26 -10 -35 -23 -23 -5 5 5 60 18 103 4 15 36 16 52 0z m-1673 -17 c-3 -6
3 -33 14 -60 13 -34 15 -51 8 -51 -17 0 -57 108 -43 114 19 8 27 6 21 -3z m53
-4 c18 -22 23 -61 10 -80 -12 -15 -13 -13 -14 18 0 19 -9 44 -19 55 -15 17
-16 20 -3 20 9 0 20 -6 26 -13z m1718 -26 c2 -7 0 -7 -3 -1 -10 22 -20 8 -32
-46 -7 -31 -17 -52 -21 -48 -5 5 -3 31 3 58 9 38 8 51 -1 54 -7 2 -12 8 -12
12 0 13 64 -16 66 -29z m-1502 4 c3 -8 1 -15 -4 -15 -6 0 -10 7 -10 15 0 8 2
15 4 15 2 0 6 -7 10 -15z m1552 -61 c-3 -26 -6 -55 -6 -65 0 -11 -4 -19 -10
-19 -5 0 -10 9 -10 19 0 23 -22 40 -28 23 -2 -7 -8 -12 -13 -12 -12 0 53 100
65 100 5 0 6 -21 2 -46z m88 -26 c46 -65 -17 -146 -68 -89 -16 18 -15 21 11
65 15 25 31 46 35 46 4 0 14 -10 22 -22z"/>
<path d="M1680 3215 c0 -20 4 -26 18 -23 9 2 17 12 17 23 0 11 -8 21 -17 23
-14 3 -18 -3 -18 -23z"/>
<path d="M1390 3205 c0 -26 24 -35 32 -12 7 18 -2 37 -18 37 -8 0 -14 -10 -14
-25z"/>
<path d="M2230 3060 c0 -11 7 -20 15 -20 8 0 15 9 15 20 0 11 -7 20 -15 20 -8
0 -15 -9 -15 -20z"/>
<path d="M2230 3006 c0 -17 5 -26 16 -26 10 0 14 7 12 22 -5 32 -28 35 -28 4z"/>
<path d="M930 3051 c0 -32 22 -81 36 -81 16 0 18 37 4 74 -11 30 -40 35 -40 7z"/>
<path d="M2410 3015 c0 -16 6 -25 15 -25 9 0 15 9 15 25 0 16 -6 25 -15 25 -9
0 -15 -9 -15 -25z"/>
<path d="M2563 2931 c-9 -14 -9 -22 -2 -27 15 -9 21 1 17 26 -3 21 -3 21 -15
1z"/>
<path d="M2663 2898 c-25 -31 -43 -77 -33 -83 25 -15 68 53 52 81 -7 13 -10
13 -19 2z"/>
<path d="M710 2574 c0 -4 43 -53 95 -109 l95 -103 0 -654 c0 -733 -2 -709 71
-792 22 -25 65 -57 96 -72 54 -27 63 -28 265 -33 l209 -6 40 -42 39 -42 39 42
40 42 208 5 c203 5 210 6 265 33 33 16 75 48 98 74 71 81 70 67 70 798 l0 651
101 107 101 107 -916 0 c-504 0 -916 -3 -916 -6z m1062 -296 l3 -282 114 195
c63 107 114 200 114 207 0 6 5 12 10 12 5 0 7 9 4 19 -3 13 7 30 30 53 l36 33
-7 -44 c-8 -53 -12 -61 -33 -61 -9 0 -14 -3 -10 -6 3 -4 1 -12 -6 -19 -7 -7
-68 -110 -137 -229 l-125 -217 -29 33 c-38 43 -28 26 67 -115 93 -141 94 -152
13 -190 -29 -14 -62 -37 -73 -51 -16 -19 -23 -22 -32 -13 -10 9 -11 8 -6 -4 5
-12 -2 -18 -25 -22 -17 -4 -51 -26 -78 -52 -73 -72 -77 -69 -178 113 -98 178
-92 168 -101 159 -3 -4 1 -15 9 -24 8 -10 27 -40 42 -66 20 -36 25 -52 17 -60
-11 -11 -16 2 -12 26 1 5 -2 6 -7 3 -5 -3 -21 21 -36 53 -25 52 -28 66 -25
145 l4 87 -141 139 c-84 84 -137 143 -131 149 5 5 57 -43 130 -120 106 -113
123 -127 127 -107 5 19 9 17 43 -29 20 -28 37 -57 37 -64 0 -7 12 -25 27 -41
34 -35 22 -49 -15 -17 l-27 24 25 -30 c14 -16 25 -31 26 -33 0 -1 8 6 17 16
16 17 7 31 -164 253 -99 129 -186 242 -194 251 -10 13 -11 19 -3 24 7 4 13 3
15 -3 2 -6 59 -82 126 -169 68 -88 153 -199 190 -247 l67 -88 0 50 c0 46 -10
67 -122 258 -67 114 -125 210 -130 211 -12 5 1 22 16 22 7 0 13 -6 13 -12 0
-7 49 -96 109 -198 l109 -185 3 273 2 272 150 0 150 0 2 -282z m-542 151 c-15
-26 -47 -13 -54 23 -12 59 -8 64 29 28 27 -26 32 -37 25 -51z m-185 16 c38
-30 38 -65 0 -65 -17 0 -24 9 -33 39 -19 61 -17 63 33 26z m1205 19 c0 -4 -5
-24 -12 -45 -9 -30 -16 -39 -34 -39 -35 0 -35 31 0 62 31 27 46 34 46 22z
m-65 -93 c3 -5 -5 -21 -17 -34 -13 -14 -97 -122 -188 -240 -148 -194 -193
-245 -177 -203 3 7 85 116 181 241 97 125 176 231 176 236 0 12 17 11 25 0z
m-1179 -52 c24 -14 34 -28 34 -45 0 -40 -36 -31 -60 16 -30 59 -27 62 26 29z
m1284 16 c0 -3 -9 -24 -20 -45 -13 -26 -27 -40 -40 -40 -33 0 -25 42 13 67 32
22 47 27 47 18z m-267 -291 c-106 -109 -195 -195 -199 -191 -4 4 5 20 19 35
15 16 27 34 27 41 0 8 17 36 38 63 33 44 38 47 42 27 5 -19 22 -4 125 108 67
72 124 126 130 122 6 -4 -73 -92 -182 -205z m-83 -228 c0 -113 -2 -124 -17
-121 -11 1 -17 9 -15 20 2 11 -1 14 -9 9 -7 -4 -10 -3 -6 3 4 6 -9 32 -28 59
l-35 49 52 52 c29 29 54 53 55 53 2 0 3 -56 3 -124z m-880 -116 l0 -150 -75 0
-75 0 0 143 c0 79 3 147 7 150 3 4 37 7 75 7 l68 0 0 -150z m1270 0 l0 -150
-70 0 -70 0 0 150 0 150 70 0 70 0 0 -150z m-961 -64 c50 -91 51 -96 51 -176
l0 -83 46 6 45 5 -7 -32 c-8 -41 -19 -53 -60 -68 -19 -6 -34 -18 -34 -24 0
-16 39 -44 62 -44 20 0 14 -28 -10 -47 -21 -17 -73 -16 -98 1 -21 15 -48 70
-58 116 -3 16 -38 54 -91 100 -124 108 -135 124 -135 205 l0 67 113 -106 112
-105 3 139 c1 77 4 140 7 140 2 0 26 -42 54 -94z m571 -75 l5 -113 113 107
112 107 0 -70 c0 -66 -2 -71 -39 -113 -21 -25 -71 -71 -110 -104 -44 -36 -74
-70 -77 -85 -11 -49 -38 -102 -61 -117 -29 -19 -96 -12 -124 13 -18 17 -19 16
-18 -32 0 -33 3 -43 8 -30 14 37 21 -11 21 -155 0 -133 -1 -139 -20 -139 -30
0 -96 -36 -114 -62 l-16 -22 -16 22 c-18 26 -84 62 -114 62 -19 0 -20 6 -20
141 0 125 2 140 16 135 9 -3 23 -6 31 -6 13 0 15 -9 10 -50 -5 -43 -3 -54 14
-71 38 -38 109 -7 109 46 0 18 5 20 39 17 21 -2 41 0 44 5 3 5 -7 7 -24 5 -26
-4 -29 -2 -29 24 0 16 -5 114 -11 217 -10 172 -10 190 5 205 26 26 31 8 46
-151 7 -78 15 -137 17 -130 3 8 15 10 34 6 21 -4 35 0 49 12 25 23 26 45 1 45
-25 0 -38 17 -46 63 -6 30 -4 38 6 37 49 -7 49 -6 49 110 l0 109 52 36 c29 19
49 35 45 35 -5 0 -95 -55 -200 -123 -106 -68 -197 -126 -204 -130 -15 -9 -139
211 -126 224 11 11 83 -120 76 -139 -3 -7 1 -11 8 -10 7 2 14 -7 15 -18 1 -25
12 -44 24 -44 4 0 95 56 202 125 106 69 198 123 203 122 6 -2 12 -54 15 -116z"/>
<path d="M1587 2393 c-4 -3 -7 -21 -7 -40 0 -32 -1 -33 -40 -33 l-40 0 0 -40
0 -40 40 0 40 0 0 -143 c0 -101 -4 -147 -12 -157 -7 -7 -1 -5 14 6 14 10 22
21 17 22 -5 2 -9 66 -9 143 l0 139 -40 0 c-38 0 -40 2 -40 30 0 28 2 30 40 30
l40 0 0 40 c0 38 2 40 30 40 28 0 30 -2 30 -40 l0 -40 40 0 c38 0 40 -2 40
-30 0 -28 -2 -30 -39 -30 l-40 0 -3 -134 c-2 -74 0 -132 5 -129 4 2 7 60 7
129 l0 124 40 0 40 0 0 40 0 40 -40 0 -40 0 0 40 c0 39 -1 40 -33 40 -19 0
-37 -3 -40 -7z"/>
<path d="M1526 1900 c-16 -5 -17 -8 -4 -12 8 -4 43 -54 77 -112 35 -58 65
-106 67 -106 6 0 -11 32 -59 110 -22 36 -45 79 -51 96 -9 24 -15 29 -30 24z"/>
<path d="M1680 1640 c6 -11 13 -20 16 -20 2 0 0 9 -6 20 -6 11 -13 20 -16 20
-2 0 0 -9 6 -20z"/>
<path d="M1741 1084 c0 -11 3 -14 6 -6 3 7 2 16 -1 19 -3 4 -6 -2 -5 -13z"/>
<path d="M2540 2474 c0 -4 13 -35 30 -70 59 -125 50 -151 -15 -43 -21 33 -39
58 -42 55 -12 -11 39 -146 76 -204 23 -34 37 -62 32 -62 -20 0 -57 62 -108
180 l-24 55 7 -79 6 -79 -47 27 c-26 15 -50 25 -53 21 -4 -4 23 -35 59 -69 37
-34 80 -87 99 -121 l33 -59 -74 64 -73 65 49 -61 c28 -34 72 -87 99 -118 27
-31 47 -59 44 -61 -2 -3 -20 15 -38 40 -34 46 -163 155 -182 155 -6 0 27 -39
73 -87 82 -86 157 -178 194 -238 10 -16 -30 17 -90 75 -122 119 -126 115 -15
-15 117 -137 145 -182 59 -93 -62 63 -131 118 -151 118 -2 0 31 -37 74 -82 90
-93 124 -141 67 -95 -30 24 -183 109 -168 93 3 -4 34 -26 67 -49 48 -34 152
-137 152 -151 0 -2 -11 -1 -25 1 -53 11 -146 -124 -162 -237 -4 -31 -1 -27 25
26 29 60 60 97 48 58 -16 -54 -24 -113 -19 -134 6 -24 6 -24 -14 -8 -11 10
-25 18 -32 18 -26 0 -40 -97 -22 -160 7 -23 8 -21 14 15 4 22 7 53 7 69 0 24
2 27 15 16 8 -7 22 -35 31 -64 15 -48 15 -58 0 -129 -17 -82 -62 -181 -120
-262 -20 -27 -36 -47 -36 -44 0 3 14 36 30 73 32 71 74 226 68 254 -2 9 -17
-21 -32 -68 -29 -88 -134 -300 -148 -300 -5 0 -6 12 -2 28 3 15 8 36 10 47 l4
20 -10 -20 c-5 -11 -19 -40 -30 -65 -11 -25 -18 -34 -16 -20 3 14 8 45 11 70
l6 45 -28 -65 -28 -65 -3 45 -4 45 -22 -60 c-28 -78 -84 -175 -100 -175 -7 0
-76 7 -152 16 -174 20 -584 14 -738 -10 -54 -9 -101 -15 -102 -13 -2 2 1 28 6
58 11 53 5 129 -9 129 -4 0 -18 -14 -31 -31 l-23 -32 -34 42 c-20 23 -48 48
-65 57 l-29 15 6 -45 c6 -39 5 -46 -9 -46 -9 0 -16 6 -16 14 0 23 -22 31 -35
13 -11 -15 -14 -15 -31 5 -24 26 -111 68 -143 68 l-24 0 29 -27 29 -28 -23 -3
c-42 -6 -53 5 -50 45 3 34 7 39 46 53 45 16 62 35 80 89 13 36 13 36 -48 20
-12 -3 -16 7 -18 45 -2 27 2 54 7 59 6 6 11 16 11 23 0 22 -43 2 -87 -42 l-42
-43 -30 28 -30 28 38 -1 c26 0 47 6 60 18 23 21 84 127 77 134 -3 2 -26 -3
-52 -12 -56 -19 -54 -19 -54 -6 0 6 9 10 19 10 11 0 32 5 46 10 l26 10 -37 46
c-21 25 -49 51 -63 59 l-26 14 38 1 c62 0 114 36 135 90 10 25 9 25 -40 21
l-50 -3 17 33 c10 18 21 46 26 62 l8 29 -37 -7 c-68 -14 -75 -12 -82 20 -4 17
-11 38 -16 48 -9 15 -13 14 -46 -13 -52 -43 -72 -90 -60 -144 9 -45 5 -106 -8
-106 -14 0 -27 74 -17 98 12 27 -8 55 -33 47 -14 -5 -16 -1 -12 22 3 14 16 42
29 62 13 19 29 54 35 78 12 51 36 57 68 16 46 -59 94 -67 170 -28 57 29 64 45
20 45 -34 0 -39 14 -11 29 10 6 25 21 34 34 l16 24 -42 1 c-23 0 -62 4 -87 7
-41 6 -51 3 -98 -28 -28 -20 -52 -33 -52 -29 0 11 40 75 63 100 17 18 31 22
79 22 73 0 104 16 158 80 l42 50 -31 0 c-17 0 -31 3 -31 8 1 4 5 26 9 50 10
52 2 59 -29 27 -14 -15 -35 -25 -52 -25 -23 0 -28 4 -28 24 0 40 -14 38 -57
-7 -54 -56 -63 -76 -63 -139 0 -29 -7 -64 -15 -78 -8 -14 -26 -48 -41 -77 -18
-33 -38 -56 -55 -63 -15 -7 -35 -21 -45 -31 -21 -23 -34 -10 -34 34 0 24 3 27
35 27 70 0 123 75 130 185 1 22 10 57 19 78 9 20 19 59 23 85 l6 47 -32 -28
c-18 -15 -40 -27 -50 -27 -9 0 -27 -7 -39 -16 -26 -18 -27 -9 -7 39 17 41 40
57 85 57 56 0 113 43 159 120 30 50 28 59 -14 50 -35 -8 -35 -8 -35 26 l0 34
-37 -15 c-21 -9 -55 -30 -77 -47 -42 -34 -50 -30 -62 30 -3 18 -10 35 -15 37
-4 3 -22 -23 -38 -59 -38 -78 -42 -153 -11 -204 11 -18 20 -42 20 -54 0 -20
-1 -21 -20 -3 -11 10 -20 26 -20 35 0 24 -26 32 -44 14 -24 -23 -6 -51 28 -45
15 3 36 -21 36 -42 0 -36 -24 -127 -34 -127 -5 0 -6 18 -2 40 8 51 -12 101
-52 130 -17 13 -33 33 -36 46 -10 40 -24 27 -37 -33 -9 -43 -9 -69 -1 -99 8
-28 8 -53 2 -75 -6 -19 -10 -47 -10 -64 l0 -30 -19 24 -19 24 -7 -23 -8 -24
-13 26 c-7 14 -24 32 -37 41 -13 8 -30 29 -37 46 -16 40 -26 32 -40 -34 -13
-64 -2 -115 31 -151 26 -28 7 -34 -29 -8 -21 15 -22 14 -22 -13 0 -40 52 -118
91 -138 22 -12 44 -15 70 -11 45 7 89 -7 89 -29 0 -14 -3 -14 -25 1 -20 13
-39 15 -86 10 -79 -8 -85 -13 -57 -43 40 -43 96 -66 150 -61 58 6 69 -4 78
-73 4 -27 5 -49 3 -49 -2 0 -25 16 -53 36 -27 19 -54 33 -59 30 -5 -3 -15 1
-22 10 -33 40 -179 87 -179 57 0 -20 46 -107 64 -122 30 -25 18 -33 -37 -26
l-52 7 29 -31 c46 -48 106 -73 171 -70 42 2 58 -1 68 -14 6 -9 32 -27 57 -39
37 -19 48 -31 63 -72 10 -27 16 -53 15 -58 -6 -16 -52 56 -50 78 2 29 -24 51
-46 38 -11 -7 -25 -5 -51 8 -36 19 -171 26 -171 10 0 -16 72 -93 100 -107 19
-10 53 -14 100 -12 l72 2 34 -39 c19 -22 32 -41 30 -43 -2 -3 -18 3 -35 11
-16 9 -37 16 -46 16 -9 0 -24 9 -33 21 -22 26 -52 16 -52 -18 0 -16 7 -27 19
-30 29 -7 33 -39 8 -56 -21 -14 -21 -14 10 -21 19 -5 42 -21 59 -43 30 -40 77
-63 128 -63 23 0 38 -6 45 -18 8 -16 3 -17 -72 -11 -45 4 -83 5 -85 4 -15 -13
69 -110 115 -134 26 -13 73 -14 92 -2 11 7 22 -1 44 -31 l29 -41 -28 -23 -29
-22 27 -11 c14 -5 53 -15 86 -21 68 -12 96 -5 129 34 28 32 37 33 51 1 9 -20
9 -27 -1 -30 -69 -24 -151 -57 -185 -74 -23 -11 -43 -21 -46 -21 -2 0 -25 35
-52 77 -81 129 -156 184 -212 154 -18 -9 -23 -6 -44 29 -21 36 -190 242 -194
237 -1 -1 7 -40 17 -86 11 -46 18 -85 16 -87 -2 -3 -28 7 -58 21 -30 14 -67
25 -83 25 l-29 0 43 -46 c23 -25 55 -75 71 -112 65 -146 95 -198 152 -258 63
-68 112 -93 146 -75 27 15 27 15 52 -26 55 -92 128 -171 184 -198 50 -25 64
-27 133 -23 84 5 157 35 201 82 19 21 23 32 18 63 -4 21 -8 47 -9 57 -3 16 14
24 121 54 120 33 125 34 158 18 19 -9 31 -21 28 -26 -3 -5 -33 -15 -65 -22
-33 -6 -60 -15 -60 -19 0 -4 13 -12 30 -19 l29 -12 -20 -39 c-10 -21 -15 -39
-10 -39 5 0 39 9 76 21 54 17 69 18 82 8 13 -11 5 -18 -56 -46 -66 -29 -87
-52 -62 -67 5 -4 7 3 4 14 -4 16 0 20 22 20 23 0 26 -4 22 -20 -4 -18 -2 -20
16 -14 30 9 153 71 198 99 26 17 54 24 100 26 61 3 69 1 144 -42 44 -26 99
-56 121 -67 l42 -21 -5 20 c-5 17 -2 20 18 17 16 -2 24 -9 23 -20 -1 -10 2
-15 7 -12 26 16 5 41 -57 69 -60 28 -64 31 -52 48 14 18 16 18 83 -2 37 -12
70 -19 73 -16 3 2 -3 16 -12 29 -23 35 -20 43 17 62 l32 17 -60 14 c-79 18
-86 28 -33 45 40 14 49 13 133 -9 158 -41 187 -53 180 -72 -4 -9 -10 -35 -12
-58 -5 -36 -2 -45 22 -67 73 -68 218 -97 310 -62 51 20 149 119 191 195 28 50
29 50 70 44 51 -7 87 11 138 67 56 62 92 124 128 218 25 66 44 98 87 145 l56
60 -49 -6 c-27 -4 -65 -16 -83 -27 -19 -11 -36 -20 -39 -20 -9 0 -3 38 15 109
l19 73 -23 -22 c-17 -16 -38 -22 -82 -24 -32 -2 -78 -6 -103 -10 -44 -7 -44
-7 -20 8 14 9 50 23 80 32 30 9 59 23 65 30 5 7 35 17 65 23 30 7 82 20 115
31 54 17 57 19 25 19 -19 0 -78 -6 -130 -14 -52 -8 -95 -13 -97 -11 -4 4 161
66 175 66 6 0 13 4 16 9 5 8 -29 3 -110 -14 -20 -4 -24 -3 -14 3 8 5 56 17
107 27 51 10 89 23 86 28 -3 5 -43 7 -91 5 l-86 -5 40 35 c45 39 73 52 117 53
l32 0 -25 12 c-14 6 -27 12 -29 14 -3 2 6 17 18 34 32 44 19 47 -31 8 -37 -30
-148 -67 -148 -50 0 9 88 66 145 95 28 14 46 26 40 26 -17 0 -108 -27 -149
-44 -21 -10 -36 -13 -35 -8 5 14 180 162 190 162 5 0 9 4 9 10 0 16 -46 -6
-138 -66 -46 -30 -86 -53 -88 -52 -2 2 31 34 74 71 135 118 178 159 152 146
-32 -16 -164 -103 -213 -142 -125 -98 32 103 181 231 29 24 50 47 48 50 -7 6
-100 -64 -201 -152 l-80 -70 59 64 c96 105 124 147 147 225 10 35 22 46 -126
-127 -60 -70 -111 -126 -113 -123 -16 16 212 334 288 402 24 22 24 22 4 23
-41 0 -129 -70 -215 -173 -54 -64 -58 -62 -29 16 19 51 38 85 124 222 l37 60
-53 -56 c-29 -30 -69 -83 -88 -118 -19 -34 -43 -72 -53 -84 l-17 -22 10 27
c16 47 51 111 102 186 57 84 49 95 -14 20 -61 -73 -82 -104 -129 -195 -48 -93
-44 -61 8 63 24 57 62 122 109 184 40 52 71 97 69 98 -8 8 -63 -42 -109 -98
-27 -33 -51 -58 -53 -56 -8 8 48 106 97 170 28 36 47 66 42 66 -14 0 -145
-140 -181 -193 -18 -27 -35 -47 -37 -45 -7 8 39 155 72 227 19 41 34 76 34 79
0 13 -54 -46 -71 -78 -30 -58 -21 -17 16 71 19 45 33 84 32 85 -2 2 -22 -28
-46 -67 -47 -76 -66 -87 -30 -18 17 33 18 41 5 30 -16 -14 -86 -146 -100 -191
-17 -52 -17 9 -2 121 9 62 14 114 12 117 -3 2 -17 -36 -31 -84 -15 -49 -29
-95 -31 -103 -7 -21 -11 -13 -59 104 -45 110 -94 193 -127 214 -10 6 -18 8
-18 5z m-2228 -589 c43 -11 48 -24 34 -85 -13 -52 -14 -53 -15 -18 -1 28 -11
48 -41 83 -41 48 -53 70 -22 42 9 -8 29 -18 44 -22z m159 15 c-13 -11 -29 -20
-36 -20 -7 0 -25 -10 -41 -22 -24 -19 -27 -20 -21 -4 4 10 7 24 7 32 0 10 12
14 38 14 20 0 44 5 52 10 25 16 26 10 1 -10z m-147 -203 c8 -12 4 -35 -14 -86
-21 -61 -25 -68 -36 -52 -9 12 -11 41 -7 93 5 72 7 76 26 69 12 -5 26 -15 31
-24z m126 -34 c-1 -28 -39 -105 -49 -99 -5 4 -13 21 -16 38 -6 27 -3 35 21 55
35 28 44 29 44 6z m2283 -160 c8 -16 17 -41 20 -58 5 -22 0 -17 -18 20 -13 28
-24 53 -24 58 -2 15 9 6 22 -20z m-100 -80 c15 -39 31 -115 41 -193 l5 -45
-23 47 c-13 26 -34 63 -47 84 l-22 37 -19 -23 c-10 -12 -18 -18 -18 -14 0 18
52 144 60 144 4 0 15 -17 23 -37z m-2204 -42 c0 -11 -3 -8 -9 7 -10 24 -30 28
-48 10 -10 -10 -10 -6 -1 19 l11 32 24 -26 c13 -14 24 -33 23 -42z m2545 -8
c-51 -64 -61 -74 -40 -38 18 29 66 85 74 85 2 0 -14 -21 -34 -47z m-2574 -20
c33 9 34 -16 2 -79 l-29 -58 -12 52 c-6 29 -11 67 -11 85 1 30 2 31 15 13 9
-12 21 -17 35 -13z m159 -39 c2 -2 -20 -4 -49 -4 -52 0 -53 0 -35 20 16 18 19
18 49 3 17 -8 33 -17 35 -19z m2061 -110 c29 -92 31 -108 20 -132 l-12 -27
-14 45 c-8 25 -14 68 -15 95 0 33 -3 44 -8 31 -6 -17 -9 -15 -20 12 -13 31 -8
82 8 82 4 0 23 -47 41 -106z m-2147 25 c16 -23 22 -41 16 -50 -10 -16 -11 -15
-42 39 -14 24 -27 39 -31 34 -3 -6 -9 -37 -12 -70 -6 -55 -4 -66 23 -114 27
-50 33 -88 13 -88 -10 0 -46 113 -56 177 -5 33 -2 50 16 82 26 46 36 44 73
-10z m41 -241 c-9 -57 -7 -114 7 -141 6 -12 29 -38 50 -58 42 -39 51 -69 21
-69 -25 0 -42 21 -91 113 -44 85 -52 137 -25 175 8 12 22 22 30 22 13 0 14 -8
8 -42z m-111 -44 c21 -14 37 -27 35 -28 -2 -2 -22 -1 -44 2 -36 3 -41 7 -41
28 0 30 4 30 50 -2z m2657 -120 c0 -3 -27 -36 -60 -75 -33 -38 -69 -87 -79
-108 -20 -38 -21 -39 -68 -34 -26 3 -53 10 -60 15 -6 5 -24 13 -40 18 -20 6 0
9 72 10 90 1 97 2 75 14 -14 8 -52 19 -85 26 -33 7 -64 17 -69 21 -14 12 86
57 196 88 117 33 118 33 118 25z m-2170 -165 c0 -14 -17 -10 -23 5 -4 10 -1
13 9 9 7 -3 14 -9 14 -14z m28 -42 c4 -19 -6 -21 -27 -8 -16 10 -5 34 12 28 7
-2 13 -11 15 -20z m1839 -39 c-18 -18 -53 -62 -77 -98 -71 -108 -61 -103 -143
-65 -40 18 -105 43 -144 55 -40 12 -73 24 -73 27 0 3 70 4 155 1 85 -3 155 -4
155 -2 0 2 -33 14 -72 26 l-73 23 120 5 c109 5 117 6 85 17 -19 6 -60 15 -90
19 -54 8 -54 8 -20 15 19 3 75 7 123 8 l88 1 -34 -32z m-1190 -122 c10 -35 11
-52 4 -59 -8 -8 -11 -6 -11 6 0 10 -8 17 -20 17 -12 0 -20 -7 -20 -17 0 -9 -2
-14 -5 -11 -9 9 18 119 28 115 6 -2 17 -25 24 -51z m153 35 c24 -46 -1 -101
-47 -101 -22 0 -23 4 -23 60 0 60 0 60 30 60 19 0 33 -7 40 -19z m90 3 c18
-20 17 -71 -1 -89 -12 -12 -14 -7 -11 40 3 46 1 55 -13 55 -14 0 -16 -9 -13
-55 3 -59 -6 -71 -23 -29 -22 58 27 120 61 78z m-410 -60 c0 -30 -4 -54 -9
-54 -9 0 -22 100 -14 113 12 19 23 -9 23 -59z m43 33 c-7 -43 20 -75 46 -55
14 12 15 11 2 -4 -29 -38 -71 -11 -71 44 0 20 16 48 26 48 2 0 0 -15 -3 -33z
m47 23 c0 -5 -2 -10 -4 -10 -3 0 -8 5 -11 10 -3 6 -1 10 4 10 6 0 11 -4 11
-10z m393 -41 c7 -61 -4 -90 -15 -39 -4 19 -10 47 -14 63 -5 20 -3 27 8 27 11
0 17 -15 21 -51z m-573 4 c0 -46 13 -68 34 -60 9 4 16 3 16 -2 0 -8 -33 -21
-56 -21 -6 0 -12 25 -13 60 -1 37 2 60 8 60 6 0 11 -17 11 -37z m620 -24 c0
-37 -4 -58 -10 -54 -5 3 -10 25 -11 48 0 33 -2 38 -9 22 -10 -23 -12 -10 -4
23 4 12 13 22 20 22 10 0 14 -16 14 -61z m46 45 c-3 -9 -6 -36 -6 -60 0 -24
-5 -44 -11 -44 -6 0 -9 22 -7 60 2 43 7 60 16 60 9 0 12 -6 8 -16z m55 -29 c9
-23 16 -31 21 -22 5 7 8 0 8 -19 0 -17 -3 -34 -7 -37 -7 -8 -53 79 -53 101 0
25 19 11 31 -23z m-773 0 c-3 -14 -1 -28 3 -31 8 -4 13 -44 6 -44 -1 0 -16 -4
-33 -9 l-32 -9 -9 59 -10 59 40 0 c37 0 39 -2 35 -25z m812 15 c0 -5 -2 -10
-4 -10 -3 0 -8 5 -11 10 -3 6 -1 10 4 10 6 0 11 -4 11 -10z m36 -37 c-3 -21
-6 -48 -6 -60 0 -13 -4 -23 -10 -23 -11 0 -13 42 -4 89 9 45 28 39 20 -6z
m-991 -5 c12 -58 16 -69 28 -65 7 2 15 21 18 43 l7 39 -2 -45 c-1 -37 -5 -46
-22 -48 -27 -4 -42 15 -50 66 -8 50 11 59 21 10z m1074 18 c8 -10 9 -16 1 -21
-5 -3 -10 1 -10 9 0 26 -20 18 -31 -11 -13 -35 4 -78 27 -69 8 3 12 2 9 -4 -8
-14 -38 -13 -53 2 -17 17 -15 59 4 86 17 25 36 28 53 8z m-1119 -33 c0 -17 -7
-27 -21 -30 -15 -4 -19 -12 -17 -31 2 -14 -2 -27 -8 -29 -7 -2 -14 16 -18 44
-9 68 -9 67 3 71 6 2 11 -8 11 -22 0 -17 5 -26 16 -26 13 0 15 7 11 30 -5 23
-3 28 8 23 8 -3 15 -16 15 -30z m776 -21 c-11 -10 -14 3 -8 33 l7 30 3 -28 c2
-16 1 -31 -2 -35z m414 -22 c0 -33 -4 -60 -10 -60 -5 0 -10 9 -10 20 0 11 -7
20 -15 20 -8 0 -15 -4 -15 -10 0 -5 -4 -10 -10 -10 -6 0 -5 11 2 26 7 15 14
21 16 15 6 -19 22 -12 22 10 0 11 -4 18 -9 15 -5 -4 -7 3 -4 14 3 11 12 20 19
20 10 0 14 -16 14 -60z m-1284 38 c4 -7 3 -8 -5 -4 -18 12 -41 -1 -35 -19 5
-12 9 -13 20 -4 11 9 14 8 14 -5 0 -9 -7 -16 -15 -16 -17 0 -19 -9 -5 -30 8
-12 13 -13 30 -2 11 7 20 8 20 3 0 -12 -8 -16 -42 -25 -25 -6 -27 -3 -37 46
-9 40 -9 53 1 60 19 11 46 10 54 -4z m1021 -25 c-3 -10 -5 -4 -5 12 0 17 2 24
5 18 2 -7 2 -21 0 -30z m328 -7 c6 -20 14 -34 18 -30 8 9 9 -3 1 -33 -9 -32
-21 -20 -29 27 -4 22 -11 38 -16 34 -5 -3 -9 7 -9 21 0 38 23 26 35 -19z m32
2 c-3 -8 -6 -5 -6 6 -1 11 2 17 5 13 3 -3 4 -12 1 -19z m-1472 -24 c0 -17 6
-38 14 -47 19 -24 -6 -23 -31 0 -19 17 -19 16 -13 -10 5 -17 3 -27 -4 -27 -5
0 -15 18 -21 41 -6 22 -13 46 -16 54 -6 14 18 24 51 22 15 -2 20 -9 20 -33z
m1535 -46 c0 -47 -3 -59 -12 -50 -6 6 -11 28 -10 49 1 26 -1 34 -8 23 -5 -8
-6 -18 -4 -22 3 -4 0 -8 -5 -8 -6 0 -11 -7 -11 -16 0 -8 -4 -13 -9 -9 -11 6
36 95 50 95 5 0 9 -28 9 -62z m-134 -6 c-11 -10 -14 3 -8 33 l7 30 3 -28 c2
-16 1 -31 -2 -35z"/>
<path d="M1530 451 c0 -12 5 -21 10 -21 6 0 10 6 10 14 0 8 -4 18 -10 21 -5 3
-10 -3 -10 -14z"/>
<path d="M1670 450 c0 -51 6 -60 28 -38 22 22 12 88 -14 88 -10 0 -14 -14 -14
-50z"/>
<path d="M1214 429 c3 -17 6 -38 6 -45 0 -8 7 -14 15 -14 8 0 15 9 15 20 0 11
-5 20 -10 20 -6 0 -8 11 -4 25 5 19 2 25 -11 25 -14 0 -16 -6 -11 -31z"/>
<path d="M840 344 c0 -31 23 -28 28 4 2 15 -2 22 -12 22 -11 0 -16 -9 -16 -26z"/>
</g>
</svg>
