<?xml version="1.0" standalone="no"?>
<!DOCTYPE svg PUBLIC "-//W3C//DTD SVG 20010904//EN"
 "http://www.w3.org/TR/2001/REC-SVG-20010904/DTD/svg10.dtd">
<svg version="1.0" xmlns="http://www.w3.org/2000/svg"
 width="532.000000pt" height="532.000000pt" viewBox="0 0 532.000000 532.000000"
 preserveAspectRatio="xMidYMid meet">

<g transform="translate(0.000000,532.000000) scale(0.100000,-0.100000)"
fill="#000000" stroke="none">
<path d="M2391 4954 c-19 -8 -55 -31 -79 -51 -46 -37 -100 -62 -140 -63 -13 0
-45 10 -73 21 -40 18 -59 20 -106 14 -50 -6 -63 -12 -98 -49 -22 -24 -48 -55
-59 -70 -10 -16 -39 -37 -63 -48 -38 -17 -57 -19 -123 -13 -68 6 -82 4 -120
-15 -55 -28 -85 -64 -105 -122 -9 -26 -30 -59 -46 -72 -32 -27 -115 -56 -161
-56 -16 0 -47 -9 -69 -20 -44 -23 -83 -91 -94 -165 -10 -58 -80 -123 -168
-154 -95 -33 -119 -69 -127 -191 -5 -84 -4 -88 13 -73 23 22 31 12 16 -21 -8
-16 -19 -26 -29 -24 -10 2 -31 -11 -47 -29 -17 -17 -43 -35 -59 -39 -65 -16
-132 -128 -120 -201 25 -141 18 -170 -63 -248 -32 -31 -59 -61 -60 -68 -14
-77 -11 -139 8 -182 36 -81 27 -164 -25 -222 -64 -71 -70 -165 -14 -234 63
-79 77 -157 39 -231 -28 -55 -35 -133 -16 -178 9 -19 40 -60 70 -90 71 -72 80
-103 59 -208 -15 -77 -14 -82 6 -124 25 -53 55 -86 96 -104 82 -36 116 -92
116 -192 0 -121 32 -166 146 -208 102 -37 119 -59 154 -196 21 -81 91 -138
169 -138 84 0 152 -47 188 -130 49 -110 90 -135 221 -132 53 1 103 -3 115 -9
31 -16 87 -71 87 -85 0 -19 76 -79 115 -92 28 -8 48 -7 88 4 69 20 140 28 172
20 14 -4 45 -24 69 -46 48 -44 118 -79 158 -80 14 0 57 16 95 36 88 46 145 53
198 24 22 -12 53 -29 68 -37 73 -39 148 -26 221 39 50 44 123 71 165 62 14 -3
45 -13 68 -21 88 -32 193 8 234 89 32 62 83 83 206 83 97 0 103 1 144 30 24
17 49 42 55 55 64 139 84 157 194 171 124 15 168 54 194 173 15 64 23 80 56
110 22 20 52 38 67 42 36 9 103 42 127 63 33 29 49 74 49 135 -1 33 6 78 13
100 14 39 49 86 65 86 17 0 95 60 118 91 26 35 33 113 17 201 -8 41 -5 54 17
100 17 33 40 62 63 76 75 49 90 140 43 271 -20 57 -21 68 -10 110 7 25 20 57
29 70 81 113 83 168 9 278 -50 73 -53 113 -17 214 l32 87 -17 58 c-13 46 -27
67 -75 113 -50 48 -59 63 -65 104 -5 29 -2 72 5 108 21 98 -15 181 -95 221
-86 44 -115 89 -115 181 0 125 -43 192 -140 217 -56 14 -117 55 -135 89 -7 15
-19 54 -25 88 -21 106 -87 163 -188 163 -37 0 -59 7 -94 30 -51 34 -68 56 -89
115 -32 90 -106 128 -234 118 -66 -5 -73 -3 -118 27 -26 18 -54 45 -62 61 -40
76 -122 111 -209 90 -124 -31 -214 -23 -201 19 4 14 2 17 -12 14 -11 -3 -35 7
-58 26 -21 17 -50 33 -64 36 -14 3 -32 7 -39 10 -23 7 -110 -17 -132 -36 -38
-33 -83 -42 -146 -31 -32 6 -67 19 -78 30 -49 44 -111 53 -175 25z m552 -34
c15 0 27 -4 27 -9 0 -16 -54 -19 -82 -5 -36 19 -36 28 0 20 15 -4 39 -7 55 -6z
m2 -60 c-3 -5 -13 -10 -21 -10 -8 0 -12 5 -9 10 3 6 13 10 21 10 8 0 12 -4 9
-10z m-445 -24 c0 -3 -4 -8 -10 -11 -5 -3 -10 -1 -10 4 0 6 5 11 10 11 6 0 10
-2 10 -4z m70 -11 c0 -8 -4 -15 -10 -15 -5 0 -10 7 -10 15 0 8 5 15 10 15 6 0
10 -7 10 -15z m-430 -35 c0 -5 -4 -10 -10 -10 -5 0 -10 5 -10 10 0 6 5 10 10
10 6 0 10 -4 10 -10z m1180 1 c0 -6 -4 -13 -10 -16 -5 -3 -10 1 -10 9 0 9 5
16 10 16 6 0 10 -4 10 -9z m-1170 -40 c0 -19 -17 -38 -25 -29 -7 7 7 48 16 48
5 0 9 -9 9 -19z m805 -6 c55 -8 119 -19 143 -25 23 -5 59 -14 80 -19 45 -10
127 -36 202 -63 160 -59 185 -69 199 -82 9 -8 45 -28 81 -45 84 -40 209 -120
307 -196 134 -104 337 -316 419 -439 198 -296 307 -557 360 -866 21 -119 30
-489 15 -599 -18 -133 -40 -251 -57 -306 -8 -27 -19 -66 -25 -85 -39 -129
-154 -374 -234 -496 -114 -176 -314 -406 -420 -482 -27 -20 -57 -42 -65 -49
-36 -32 -98 -77 -140 -101 -25 -14 -54 -33 -65 -43 -49 -43 -249 -133 -440
-198 -153 -53 -198 -63 -405 -90 -108 -14 -465 -6 -585 13 -243 39 -567 156
-735 267 -14 9 -52 33 -85 54 -140 89 -376 302 -465 420 -20 28 -55 72 -77 98
-22 27 -47 61 -54 75 -8 15 -26 45 -40 67 -34 52 -112 200 -129 245 -7 19 -26
65 -41 101 -28 66 -38 97 -85 276 -66 253 -71 653 -12 908 72 315 176 547 362
810 78 110 313 354 411 426 112 82 210 145 290 189 44 23 89 49 100 56 11 8
26 14 33 14 8 0 28 6 45 14 94 40 202 76 301 101 38 9 81 21 95 27 91 35 535
49 716 23z m180 4 c4 -6 5 -12 3 -14 -7 -7 -48 7 -48 16 0 13 37 11 45 -2z
m720 -229 c-3 -5 -14 -10 -23 -10 -15 0 -15 2 -2 10 20 13 33 13 25 0z m35
-10 c0 -5 -2 -10 -4 -10 -3 0 -8 5 -11 10 -3 6 -1 10 4 10 6 0 11 -4 11 -10z
m75 -60 c3 -6 -1 -13 -10 -16 -19 -8 -30 0 -20 15 8 14 22 14 30 1z m-2851
-236 c22 -9 10 -24 -20 -24 -15 0 -24 6 -24 15 0 16 17 19 44 9z m3126 -4 c0
-5 -2 -10 -4 -10 -3 0 -8 5 -11 10 -3 6 -1 10 4 10 6 0 11 -4 11 -10z m50 1
c0 -12 -20 -25 -27 -18 -7 7 6 27 18 27 5 0 9 -4 9 -9z m-3320 -186 c0 -8 -4
-15 -10 -15 -5 0 -10 7 -10 15 0 8 5 15 10 15 6 0 10 -7 10 -15z m-180 -321
c0 -8 -5 -12 -10 -9 -6 4 -8 11 -5 16 9 14 15 11 15 -7z m-14 -31 c-7 -7 -26
7 -26 19 0 6 6 6 15 -2 9 -7 13 -15 11 -17z m-171 -47 c-6 -28 -3 -36 19 -54
14 -11 26 -28 26 -39 0 -24 19 -43 42 -43 10 0 18 -5 18 -11 0 -7 -7 -8 -17
-4 -10 4 -25 8 -33 8 -8 0 -20 7 -26 16 -10 13 -14 13 -28 2 -9 -8 -20 -11
-24 -7 -4 4 3 15 16 24 l22 17 -25 29 c-29 34 -29 34 -12 69 17 37 29 34 22
-7z m4215 -396 c0 -5 -5 -10 -11 -10 -7 0 -9 -11 -6 -26 3 -16 0 -28 -9 -31
-22 -8 -43 15 -42 48 1 26 4 29 35 29 18 0 33 -4 33 -10z m-71 -57 c0 -5 -4
-17 -9 -28 -8 -18 -9 -17 -9 8 -1 15 4 27 9 27 6 0 10 -3 9 -7z m-4279 -362
c14 -7 34 -24 44 -39 11 -15 13 -21 6 -14 -8 6 -21 12 -29 12 -16 0 -61 38
-61 53 0 5 3 7 8 5 4 -2 18 -9 32 -17z m-20 -202 c0 -10 -27 -19 -34 -12 -12
12 -5 22 14 20 11 -1 20 -4 20 -8z m4420 -170 c0 -5 -4 -9 -10 -9 -5 0 -10 7
-10 16 0 8 5 12 10 9 6 -3 10 -10 10 -16z m-4325 -49 c-3 -5 -10 -10 -16 -10
-5 0 -9 5 -9 10 0 6 7 10 16 10 8 0 12 -4 9 -10z m15 -32 c0 -21 -17 -41 -28
-34 -14 8 -3 46 14 46 8 0 14 -6 14 -12z m-56 -74 c3 -8 2 -12 -4 -9 -6 3 -10
10 -10 16 0 14 7 11 14 -7z m110 -205 c-17 -28 -12 -74 11 -105 13 -17 21 -34
18 -38 -3 -3 1 -14 10 -24 22 -24 9 -37 -15 -15 -14 13 -21 14 -30 5 -16 -16
-28 -15 -28 3 0 8 6 15 14 15 26 0 26 15 0 45 -26 30 -30 50 -13 60 6 4 8 14
4 22 -3 9 2 24 11 35 18 19 31 18 18 -3z m113 -295 c-9 -9 -28 6 -21 18 4 6
10 6 17 -1 6 -6 8 -13 4 -17z m-52 -93 c-3 -6 -11 -11 -17 -11 -6 0 -6 6 2 15
14 17 26 13 15 -4z m165 -321 c8 -5 11 -12 8 -16 -4 -3 -14 1 -23 10 -18 17
-9 21 15 6z m160 -24 c0 -11 -19 -15 -25 -6 -3 5 1 10 9 10 9 0 16 -2 16 -4z
m-153 -22 c2 -6 -3 -11 -12 -11 -8 0 -15 7 -15 15 0 15 22 12 27 -4z m3513
-14 c0 -5 -7 -10 -15 -10 -8 0 -15 5 -15 10 0 6 7 10 15 10 8 0 15 -4 15 -10z
m-25 -40 c-3 -5 -13 -10 -21 -10 -8 0 -12 5 -9 10 3 6 13 10 21 10 8 0 12 -4
9 -10z m-3205 -257 c9 -8 -23 -20 -41 -16 -20 6 -24 15 -12 26 6 7 42 0 53
-10z m3110 7 c0 -5 -4 -10 -10 -10 -5 0 -10 5 -10 10 0 6 5 10 10 10 6 0 10
-4 10 -10z m-2905 -96 c54 -4 55 -5 15 -14 -23 -6 -45 -4 -67 5 -37 16 -45 30
-10 19 12 -4 40 -9 62 -10z m119 -13 c7 -11 -14 -20 -31 -13 -7 2 -10 8 -7 13
7 12 31 12 38 0z m62 -35 c22 -17 11 -35 -13 -20 -19 12 -29 34 -16 34 5 0 18
-6 29 -14z m-26 -86 c0 -5 -5 -10 -11 -10 -5 0 -7 5 -4 10 3 6 8 10 11 10 2 0
4 -4 4 -10z m2256 -16 c4 -14 2 -30 -5 -37 -16 -16 -24 -2 -11 22 7 14 7 21 0
21 -5 0 -10 5 -10 10 0 21 20 9 26 -16z m44 6 c0 -5 -2 -10 -4 -10 -3 0 -8 5
-11 10 -3 6 -1 10 4 10 6 0 11 -4 11 -10z m-2240 -40 c6 -11 8 -20 5 -20 -3 0
-7 0 -10 0 -3 0 -4 3 -2 6 1 3 -11 12 -28 19 l-30 13 27 1 c18 1 31 -6 38 -19z
m2290 -45 c0 -8 -4 -15 -10 -15 -5 0 -10 7 -10 15 0 8 5 15 10 15 6 0 10 -7
10 -15z m-1410 -165 c0 -5 -4 -10 -10 -10 -5 0 -10 5 -10 10 0 6 5 10 10 10 6
0 10 -4 10 -10z m-470 -10 c12 -8 11 -10 -7 -10 -12 0 -25 5 -28 10 -8 13 15
13 35 0z m297 4 c-3 -3 -12 -4 -19 -1 -8 3 -5 6 6 6 11 1 17 -2 13 -5z m33 -4
c0 -5 -4 -10 -10 -10 -5 0 -10 5 -10 10 0 6 5 10 10 10 6 0 10 -4 10 -10z
m1040 -5 c0 -9 -6 -12 -15 -9 -8 4 -12 10 -9 15 8 14 24 10 24 -6z m-570 -5
c0 -5 -7 -10 -15 -10 -8 0 -15 5 -15 10 0 6 7 10 15 10 8 0 15 -4 15 -10z
m-378 -43 c23 5 23 5 3 -10 -23 -19 -66 -24 -48 -6 6 6 9 19 6 28 -4 14 -3 14
6 -1 7 -10 19 -14 33 -11z m358 14 c0 -12 -20 -25 -27 -18 -7 7 6 27 18 27 5
0 9 -4 9 -9z m-250 -21 c0 -5 -5 -10 -11 -10 -5 0 -7 5 -4 10 3 6 8 10 11 10
2 0 4 -4 4 -10z m-55 -60 c3 -5 1 -10 -4 -10 -6 0 -11 5 -11 10 0 6 2 10 4 10
3 0 8 -4 11 -10z"/>
<path d="M2526 4661 c-4 -5 -2 -12 3 -15 5 -4 12 -2 15 3 4 5 2 12 -3 15 -5 4
-12 2 -15 -3z"/>
<path d="M2570 4660 c0 -5 5 -10 10 -10 6 0 10 5 10 10 0 6 -4 10 -10 10 -5 0
-10 -4 -10 -10z"/>
<path d="M2620 4660 c0 -5 5 -10 10 -10 6 0 10 5 10 10 0 6 -4 10 -10 10 -5 0
-10 -4 -10 -10z"/>
<path d="M2670 4660 c0 -5 7 -10 15 -10 8 0 15 5 15 10 0 6 -7 10 -15 10 -8 0
-15 -4 -15 -10z"/>
<path d="M2730 4660 c0 -5 5 -10 10 -10 6 0 10 5 10 10 0 6 -4 10 -10 10 -5 0
-10 -4 -10 -10z"/>
<path d="M2780 4660 c0 -5 5 -10 10 -10 6 0 10 5 10 10 0 6 -4 10 -10 10 -5 0
-10 -4 -10 -10z"/>
<path d="M2420 4644 c0 -8 5 -12 10 -9 6 3 10 10 10 16 0 5 -4 9 -10 9 -5 0
-10 -7 -10 -16z"/>
<path d="M2470 4650 c0 -5 5 -10 10 -10 6 0 10 5 10 10 0 6 -4 10 -10 10 -5 0
-10 -4 -10 -10z"/>
<path d="M2830 4650 c0 -5 5 -10 10 -10 6 0 10 5 10 10 0 6 -4 10 -10 10 -5 0
-10 -4 -10 -10z"/>
<path d="M2885 4650 c-3 -5 1 -10 10 -10 9 0 13 5 10 10 -3 6 -8 10 -10 10 -2
0 -7 -4 -10 -10z"/>
<path d="M2367 4629 c-4 -16 -3 -18 9 -8 16 13 19 29 5 29 -5 0 -11 -9 -14
-21z"/>
<path d="M2930 4640 c0 -5 7 -10 15 -10 8 0 15 5 15 10 0 6 -7 10 -15 10 -8 0
-15 -4 -15 -10z"/>
<path d="M2310 4630 c0 -5 5 -10 10 -10 6 0 10 5 10 10 0 6 -4 10 -10 10 -5 0
-10 -4 -10 -10z"/>
<path d="M2985 4630 c3 -5 10 -10 16 -10 5 0 9 5 9 10 0 6 -7 10 -16 10 -8 0
-12 -4 -9 -10z"/>
<path d="M3036 4631 c-4 -5 -2 -12 3 -15 5 -4 12 -2 15 3 4 5 2 12 -3 15 -5 4
-12 2 -15 -3z"/>
<path d="M2260 4620 c0 -5 5 -10 10 -10 6 0 10 5 10 10 0 6 -4 10 -10 10 -5 0
-10 -4 -10 -10z"/>
<path d="M3086 4621 c-4 -5 -2 -12 3 -15 5 -4 12 -2 15 3 4 5 2 12 -3 15 -5 4
-12 2 -15 -3z"/>
<path d="M2210 4610 c0 -5 5 -10 10 -10 6 0 10 5 10 10 0 6 -4 10 -10 10 -5 0
-10 -4 -10 -10z"/>
<path d="M2160 4600 c0 -5 5 -10 10 -10 6 0 10 5 10 10 0 6 -4 10 -10 10 -5 0
-10 -4 -10 -10z"/>
<path d="M3135 4600 c3 -5 10 -10 16 -10 5 0 9 5 9 10 0 6 -7 10 -16 10 -8 0
-12 -4 -9 -10z"/>
<path d="M3190 4590 c0 -5 5 -10 11 -10 5 0 7 5 4 10 -3 6 -8 10 -11 10 -2 0
-4 -4 -4 -10z"/>
<path d="M2016 4561 c-4 -5 -2 -12 3 -15 5 -4 12 -2 15 3 4 5 2 12 -3 15 -5 4
-12 2 -15 -3z"/>
<path d="M3290 4560 c0 -5 5 -10 10 -10 6 0 10 5 10 10 0 6 -4 10 -10 10 -5 0
-10 -4 -10 -10z"/>
<path d="M1965 4541 c-6 -11 9 -23 19 -14 9 9 7 23 -3 23 -6 0 -12 -4 -16 -9z"/>
<path d="M3340 4539 c0 -5 5 -7 10 -4 6 3 10 8 10 11 0 2 -4 4 -10 4 -5 0 -10
-5 -10 -11z"/>
<path d="M1920 4520 c0 -5 5 -10 10 -10 6 0 10 5 10 10 0 6 -4 10 -10 10 -5 0
-10 -4 -10 -10z"/>
<path d="M3390 4520 c0 -5 5 -10 10 -10 6 0 10 5 10 10 0 6 -4 10 -10 10 -5 0
-10 -4 -10 -10z"/>
<path d="M3436 4511 c-4 -5 -2 -12 3 -15 5 -4 12 -2 15 3 4 5 2 12 -3 15 -5 4
-12 2 -15 -3z"/>
<path d="M1870 4500 c0 -5 5 -10 10 -10 6 0 10 5 10 10 0 6 -4 10 -10 10 -5 0
-10 -4 -10 -10z"/>
<path d="M2476 4501 c-3 -5 1 -14 9 -21 9 -8 15 -30 15 -58 l0 -45 -47 62
c-44 57 -74 74 -88 52 -3 -6 3 -14 12 -20 14 -8 18 -23 18 -80 0 -72 2 -76 28
-65 13 5 13 9 1 32 -15 29 -19 82 -6 82 4 0 25 -22 46 -50 28 -37 45 -50 64
-50 23 0 24 1 10 18 -19 22 -31 125 -15 141 8 8 4 11 -15 11 -15 0 -29 -4 -32
-9z"/>
<path d="M2585 4425 c0 -71 3 -85 16 -85 23 0 30 11 18 26 -6 8 -9 41 -7 79 2
53 0 65 -12 65 -12 0 -15 -16 -15 -85z"/>
<path d="M2693 4488 c-11 -13 -24 -33 -27 -45 -10 -30 19 -82 52 -94 28 -11
72 -4 72 11 0 5 -7 7 -15 4 -25 -10 -62 4 -79 31 -28 43 2 95 54 95 19 0 30
-6 33 -17 4 -17 4 -17 12 1 17 40 -68 51 -102 14z"/>
<path d="M2914 4484 c6 -17 -40 -100 -69 -124 -19 -15 -10 -30 17 -30 15 0 18
4 14 17 -9 22 9 31 47 24 23 -5 32 -12 32 -26 0 -11 9 -23 19 -28 23 -9 32 -2
19 15 -14 18 -35 111 -31 140 2 19 -2 24 -26 26 -24 3 -28 1 -22 -14z m26 -46
c0 -7 3 -23 6 -34 5 -19 2 -21 -20 -17 -30 6 -29 4 -14 38 12 26 28 34 28 13z"/>
<path d="M3476 4491 c-4 -5 -2 -12 3 -15 5 -4 12 -2 15 3 4 5 2 12 -3 15 -5 4
-12 2 -15 -3z"/>
<path d="M1820 4480 c0 -5 5 -10 10 -10 6 0 10 5 10 10 0 6 -4 10 -10 10 -5 0
-10 -4 -10 -10z"/>
<path d="M2281 4471 c-12 -8 -12 -12 2 -25 17 -18 33 -97 23 -121 -4 -11 1
-15 19 -15 14 0 25 5 25 10 0 6 -4 10 -9 10 -11 0 -33 113 -25 134 7 18 -12
22 -35 7z"/>
<path d="M1770 4461 c0 -6 5 -13 10 -16 6 -3 10 1 10 9 0 9 -4 16 -10 16 -5 0
-10 -4 -10 -9z"/>
<path d="M3080 4434 c0 -43 -20 -114 -32 -114 -16 0 -8 -18 11 -23 16 -4 19 1
19 27 0 34 19 92 28 84 3 -3 13 -34 23 -69 13 -48 23 -65 37 -67 16 -2 19 4
20 37 1 22 10 58 21 80 16 32 17 41 7 41 -21 0 -29 -4 -26 -13 4 -12 -20 -97
-27 -97 -4 0 -15 31 -24 69 -16 59 -30 81 -53 81 -2 0 -4 -16 -4 -36z"/>
<path d="M3530 4460 c0 -5 5 -10 10 -10 6 0 10 5 10 10 0 6 -4 10 -10 10 -5 0
-10 -4 -10 -10z"/>
<path d="M2203 4445 c4 -8 2 -17 -2 -19 -5 -3 -14 -26 -21 -50 l-12 -45 -42
46 c-25 28 -47 44 -54 39 -8 -5 -8 -13 -2 -24 21 -38 38 -120 27 -131 -14 -14
12 -15 33 -1 11 7 12 12 4 18 -13 8 -36 82 -26 82 4 0 20 -16 35 -35 37 -47
58 -47 50 0 -3 22 -2 35 5 35 16 0 27 -22 23 -47 -2 -17 3 -23 17 -23 27 0 34
11 19 29 -18 21 -41 106 -34 126 4 9 1 15 -9 15 -10 0 -14 -6 -11 -15z"/>
<path d="M3575 4440 c-3 -5 -1 -10 4 -10 6 0 11 5 11 10 0 6 -2 10 -4 10 -3 0
-8 -4 -11 -10z"/>
<path d="M3660 4390 c0 -5 5 -10 10 -10 6 0 10 5 10 10 0 6 -4 10 -10 10 -5 0
-10 -4 -10 -10z"/>
<path d="M1640 4380 c0 -5 5 -10 10 -10 6 0 10 5 10 10 0 6 -4 10 -10 10 -5 0
-10 -4 -10 -10z"/>
<path d="M3364 4364 c6 -15 -38 -114 -57 -125 -13 -9 0 -29 19 -29 8 0 14 9
14 19 0 11 5 23 10 26 18 11 40 -15 40 -46 0 -17 5 -29 13 -29 9 0 12 10 9 31
-3 23 1 34 17 45 21 15 28 58 13 80 -7 11 -65 44 -78 44 -3 0 -3 -7 0 -16z
m50 -30 c19 -7 21 -47 4 -62 -8 -6 -22 -6 -35 -1 -27 10 -27 10 -11 44 12 26
17 29 42 19z"/>
<path d="M1595 4361 c-3 -5 -1 -12 5 -16 5 -3 10 1 10 9 0 18 -6 21 -15 7z"/>
<path d="M3710 4360 c0 -5 5 -10 10 -10 6 0 10 5 10 10 0 6 -4 10 -10 10 -5 0
-10 -4 -10 -10z"/>
<path d="M1896 4341 c-27 -30 -24 -88 7 -118 40 -40 80 -36 126 15 l38 41 -21
21 c-12 11 -29 29 -38 40 -24 26 -88 27 -112 1z m102 -14 c24 -29 25 -67 1
-93 -26 -28 -46 -30 -76 -9 -52 36 -31 115 31 115 18 0 38 -6 44 -13z"/>
<path d="M3755 4339 c-10 -15 3 -25 16 -12 7 7 7 13 1 17 -6 3 -14 1 -17 -5z"/>
<path d="M1550 4330 c0 -5 5 -10 10 -10 6 0 10 5 10 10 0 6 -4 10 -10 10 -5 0
-10 -4 -10 -10z"/>
<path d="M3796 4311 c-4 -5 -2 -12 3 -15 5 -4 12 -2 15 3 4 5 2 12 -3 15 -5 4
-12 2 -15 -3z"/>
<path d="M1505 4300 c-3 -5 1 -10 10 -10 9 0 13 5 10 10 -3 6 -8 10 -10 10 -2
0 -7 -4 -10 -10z"/>
<path d="M3526 4286 c7 -17 -51 -112 -73 -121 -13 -4 -4 -13 36 -36 29 -17 56
-27 59 -23 4 4 1 9 -5 11 -7 3 -23 13 -35 23 -19 15 -21 22 -12 37 12 19 26
21 57 8 10 -4 17 -3 17 3 0 6 -9 14 -20 17 -23 7 -25 24 -7 49 13 18 15 18 41
1 14 -10 29 -15 32 -12 7 7 -66 57 -83 57 -7 0 -10 -6 -7 -14z"/>
<path d="M1466 4271 c-4 -5 -2 -12 3 -15 5 -4 12 -2 15 3 4 5 2 12 -3 15 -5 4
-12 2 -15 -3z"/>
<path d="M3840 4270 c0 -5 5 -10 10 -10 6 0 10 5 10 10 0 6 -4 10 -10 10 -5 0
-10 -4 -10 -10z"/>
<path d="M1711 4246 c-42 -22 -43 -24 -24 -34 27 -15 63 -76 63 -108 0 -30 0
-30 58 1 l48 25 -6 51 c-4 47 -8 54 -40 70 -43 23 -45 23 -99 -5z m99 -16 c27
-27 26 -71 -4 -99 l-24 -23 -15 24 c-9 12 -24 40 -33 61 -16 33 -16 39 -4 47
25 16 59 11 80 -10z"/>
<path d="M3880 4250 c0 -5 5 -10 11 -10 5 0 7 5 4 10 -3 6 -8 10 -11 10 -2 0
-4 -4 -4 -10z"/>
<path d="M3670 4205 c0 -19 -64 -111 -83 -119 -9 -3 -8 -7 3 -15 21 -15 27
-14 33 10 5 17 9 19 26 10 11 -6 34 -11 51 -11 64 0 66 86 2 123 -29 17 -32
17 -32 2z m55 -45 c17 -18 17 -21 1 -45 -18 -28 -28 -30 -57 -15 -23 13 -24
23 -3 55 20 30 35 31 59 5z"/>
<path d="M3920 4210 c0 -5 5 -10 10 -10 6 0 10 5 10 10 0 6 -4 10 -10 10 -5 0
-10 -4 -10 -10z"/>
<path d="M1380 4200 c0 -5 5 -10 10 -10 6 0 10 5 10 10 0 6 -4 10 -10 10 -5 0
-10 -4 -10 -10z"/>
<path d="M3960 4180 c0 -5 5 -10 10 -10 6 0 10 5 10 10 0 6 -4 10 -10 10 -5 0
-10 -4 -10 -10z"/>
<path d="M1340 4170 c0 -5 5 -10 10 -10 6 0 10 5 10 10 0 6 -4 10 -10 10 -5 0
-10 -4 -10 -10z"/>
<path d="M4000 4145 c0 -8 5 -15 10 -15 6 0 10 7 10 15 0 8 -4 15 -10 15 -5 0
-10 -7 -10 -15z"/>
<path d="M1300 4129 c0 -11 5 -17 10 -14 6 3 10 13 10 21 0 8 -4 14 -10 14 -5
0 -10 -9 -10 -21z"/>
<path d="M1270 4105 c0 -8 5 -15 10 -15 6 0 10 7 10 15 0 8 -4 15 -10 15 -5 0
-10 -7 -10 -15z"/>
<path d="M4040 4110 c0 -5 5 -10 10 -10 6 0 10 5 10 10 0 6 -4 10 -10 10 -5 0
-10 -4 -10 -10z"/>
<path d="M3810 4100 c0 -5 -16 -30 -35 -56 -45 -59 -45 -85 -1 -109 32 -17 36
-18 60 -2 14 10 35 31 48 47 12 17 28 30 35 30 19 0 16 13 -7 28 -17 11 -20
10 -20 -7 0 -28 -74 -91 -99 -84 -27 7 -33 29 -17 61 18 34 54 72 68 72 7 0 6
5 -2 15 -14 17 -30 20 -30 5z"/>
<path d="M4110 4041 c0 -6 5 -13 10 -16 6 -3 10 1 10 9 0 9 -4 16 -10 16 -5 0
-10 -4 -10 -9z"/>
<path d="M1196 4031 c-4 -5 -2 -12 3 -15 5 -4 12 -2 15 3 4 5 2 12 -3 15 -5 4
-12 2 -15 -3z"/>
<path d="M1391 3980 c-9 -26 -15 -30 -48 -30 l-38 -1 28 -23 c27 -21 28 -26
19 -60 -12 -42 -9 -43 25 -16 19 15 29 17 38 10 9 -8 15 -7 18 2 4 9 6 8 6 -3
1 -9 8 -19 16 -23 18 -6 18 -7 4 32 -10 29 -8 34 18 56 l28 25 -32 1 c-26 0
-36 6 -48 30 -9 17 -17 30 -19 30 -2 0 -9 -13 -15 -30z"/>
<path d="M4145 4000 c-3 -5 1 -10 9 -10 9 0 16 5 16 10 0 6 -4 10 -9 10 -6 0
-13 -4 -16 -10z"/>
<path d="M1160 3990 c0 -5 5 -10 10 -10 6 0 10 5 10 10 0 6 -4 10 -10 10 -5 0
-10 -4 -10 -10z"/>
<path d="M3960 3967 c0 -16 -82 -97 -98 -97 -18 0 -15 -7 19 -44 17 -19 42
-36 56 -39 21 -4 27 1 38 27 8 17 23 37 34 44 29 17 26 54 -5 91 -27 33 -44
40 -44 18z m45 -47 c22 -24 13 -53 -16 -48 -31 4 -46 32 -30 52 17 21 24 20
46 -4z m-51 -62 c11 -16 13 -25 4 -35 -15 -18 -32 -16 -53 7 -15 16 -15 22 -5
35 17 21 36 19 54 -7z"/>
<path d="M4185 3960 c-3 -5 -1 -10 4 -10 6 0 11 5 11 10 0 6 -2 10 -4 10 -3 0
-8 -4 -11 -10z"/>
<path d="M1125 3950 c-3 -5 1 -10 10 -10 9 0 13 5 10 10 -3 6 -8 10 -10 10 -2
0 -7 -4 -10 -10z"/>
<path d="M4215 3920 c3 -5 8 -10 11 -10 2 0 4 5 4 10 0 6 -5 10 -11 10 -5 0
-7 -4 -4 -10z"/>
<path d="M4240 3880 c0 -5 5 -10 10 -10 6 0 10 5 10 10 0 6 -4 10 -10 10 -5 0
-10 -4 -10 -10z"/>
<path d="M1060 3870 c0 -5 5 -10 11 -10 5 0 7 5 4 10 -3 6 -8 10 -11 10 -2 0
-4 -4 -4 -10z"/>
<path d="M4084 3835 c-3 -11 -30 -38 -59 -60 -30 -22 -54 -42 -54 -45 0 -15
59 -71 68 -66 17 11 13 22 -14 34 -14 6 -25 17 -25 24 1 14 87 82 105 83 12 1
8 26 -6 40 -6 6 -12 3 -15 -10z"/>
<path d="M4270 3840 c0 -5 7 -10 15 -10 8 0 15 5 15 10 0 6 -7 10 -15 10 -8 0
-15 -4 -15 -10z"/>
<path d="M1030 3826 c0 -9 5 -16 10 -16 6 0 10 4 10 9 0 6 -4 13 -10 16 -5 3
-10 -1 -10 -9z"/>
<path d="M4306 3801 c-4 -5 -2 -12 3 -15 5 -4 12 -2 15 3 4 5 2 12 -3 15 -5 4
-12 2 -15 -3z"/>
<path d="M995 3780 c-3 -5 1 -10 9 -10 9 0 16 5 16 10 0 6 -4 10 -9 10 -6 0
-13 -4 -16 -10z"/>
<path d="M4340 3749 c0 -5 5 -7 10 -4 6 3 10 8 10 11 0 2 -4 4 -10 4 -5 0 -10
-5 -10 -11z"/>
<path d="M970 3740 c0 -5 5 -10 10 -10 6 0 10 5 10 10 0 6 -4 10 -10 10 -5 0
-10 -4 -10 -10z"/>
<path d="M4174 3711 c7 -11 -94 -77 -111 -73 -17 4 -16 -9 0 -32 12 -16 15
-17 20 -3 7 19 91 77 111 77 19 0 21 11 4 28 -14 14 -32 16 -24 3z"/>
<path d="M4370 3710 c0 -5 5 -10 10 -10 6 0 10 5 10 10 0 6 -4 10 -10 10 -5 0
-10 -4 -10 -10z"/>
<path d="M940 3700 c0 -5 7 -10 16 -10 8 0 12 5 9 10 -3 6 -10 10 -16 10 -5 0
-9 -4 -9 -10z"/>
<path d="M4390 3660 c0 -5 5 -10 10 -10 6 0 10 5 10 10 0 6 -4 10 -10 10 -5 0
-10 -4 -10 -10z"/>
<path d="M920 3650 c0 -5 5 -10 10 -10 6 0 10 5 10 10 0 6 -4 10 -10 10 -5 0
-10 -4 -10 -10z"/>
<path d="M1070 3597 c-52 -84 56 -172 125 -102 14 13 25 34 25 47 -1 21 -2 21
-17 -7 -20 -38 -31 -45 -70 -45 -24 0 -37 7 -49 25 -20 31 -11 75 16 82 24 6
26 19 5 27 -10 4 -22 -5 -35 -27z"/>
<path d="M4420 3620 c0 -5 5 -10 10 -10 6 0 10 5 10 10 0 6 -4 10 -10 10 -5 0
-10 -4 -10 -10z"/>
<path d="M4174 3606 c-53 -23 -67 -91 -28 -131 26 -25 37 -17 15 11 -26 33
-26 55 -3 82 39 47 105 32 107 -24 2 -34 19 -35 23 -1 3 25 -29 61 -63 70 -11
3 -34 0 -51 -7z"/>
<path d="M4440 3570 c0 -5 5 -10 10 -10 6 0 10 5 10 10 0 6 -4 10 -10 10 -5 0
-10 -4 -10 -10z"/>
<path d="M870 3560 c0 -5 5 -10 10 -10 6 0 10 5 10 10 0 6 -4 10 -10 10 -5 0
-10 -4 -10 -10z"/>
<path d="M2028 3554 c-16 -8 -28 -19 -28 -23 0 -11 -59 -33 -70 -26 -5 3 -12
0 -15 -6 -10 -16 -97 -1 -159 26 -44 20 -58 22 -105 15 -29 -5 -58 -15 -65
-23 -6 -8 -25 -24 -43 -36 l-32 -21 17 -31 c11 -20 13 -33 6 -35 -11 -5 -4
-75 15 -134 14 -45 14 -90 -1 -90 -6 0 -8 -3 -5 -7 4 -3 -4 -21 -18 -39 l-25
-33 22 -21 c13 -12 35 -29 51 -38 20 -12 27 -24 27 -48 0 -25 -12 -42 -64 -92
-35 -34 -71 -62 -80 -62 -9 0 -16 -4 -16 -9 0 -4 10 -6 23 -4 29 5 71 -48 80
-100 6 -38 -8 -97 -23 -97 -5 0 -25 -16 -44 -36 -31 -32 -39 -36 -69 -30 -19
4 -44 3 -56 -2 -20 -7 -20 -9 19 -47 28 -27 40 -48 40 -67 0 -17 5 -28 13 -28
8 0 22 -10 33 -21 10 -12 34 -28 52 -36 36 -15 42 -44 17 -77 -10 -13 -15 -43
-15 -87 0 -66 1 -67 35 -87 22 -14 36 -31 40 -49 3 -15 11 -45 17 -66 9 -28 8
-41 0 -49 -23 -23 -12 -33 32 -30 44 4 45 3 82 -52 20 -31 40 -56 44 -56 12 0
38 45 46 76 8 33 35 76 75 119 37 40 118 164 125 192 3 12 1 38 -6 58 -7 20
-9 48 -5 62 5 22 10 25 37 19 18 -3 39 -13 48 -21 24 -22 35 -19 65 16 20 24
36 33 70 37 38 4 45 9 54 35 10 27 14 29 43 23 57 -11 88 -62 56 -94 -9 -9 -8
-16 5 -30 9 -10 17 -26 17 -36 0 -14 6 -16 38 -10 20 4 42 11 48 16 7 5 51 8
98 7 l87 -2 39 38 c22 22 40 46 40 55 0 22 24 41 87 69 44 20 60 23 116 17 37
-4 71 -14 78 -22 15 -19 35 -18 43 2 5 13 10 13 35 -5 16 -12 36 -21 44 -21 8
0 17 -7 21 -15 3 -8 13 -15 23 -15 15 0 16 2 3 10 -13 9 -12 12 4 25 11 8 31
15 45 16 14 1 44 3 66 5 22 2 49 0 60 -5 81 -35 116 -39 159 -20 49 23 121
-33 156 -119 12 -30 16 -33 48 -30 31 3 37 8 50 43 8 22 14 51 13 64 -1 20 2
22 22 16 12 -4 38 -8 57 -9 30 -1 36 3 38 23 2 14 21 52 43 86 21 34 39 69 39
78 0 9 -15 26 -32 38 -18 12 -37 27 -43 33 -5 7 -28 25 -50 41 -22 15 -65 54
-95 85 -59 61 -105 90 -143 90 -14 0 -30 7 -37 15 -16 19 -60 19 -86 0 -28
-22 -52 -18 -80 12 -16 18 -22 21 -18 9 6 -16 3 -18 -27 -14 -61 9 -134 33
-146 48 -9 11 -32 15 -95 15 l-83 0 2 44 c1 24 6 48 11 53 6 6 31 5 63 -2 30
-7 91 -14 136 -17 81 -5 83 -5 92 20 5 14 15 28 20 32 20 12 11 24 -16 22 -24
-2 -28 2 -25 21 4 30 -19 29 -49 -2 -16 -17 -28 -22 -39 -16 -8 5 -40 13 -70
18 -42 8 -60 7 -75 -2 -29 -19 -130 -30 -154 -16 -28 14 -81 108 -81 142 0 15
-4 29 -10 33 -5 3 -6 15 -1 28 17 45 -16 87 -69 87 -25 0 -43 -7 -56 -21 -15
-16 -27 -20 -59 -16 -81 10 -118 25 -164 71 -46 46 -73 56 -87 35 -10 -17
-108 -5 -139 17 -15 10 -36 24 -46 30 -10 6 -29 22 -42 36 -21 23 -29 25 -64
19 -33 -7 -42 -5 -52 11 -13 21 -18 22 -53 2z m147 -193 c3 -5 1 -12 -5 -16
-5 -3 -10 1 -10 9 0 18 6 21 15 7z m-345 -87 c0 -8 -4 -12 -10 -9 -5 3 -10 13
-10 21 0 8 5 12 10 9 6 -3 10 -13 10 -21z m348 -4 c-7 -10 -14 -18 -15 -16 -6
6 9 36 18 36 5 0 4 -9 -3 -20z m2 -40 c0 -5 -2 -10 -4 -10 -3 0 -8 5 -11 10
-3 6 -1 10 4 10 6 0 11 -4 11 -10z m385 0 c3 -5 1 -10 -4 -10 -6 0 -11 5 -11
10 0 6 2 10 4 10 3 0 8 -4 11 -10z m-718 -20 c-1 -11 -5 -20 -9 -20 -4 0 -8 9
-8 20 0 11 4 20 9 20 6 0 9 -9 8 -20z m293 -14 c0 -11 -19 -15 -25 -6 -3 5 1
10 9 10 9 0 16 -2 16 -4z m10 -38 c0 -17 -18 -44 -24 -37 -8 7 5 49 15 49 5 0
9 -6 9 -12z m527 -14 c-9 -9 -28 6 -21 18 4 6 10 6 17 -1 6 -6 8 -13 4 -17z
m-42 -4 c3 -5 1 -10 -4 -10 -6 0 -11 5 -11 10 0 6 2 10 4 10 3 0 8 -4 11 -10z
m-399 -67 c-11 -11 -19 6 -11 24 8 17 8 17 12 0 3 -10 2 -21 -1 -24z m151 -34
c9 -9 8 -18 -4 -35 -20 -32 -43 -31 -43 1 0 16 6 25 16 25 8 0 12 5 9 10 -8
14 8 13 22 -1z m-97 -7 c0 -4 -9 -13 -20 -20 -21 -13 -27 -51 -10 -68 6 -6 -2
-22 -23 -44 -18 -19 -32 -39 -33 -45 0 -5 -4 -18 -8 -27 -5 -11 1 -28 16 -50
43 -59 57 -113 20 -76 -9 9 -15 9 -24 0 -7 -7 -18 -12 -25 -12 -21 0 -15 21 7
27 11 3 20 10 20 15 0 5 -9 21 -20 35 -21 27 -26 58 -10 68 5 3 7 12 3 20 -3
8 1 15 8 15 7 0 10 3 6 6 -3 3 3 21 14 40 10 19 19 43 19 54 0 32 22 70 42 70
10 0 18 -3 18 -8z m20 -48 c0 -2 -7 -4 -15 -4 -8 0 -15 4 -15 10 0 5 7 7 15 4
8 -4 15 -8 15 -10z m71 -88 c-6 -7 -8 -16 -4 -19 3 -4 1 -7 -5 -7 -18 0 -24
19 -10 34 16 17 33 9 19 -8z m54 4 c3 -5 2 -10 -4 -10 -5 0 -13 5 -16 10 -3 6
-2 10 4 10 5 0 13 -4 16 -10z m355 -30 c0 -5 -4 -10 -10 -10 -5 0 -10 5 -10
10 0 6 5 10 10 10 6 0 10 -4 10 -10z m-970 -44 c0 -8 -4 -18 -10 -21 -5 -3
-10 3 -10 14 0 12 5 21 10 21 6 0 10 -6 10 -14z m480 -16 c0 -5 -5 -10 -11
-10 -5 0 -7 5 -4 10 3 6 8 10 11 10 2 0 4 -4 4 -10z m-476 -95 c3 -8 1 -15 -4
-15 -6 0 -10 7 -10 15 0 8 2 15 4 15 2 0 6 -7 10 -15z m140 -9 c-1 -9 4 -16
12 -16 8 0 14 5 14 10 0 6 5 10 11 10 5 0 8 -4 4 -9 -12 -20 14 -20 28 -1 17
24 47 17 47 -10 0 -15 -11 -20 -46 -26 -27 -4 -49 -3 -53 3 -3 6 -16 15 -28
22 -14 7 -20 17 -16 27 7 19 28 12 27 -10z m666 -6 c0 -5 -4 -10 -10 -10 -5 0
-10 5 -10 10 0 6 5 10 10 10 6 0 10 -4 10 -10z m-313 -26 c3 -8 0 -21 -7 -27
-10 -9 -11 -9 -8 3 3 8 -4 20 -16 27 -21 12 -21 12 2 13 12 0 25 -7 29 -16z
m128 -14 c3 -5 1 -10 -4 -10 -6 0 -11 5 -11 10 0 6 2 10 4 10 3 0 8 -4 11 -10z
m515 -10 c0 -5 -4 -10 -10 -10 -5 0 -10 5 -10 10 0 6 5 10 10 10 6 0 10 -4 10
-10z m-1084 -11 c8 -14 -18 -31 -30 -19 -9 9 0 30 14 30 5 0 12 -5 16 -11z
m444 -44 c0 -8 -4 -15 -10 -15 -5 0 -10 7 -10 15 0 8 5 15 10 15 6 0 10 -7 10
-15z m80 5 c0 -5 -2 -10 -4 -10 -3 0 -8 5 -11 10 -3 6 -1 10 4 10 6 0 11 -4
11 -10z m-530 -62 c0 -4 -9 -12 -20 -18 -16 -9 -22 -8 -26 5 -3 8 -4 22 0 30
5 13 9 13 26 3 11 -7 20 -16 20 -20z m-50 -78 c0 -5 -11 -10 -25 -10 -14 0
-25 5 -25 10 0 6 11 10 25 10 14 0 25 -4 25 -10z m-150 -16 c0 -8 -4 -12 -10
-9 -5 3 -10 10 -10 16 0 5 5 9 10 9 6 0 10 -7 10 -16z m236 -28 c19 -20 18
-26 -5 -26 -22 0 -35 15 -26 30 8 13 14 13 31 -4z"/>
<path d="M4460 3530 c0 -5 5 -10 10 -10 6 0 10 5 10 10 0 6 -4 10 -10 10 -5 0
-10 -4 -10 -10z"/>
<path d="M845 3519 c-10 -15 3 -25 16 -12 7 7 7 13 1 17 -6 3 -14 1 -17 -5z"/>
<path d="M4480 3480 c0 -5 4 -10 9 -10 6 0 13 5 16 10 3 6 -1 10 -9 10 -9 0
-16 -4 -16 -10z"/>
<path d="M990 3460 c-14 -27 -13 -30 15 -30 33 0 115 -41 115 -57 0 -18 17
-16 24 3 10 25 7 37 -7 31 -18 -7 -89 25 -116 52 -20 20 -21 20 -31 1z"/>
<path d="M820 3460 c0 -5 5 -10 10 -10 6 0 10 5 10 10 0 6 -4 10 -10 10 -5 0
-10 -4 -10 -10z"/>
<path d="M4510 3430 c0 -5 5 -10 10 -10 6 0 10 5 10 10 0 6 -4 10 -10 10 -5 0
-10 -4 -10 -10z"/>
<path d="M4530 3384 c0 -8 5 -12 10 -9 6 4 8 11 5 16 -9 14 -15 11 -15 -7z"/>
<path d="M780 3370 c0 -5 5 -10 10 -10 6 0 10 5 10 10 0 6 -4 10 -10 10 -5 0
-10 -4 -10 -10z"/>
<path d="M4546 3341 c-4 -5 -2 -12 3 -15 5 -4 12 -2 15 3 4 5 2 12 -3 15 -5 4
-12 2 -15 -3z"/>
<path d="M766 3331 c-4 -5 -2 -12 3 -15 5 -4 12 -2 15 3 4 5 2 12 -3 15 -5 4
-12 2 -15 -3z"/>
<path d="M931 3322 c-15 -29 -14 -32 12 -32 12 0 48 -11 80 -24 l59 -24 18 41
c18 40 18 57 -1 57 -5 0 -9 -10 -9 -22 0 -48 -13 -53 -74 -28 -31 12 -60 29
-65 38 -7 13 -10 12 -20 -6z"/>
<path d="M4565 3290 c-3 -5 -1 -10 4 -10 6 0 11 5 11 10 0 6 -2 10 -4 10 -3 0
-8 -4 -11 -10z"/>
<path d="M750 3269 c0 -5 5 -7 10 -4 6 3 10 8 10 11 0 2 -4 4 -10 4 -5 0 -10
-5 -10 -11z"/>
<path d="M4580 3234 c0 -8 5 -12 10 -9 6 4 8 11 5 16 -9 14 -15 11 -15 -7z"/>
<path d="M913 3222 c-13 -8 -43 -73 -43 -93 0 -6 6 -9 14 -6 19 8 126 -27 136
-44 11 -17 13 -14 28 44 16 64 5 84 -50 89 -24 3 -50 8 -58 11 -8 4 -20 3 -27
-1z m42 -47 c0 -25 -4 -30 -25 -30 -28 0 -39 27 -19 51 20 24 44 13 44 -21z
m79 0 c6 -16 -9 -65 -19 -65 -19 0 -44 22 -40 35 3 8 7 22 10 30 6 19 41 19
49 0z"/>
<path d="M4377 3187 c-15 -35 -18 -37 -58 -34 l-42 4 33 -27 c29 -23 32 -31
27 -59 -7 -34 -5 -36 24 -20 16 8 18 13 8 25 -9 11 -7 14 10 14 12 0 19 -4 16
-10 -3 -6 2 -13 12 -17 10 -4 23 -14 30 -22 16 -21 17 2 2 31 -9 17 -6 25 16
48 l27 29 -32 3 c-28 2 -35 9 -45 38 l-12 35 -16 -38z"/>
<path d="M4590 3185 c0 -8 5 -15 10 -15 6 0 10 7 10 15 0 8 -4 15 -10 15 -5 0
-10 -7 -10 -15z"/>
<path d="M1467 3179 c7 -7 15 -10 18 -7 3 3 -2 9 -12 12 -14 6 -15 5 -6 -5z"/>
<path d="M720 3170 c0 -5 5 -10 10 -10 6 0 10 5 10 10 0 6 -4 10 -10 10 -5 0
-10 -4 -10 -10z"/>
<path d="M4606 3141 c-4 -5 -2 -12 3 -15 5 -4 12 -2 15 3 4 5 2 12 -3 15 -5 4
-12 2 -15 -3z"/>
<path d="M710 3120 c0 -5 5 -10 10 -10 6 0 10 5 10 10 0 6 -4 10 -10 10 -5 0
-10 -4 -10 -10z"/>
<path d="M4615 3090 c-3 -5 -1 -10 4 -10 6 0 11 5 11 10 0 6 -2 10 -4 10 -3 0
-8 -4 -11 -10z"/>
<path d="M850 3048 c0 -21 6 -23 51 -25 75 -3 110 -40 72 -78 -13 -13 -26 -15
-62 -10 -25 4 -50 11 -56 16 -15 15 -25 10 -25 -12 0 -15 5 -19 15 -15 8 3 39
0 69 -5 47 -10 56 -9 75 7 26 23 27 65 1 89 -10 9 -41 21 -67 26 -26 5 -49 14
-51 19 -7 19 -22 10 -22 -12z"/>
<path d="M4620 3040 c0 -5 7 -10 16 -10 8 0 12 5 9 10 -3 6 -10 10 -16 10 -5
0 -9 -4 -9 -10z"/>
<path d="M680 3020 c0 -5 7 -10 15 -10 8 0 15 5 15 10 0 6 -7 10 -15 10 -8 0
-15 -4 -15 -10z"/>
<path d="M4635 2990 c-3 -5 1 -10 10 -10 9 0 13 5 10 10 -3 6 -8 10 -10 10 -2
0 -7 -4 -10 -10z"/>
<path d="M675 2970 c-3 -5 1 -10 10 -10 9 0 13 5 10 10 -3 6 -8 10 -10 10 -2
0 -7 -4 -10 -10z"/>
<path d="M4645 2930 c3 -5 8 -10 11 -10 2 0 4 5 4 10 0 6 -5 10 -11 10 -5 0
-7 -4 -4 -10z"/>
<path d="M4650 2880 c0 -5 5 -10 10 -10 6 0 10 5 10 10 0 6 -4 10 -10 10 -5 0
-10 -4 -10 -10z"/>
<path d="M660 2870 c0 -5 5 -10 10 -10 6 0 10 5 10 10 0 6 -4 10 -10 10 -5 0
-10 -4 -10 -10z"/>
<path d="M826 2838 c-9 -12 -16 -38 -16 -58 l0 -35 66 3 c39 2 71 -1 77 -7 18
-18 27 -13 27 15 0 22 -2 24 -15 14 -20 -17 -35 -4 -35 30 0 16 -7 36 -16 44
-23 24 -70 20 -88 -6z m84 -19 c18 -32 5 -49 -35 -49 -22 0 -38 6 -41 14 -9
24 15 56 41 56 14 0 29 -8 35 -21z"/>
<path d="M4650 2830 c0 -5 4 -10 9 -10 6 0 13 5 16 10 3 6 -1 10 -9 10 -9 0
-16 -4 -16 -10z"/>
<path d="M660 2820 c0 -5 5 -10 10 -10 6 0 10 5 10 10 0 6 -4 10 -10 10 -5 0
-10 -4 -10 -10z"/>
<path d="M4660 2780 c0 -5 5 -10 10 -10 6 0 10 5 10 10 0 6 -4 10 -10 10 -5 0
-10 -4 -10 -10z"/>
<path d="M656 2771 c-4 -5 -2 -12 3 -15 5 -4 12 -2 15 3 4 5 2 12 -3 15 -5 4
-12 2 -15 -3z"/>
<path d="M4665 2731 c-3 -5 -1 -12 5 -16 5 -3 10 1 10 9 0 18 -6 21 -15 7z"/>
<path d="M656 2721 c-4 -7 -5 -15 -2 -18 9 -9 19 4 14 18 -4 11 -6 11 -12 0z"/>
<path d="M4359 2713 c-6 -92 43 -145 111 -122 36 13 60 54 60 104 0 30 -3 35
-17 31 -28 -9 -106 -10 -130 -2 -18 6 -23 3 -24 -11z m146 -24 c25 -39 -43
-99 -89 -78 -25 12 -51 63 -40 80 7 13 121 11 129 -2z"/>
<path d="M808 2680 c-4 -14 -5 -41 -2 -60 l6 -35 84 0 84 0 0 58 c0 36 -4 56
-10 52 -5 -3 -10 -24 -10 -46 0 -38 -2 -40 -27 -37 -24 3 -29 9 -32 38 l-4 35
-6 -35 c-5 -31 -9 -35 -36 -35 -28 0 -30 3 -35 45 -4 38 -6 41 -12 20z"/>
<path d="M4666 2681 c-4 -7 -5 -15 -2 -18 9 -9 19 4 14 18 -4 11 -6 11 -12 0z"/>
<path d="M650 2660 c0 -5 5 -10 10 -10 6 0 10 5 10 10 0 6 -4 10 -10 10 -5 0
-10 -4 -10 -10z"/>
<path d="M4665 2630 c-3 -5 -1 -10 4 -10 6 0 11 5 11 10 0 6 -2 10 -4 10 -3 0
-8 -4 -11 -10z"/>
<path d="M652 2611 c4 -13 18 -16 19 -4 0 4 -5 9 -11 12 -7 2 -11 -2 -8 -8z"/>
<path d="M4665 2570 c3 -5 8 -10 11 -10 2 0 4 5 4 10 0 6 -5 10 -11 10 -5 0
-7 -4 -4 -10z"/>
<path d="M656 2561 c-4 -7 -5 -15 -2 -18 9 -9 19 4 14 18 -4 11 -6 11 -12 0z"/>
<path d="M960 2530 c0 -17 -41 -33 -53 -21 -16 16 -53 13 -71 -5 -10 -9 -16
-33 -16 -60 0 -43 1 -45 23 -37 12 4 50 8 85 8 59 0 62 1 62 24 0 20 -2 21
-15 11 -18 -15 -45 -6 -45 14 0 9 11 23 25 32 25 16 34 44 15 44 -5 0 -10 -4
-10 -10z m-50 -56 c13 -34 6 -44 -36 -44 -31 0 -34 3 -34 28 0 35 6 42 37 42
16 0 27 -8 33 -26z"/>
<path d="M4372 2517 c-32 -34 -30 -89 4 -116 60 -47 139 -9 137 66 -2 68 -94
100 -141 50z m101 -9 c9 -7 19 -25 22 -40 13 -52 -62 -89 -110 -54 -21 15 -25
67 -5 90 15 19 70 21 93 4z"/>
<path d="M4663 2508 c4 -12 1 -28 -5 -35 -13 -16 9 -18 32 -3 13 9 13 12 -1
23 -9 6 -14 18 -12 25 3 6 -1 12 -7 12 -8 0 -10 -8 -7 -22z"/>
<path d="M660 2506 c0 -9 5 -16 10 -16 6 0 10 4 10 9 0 6 -4 13 -10 16 -5 3
-10 -1 -10 -9z"/>
<path d="M4718 2503 c7 -3 16 -2 19 1 4 3 -2 6 -13 5 -11 0 -14 -3 -6 -6z"/>
<path d="M660 2450 c0 -5 5 -10 10 -10 6 0 10 5 10 10 0 6 -4 10 -10 10 -5 0
-10 -4 -10 -10z"/>
<path d="M670 2399 c0 -5 5 -7 10 -4 6 3 10 8 10 11 0 2 -4 4 -10 4 -5 0 -10
-5 -10 -11z"/>
<path d="M4640 2371 c0 -6 5 -13 10 -16 6 -3 10 1 10 9 0 9 -4 16 -10 16 -5 0
-10 -4 -10 -9z"/>
<path d="M675 2350 c4 -6 11 -8 16 -5 14 9 11 15 -7 15 -8 0 -12 -5 -9 -10z"/>
<path d="M4326 2334 c-10 -26 -7 -36 10 -30 21 8 84 -3 84 -15 0 -5 -12 -11
-27 -15 -66 -14 -68 -18 -24 -48 23 -16 41 -31 41 -33 0 -11 -86 10 -96 23
-13 16 -24 8 -24 -16 0 -13 12 -18 56 -23 30 -3 66 -13 79 -21 31 -21 35 -20
35 4 0 12 -16 31 -40 48 -21 15 -38 31 -36 37 1 5 25 14 52 20 35 7 50 15 52
29 3 13 0 17 -10 13 -17 -6 -115 18 -133 33 -9 8 -14 6 -19 -6z"/>
<path d="M4630 2310 c0 -5 5 -10 10 -10 6 0 10 5 10 10 0 6 -4 10 -10 10 -5 0
-10 -4 -10 -10z"/>
<path d="M680 2300 c0 -5 5 -10 10 -10 6 0 10 5 10 10 0 6 -4 10 -10 10 -5 0
-10 -4 -10 -10z"/>
<path d="M997 2286 c-7 -17 -106 -40 -130 -30 -19 7 -23 -12 -8 -35 8 -12 11
-12 25 1 14 14 83 34 91 26 2 -2 -18 -27 -46 -55 -33 -34 -47 -56 -43 -67 4
-11 10 -13 18 -7 18 14 117 40 132 34 9 -3 14 2 14 14 0 27 -11 35 -24 19 -12
-14 -96 -38 -96 -27 0 4 20 27 45 51 27 27 45 53 45 67 0 25 -15 31 -23 9z"/>
<path d="M4620 2260 c0 -5 5 -10 10 -10 6 0 10 5 10 10 0 6 -4 10 -10 10 -5 0
-10 -4 -10 -10z"/>
<path d="M690 2250 c0 -5 5 -10 10 -10 6 0 10 5 10 10 0 6 -4 10 -10 10 -5 0
-10 -4 -10 -10z"/>
<path d="M3670 2232 c0 -4 7 -17 15 -29 13 -18 24 -22 70 -20 30 1 55 5 55 9
0 12 -24 22 -58 25 -18 1 -41 7 -52 13 -22 12 -30 13 -30 2z"/>
<path d="M4610 2210 c0 -5 7 -10 16 -10 8 0 12 5 9 10 -3 6 -10 10 -16 10 -5
0 -9 -4 -9 -10z"/>
<path d="M706 2201 c-4 -5 -2 -12 3 -15 5 -4 12 -2 15 3 4 5 2 12 -3 15 -5 4
-12 2 -15 -3z"/>
<path d="M4600 2165 c0 -8 5 -15 10 -15 6 0 10 7 10 15 0 8 -4 15 -10 15 -5 0
-10 -7 -10 -15z"/>
<path d="M720 2150 c0 -5 5 -10 11 -10 5 0 7 5 4 10 -3 6 -8 10 -11 10 -2 0
-4 -4 -4 -10z"/>
<path d="M4270 2131 c0 -5 -3 -17 -7 -27 -5 -14 -3 -16 11 -11 20 8 136 -22
136 -35 0 -5 5 -6 10 -3 16 10 12 38 -4 32 -17 -7 -120 29 -124 43 -5 13 -22
13 -22 1z"/>
<path d="M4590 2110 c0 -5 5 -10 10 -10 6 0 10 5 10 10 0 6 -4 10 -10 10 -5 0
-10 -4 -10 -10z"/>
<path d="M1010 2053 c-30 -29 -61 -53 -67 -53 -7 0 -13 -6 -13 -13 0 -18 29
-56 30 -39 0 10 20 13 83 11 65 -1 81 1 79 12 -5 20 -22 36 -22 21 0 -26 -31
-10 -45 24 -16 38 -13 54 11 54 15 0 18 9 6 26 -4 7 -27 -9 -62 -43z m29 -42
c12 -22 5 -31 -24 -31 -31 0 -37 11 -18 32 20 23 30 23 42 -1z"/>
<path d="M735 2090 c3 -5 8 -10 11 -10 2 0 4 5 4 10 0 6 -5 10 -11 10 -5 0 -7
-4 -4 -10z"/>
<path d="M4575 2060 c3 -5 8 -10 11 -10 2 0 4 5 4 10 0 6 -5 10 -11 10 -5 0
-7 -4 -4 -10z"/>
<path d="M750 2050 c0 -5 5 -10 11 -10 5 0 7 5 4 10 -3 6 -8 10 -11 10 -2 0
-4 -4 -4 -10z"/>
<path d="M4247 2053 c-13 -12 -8 -43 6 -37 14 5 82 -20 91 -35 3 -5 -26 -13
-66 -19 -77 -12 -107 -33 -60 -43 40 -8 106 -41 116 -57 7 -12 10 -12 17 -1
14 22 10 39 -7 39 -26 0 -94 22 -94 31 0 4 19 10 43 14 100 15 105 17 110 37
4 14 2 18 -9 14 -15 -6 -124 38 -134 55 -4 5 -9 6 -13 2z"/>
<path d="M4560 2009 c0 -5 5 -7 10 -4 6 3 10 8 10 11 0 2 -4 4 -10 4 -5 0 -10
-5 -10 -11z"/>
<path d="M765 2000 c-3 -5 -1 -10 4 -10 6 0 11 5 11 10 0 6 -2 10 -4 10 -3 0
-8 -4 -11 -10z"/>
<path d="M4540 1960 c0 -5 5 -10 10 -10 6 0 10 5 10 10 0 6 -4 10 -10 10 -5 0
-10 -4 -10 -10z"/>
<path d="M780 1950 c0 -5 5 -10 10 -10 6 0 10 5 10 10 0 6 -4 10 -10 10 -5 0
-10 -4 -10 -10z"/>
<path d="M4525 1910 c3 -5 8 -10 11 -10 2 0 4 5 4 10 0 6 -5 10 -11 10 -5 0
-7 -4 -4 -10z"/>
<path d="M800 1900 c0 -5 5 -10 10 -10 6 0 10 5 10 10 0 6 -4 10 -10 10 -5 0
-10 -4 -10 -10z"/>
<path d="M1130 1905 c0 -3 7 -17 16 -30 14 -21 14 -30 4 -55 -13 -31 -37 -50
-62 -50 -26 0 -60 41 -55 66 3 16 0 24 -9 24 -9 0 -14 -11 -14 -29 0 -31 47
-81 76 -81 60 0 108 74 82 126 -12 25 -38 45 -38 29z"/>
<path d="M4161 1872 c-14 -27 -14 -35 2 -29 16 6 124 -48 129 -65 3 -8 9 -5
17 10 10 19 9 22 -7 22 -25 0 -109 47 -121 67 -7 14 -10 13 -20 -5z"/>
<path d="M4500 1870 c0 -5 5 -10 10 -10 6 0 10 5 10 10 0 6 -4 10 -10 10 -5 0
-10 -4 -10 -10z"/>
<path d="M820 1854 c0 -8 5 -12 10 -9 6 4 8 11 5 16 -9 14 -15 11 -15 -7z"/>
<path d="M4480 1820 c0 -5 5 -10 10 -10 6 0 10 5 10 10 0 6 -4 10 -10 10 -5 0
-10 -4 -10 -10z"/>
<path d="M840 1810 c0 -5 5 -10 10 -10 6 0 10 5 10 10 0 6 -4 10 -10 10 -5 0
-10 -4 -10 -10z"/>
<path d="M1680 1770 c0 -13 5 -20 13 -17 6 2 12 10 12 17 0 7 -6 15 -12 18 -8
2 -13 -5 -13 -18z"/>
<path d="M4108 1760 c-14 -11 -28 -29 -31 -40 -7 -28 8 -25 21 5 21 46 103 45
124 -1 10 -21 9 -31 -3 -52 -9 -15 -21 -26 -27 -24 -15 3 -16 -15 -1 -23 21
-14 49 26 49 71 0 34 -5 47 -26 63 -34 26 -74 27 -106 1z"/>
<path d="M4460 1770 c0 -5 5 -10 10 -10 6 0 10 5 10 10 0 6 -4 10 -10 10 -5 0
-10 -4 -10 -10z"/>
<path d="M865 1760 c-3 -5 -1 -10 4 -10 6 0 11 5 11 10 0 6 -2 10 -4 10 -3 0
-8 -4 -11 -10z"/>
<path d="M1215 1759 c-3 -8 -32 -28 -65 -45 -35 -17 -59 -35 -57 -43 3 -19 27
-27 27 -9 0 14 68 57 107 67 22 6 22 8 9 26 -12 17 -15 18 -21 4z"/>
<path d="M4430 1730 c0 -5 7 -10 15 -10 8 0 15 5 15 10 0 6 -7 10 -15 10 -8 0
-15 -4 -15 -10z"/>
<path d="M890 1709 c0 -5 5 -7 10 -4 6 3 10 8 10 11 0 2 -4 4 -10 4 -5 0 -10
-5 -10 -11z"/>
<path d="M1253 1681 c-16 -25 -98 -82 -107 -74 -3 4 -6 -1 -6 -10 0 -29 17
-27 56 8 21 19 42 35 46 35 15 0 8 -30 -17 -79 -20 -41 -22 -51 -11 -66 11
-16 13 -15 28 7 21 31 94 82 107 73 6 -3 11 -3 11 2 -1 11 -26 43 -34 43 -3 0
-6 -8 -6 -17 -1 -18 -68 -68 -78 -59 -3 3 7 32 22 65 14 32 23 66 20 75 -8 21
-17 20 -31 -3z"/>
<path d="M4416 1691 c-4 -7 -5 -15 -2 -18 9 -9 19 4 14 18 -4 11 -6 11 -12 0z"/>
<path d="M915 1670 c-3 -5 -1 -10 4 -10 6 0 11 5 11 10 0 6 -2 10 -4 10 -3 0
-8 -4 -11 -10z"/>
<path d="M4029 1654 c-10 -12 -8 -17 6 -28 18 -13 18 -15 1 -40 -22 -34 -42
-42 -62 -25 -13 10 -17 10 -25 -2 -12 -19 -11 -32 1 -24 14 9 123 -25 137 -43
11 -14 15 -14 33 3 23 21 26 35 7 35 -8 0 -30 31 -50 69 -30 59 -37 68 -48 55z
m53 -103 c8 -22 6 -23 -19 -16 -36 9 -38 12 -23 30 17 20 31 15 42 -14z"/>
<path d="M4390 1640 c0 -5 5 -10 11 -10 5 0 7 5 4 10 -3 6 -8 10 -11 10 -2 0
-4 -4 -4 -10z"/>
<path d="M940 1620 c0 -5 5 -10 10 -10 6 0 10 5 10 10 0 6 -4 10 -10 10 -5 0
-10 -4 -10 -10z"/>
<path d="M4360 1590 c0 -5 5 -10 10 -10 6 0 10 5 10 10 0 6 -4 10 -10 10 -5 0
-10 -4 -10 -10z"/>
<path d="M965 1580 c-3 -5 1 -10 10 -10 9 0 13 5 10 10 -3 6 -8 10 -10 10 -2
0 -7 -4 -10 -10z"/>
<path d="M4330 1550 c0 -5 5 -10 10 -10 6 0 10 5 10 10 0 6 -4 10 -10 10 -5 0
-10 -4 -10 -10z"/>
<path d="M990 1540 c0 -5 5 -10 10 -10 6 0 10 5 10 10 0 6 -4 10 -10 10 -5 0
-10 -4 -10 -10z"/>
<path d="M1380 1536 c0 -13 -87 -91 -101 -91 -16 0 -19 -13 -5 -24 12 -10 23
-3 61 38 26 28 56 51 67 51 16 0 17 3 8 20 -12 23 -30 27 -30 6z"/>
<path d="M4300 1510 c0 -5 5 -10 10 -10 6 0 10 5 10 10 0 6 -4 10 -10 10 -5 0
-10 -4 -10 -10z"/>
<path d="M1025 1501 c-3 -5 -1 -12 5 -16 5 -3 10 1 10 9 0 18 -6 21 -15 7z"/>
<path d="M3890 1490 c-8 -15 -8 -20 3 -20 7 0 28 -16 47 -35 38 -40 31 -43
-50 -24 -48 11 -95 5 -84 -12 3 -6 9 -8 12 -4 9 9 92 -78 92 -97 0 -21 11 -23
28 -6 14 14 16 42 2 33 -9 -6 -83 65 -76 72 2 2 32 -4 68 -14 63 -16 98 -14
98 7 0 5 -6 10 -13 10 -22 0 -97 70 -97 91 0 25 -16 24 -30 -1z"/>
<path d="M1439 1484 c-1 -5 -1 -12 0 -16 1 -12 -92 -98 -100 -92 -5 3 -9 -1
-9 -9 0 -25 24 -26 73 -5 26 12 50 18 54 15 3 -4 -2 -27 -12 -52 -17 -45 -15
-75 5 -75 5 0 10 5 10 12 0 17 81 98 99 98 11 0 10 4 -4 20 -18 20 -18 20 -33
-9 -7 -16 -23 -38 -34 -48 -21 -18 -21 -18 -15 7 3 14 10 39 15 57 l10 32 -51
-19 c-29 -11 -54 -20 -56 -20 -3 0 10 16 29 35 18 19 37 32 41 29 18 -11 17
15 -1 31 -11 10 -21 14 -21 9z"/>
<path d="M4270 1460 c0 -5 5 -10 10 -10 6 0 10 5 10 10 0 6 -4 10 -10 10 -5 0
-10 -4 -10 -10z"/>
<path d="M1050 1450 c0 -5 5 -10 10 -10 6 0 10 5 10 10 0 6 -4 10 -10 10 -5 0
-10 -4 -10 -10z"/>
<path d="M4240 1420 c0 -5 5 -10 10 -10 6 0 10 5 10 10 0 6 -4 10 -10 10 -5 0
-10 -4 -10 -10z"/>
<path d="M4210 1380 c0 -5 5 -10 10 -10 6 0 10 5 10 10 0 6 -4 10 -10 10 -5 0
-10 -4 -10 -10z"/>
<path d="M1120 1370 c0 -5 5 -10 10 -10 6 0 10 5 10 10 0 6 -4 10 -10 10 -5 0
-10 -4 -10 -10z"/>
<path d="M4176 1351 c-4 -5 -2 -12 3 -15 5 -4 12 -2 15 3 4 5 2 12 -3 15 -5 4
-12 2 -15 -3z"/>
<path d="M1150 1324 c0 -8 5 -12 10 -9 6 3 10 10 10 16 0 5 -4 9 -10 9 -5 0
-10 -7 -10 -16z"/>
<path d="M3691 1311 c-12 -8 -11 -13 8 -28 21 -17 22 -20 7 -32 -13 -11 -22
-11 -42 -2 -14 6 -31 11 -39 11 -27 0 -16 -16 18 -26 18 -5 31 -15 29 -23 -5
-25 10 -52 35 -62 19 -7 33 -4 64 13 39 22 50 38 26 38 -17 0 -77 82 -77 104
0 18 -8 20 -29 7z m63 -96 c20 -31 20 -32 -3 -45 -38 -20 -71 13 -51 51 14 26
34 24 54 -6z"/>
<path d="M1574 1295 c-12 -8 -27 -27 -33 -44 -24 -56 34 -120 94 -105 60 15
83 107 36 145 -28 23 -69 24 -97 4z m84 -21 c57 -40 -16 -145 -74 -106 -13 8
-34 46 -34 60 0 5 9 21 21 36 23 29 54 33 87 10z"/>
<path d="M4140 1300 c0 -5 5 -10 10 -10 6 0 10 5 10 10 0 6 -4 10 -10 10 -5 0
-10 -4 -10 -10z"/>
<path d="M1190 1290 c0 -5 5 -10 10 -10 6 0 10 5 10 10 0 6 -4 10 -10 10 -5 0
-10 -4 -10 -10z"/>
<path d="M4105 1260 c3 -5 8 -10 11 -10 2 0 4 5 4 10 0 6 -5 10 -11 10 -5 0
-7 -4 -4 -10z"/>
<path d="M1225 1250 c3 -5 8 -10 11 -10 2 0 4 5 4 10 0 6 -5 10 -11 10 -5 0
-7 -4 -4 -10z"/>
<path d="M4070 1230 c0 -5 5 -10 10 -10 6 0 10 5 10 10 0 6 -4 10 -10 10 -5 0
-10 -4 -10 -10z"/>
<path d="M1260 1220 c0 -5 5 -10 10 -10 6 0 10 5 10 10 0 6 -4 10 -10 10 -5 0
-10 -4 -10 -10z"/>
<path d="M3523 1204 c-54 -33 -56 -51 -3 -24 l40 21 12 -27 c11 -22 10 -28 -6
-40 -11 -7 -24 -15 -30 -17 -6 -2 -8 -7 -4 -11 3 -4 18 0 33 10 25 16 26 16
40 -2 20 -27 19 -33 -15 -52 -27 -15 -39 -32 -24 -32 15 0 96 54 86 58 -15 5
-72 105 -72 126 0 21 -7 20 -57 -10z"/>
<path d="M1296 1191 c-4 -5 -2 -12 3 -15 5 -4 12 -2 15 3 4 5 2 12 -3 15 -5 4
-12 2 -15 -3z"/>
<path d="M1739 1171 c-47 -47 -32 -113 32 -147 36 -18 38 -18 36 4 -1 24 54
112 71 112 23 0 12 16 -27 38 -52 29 -77 28 -112 -7z m94 -3 c15 -12 13 -18
-16 -65 -35 -58 -48 -64 -71 -31 -22 31 -20 58 6 85 24 25 55 30 81 11z"/>
<path d="M4030 1190 c0 -5 5 -10 10 -10 6 0 10 5 10 10 0 6 -4 10 -10 10 -5 0
-10 -4 -10 -10z"/>
<path d="M3995 1160 c-3 -5 -1 -10 4 -10 6 0 11 5 11 10 0 6 -2 10 -4 10 -3 0
-8 -4 -11 -10z"/>
<path d="M1330 1150 c0 -5 5 -10 10 -10 6 0 10 5 10 10 0 6 -4 10 -10 10 -5 0
-10 -4 -10 -10z"/>
<path d="M3425 1145 c-14 -11 -16 -18 -7 -21 20 -9 14 -30 -13 -48 -30 -20
-34 -65 -7 -89 23 -21 39 -21 88 -1 33 14 36 18 23 28 -22 15 -51 74 -58 114
-6 31 -7 32 -26 17z m35 -95 c17 -41 7 -62 -27 -58 -22 2 -29 9 -31 29 -3 25
19 59 38 59 4 0 13 -13 20 -30z"/>
<path d="M3950 1120 c0 -5 5 -10 10 -10 6 0 10 5 10 10 0 6 -4 10 -10 10 -5 0
-10 -4 -10 -10z"/>
<path d="M1375 1110 c4 -6 11 -8 16 -5 14 9 11 15 -7 15 -8 0 -12 -5 -9 -10z"/>
<path d="M3910 1090 c0 -5 5 -10 10 -10 6 0 10 5 10 10 0 6 -4 10 -10 10 -5 0
-10 -4 -10 -10z"/>
<path d="M3209 1049 c-22 -22 -22 -34 3 -119 10 -34 17 -45 31 -42 17 4 24 22
8 22 -5 0 -16 18 -25 41 -22 55 -8 98 32 99 16 0 66 -105 57 -120 -4 -6 5 -10
19 -10 28 0 35 14 12 23 -8 3 -19 23 -26 44 -27 84 -67 106 -111 62z"/>
<path d="M3870 1060 c0 -5 5 -10 10 -10 6 0 10 5 10 10 0 6 -4 10 -10 10 -5 0
-10 -4 -10 -10z"/>
<path d="M1450 1050 c0 -5 7 -10 15 -10 8 0 15 5 15 10 0 6 -7 10 -15 10 -8 0
-15 -4 -15 -10z"/>
<path d="M3830 1030 c0 -5 5 -10 10 -10 6 0 10 5 10 10 0 6 -4 10 -10 10 -5 0
-10 -4 -10 -10z"/>
<path d="M1500 1020 c0 -5 5 -10 10 -10 6 0 10 5 10 10 0 6 -4 10 -10 10 -5 0
-10 -4 -10 -10z"/>
<path d="M2192 1002 c-10 -28 -16 -32 -46 -32 -43 0 -44 -4 -11 -33 22 -19 24
-26 16 -55 l-10 -33 35 22 c31 19 37 20 52 7 36 -31 41 -30 31 4 -8 29 -6 36
16 55 33 29 32 33 -10 33 -22 0 -35 5 -35 13 0 7 -6 21 -13 32 -13 17 -15 16
-25 -13z"/>
<path d="M3070 1018 c-19 -5 -41 -14 -47 -20 -18 -14 -16 -53 2 -68 8 -7 15
-23 15 -35 0 -34 24 -48 71 -42 45 6 59 14 42 25 -15 10 -44 126 -32 130 10 4
2 23 -9 21 -4 0 -23 -5 -42 -11z m30 -48 c0 -16 -4 -30 -9 -30 -5 0 -16 -3
-24 -6 -8 -3 -22 2 -31 12 -16 15 -16 18 0 35 9 11 28 19 41 19 19 0 23 -5 23
-30z m18 -76 c2 -15 -4 -23 -19 -27 -25 -7 -49 8 -49 28 0 32 64 30 68 -1z"/>
<path d="M3790 1000 c0 -5 5 -10 10 -10 6 0 10 5 10 10 0 6 -4 10 -10 10 -5 0
-10 -4 -10 -10z"/>
<path d="M1545 990 c-3 -5 -1 -10 4 -10 6 0 11 5 11 10 0 6 -2 10 -4 10 -3 0
-8 -4 -11 -10z"/>
<path d="M2895 981 c-19 -4 -31 -13 -34 -26 -3 -19 -3 -19 16 -2 44 39 62 17
66 -81 2 -43 5 -52 20 -52 13 0 17 5 13 18 -13 42 -25 123 -20 137 7 16 -8 18
-61 6z"/>
<path d="M3750 971 c0 -5 5 -13 10 -16 6 -3 10 -2 10 4 0 5 -4 13 -10 16 -5 3
-10 2 -10 -4z"/>
<path d="M1590 960 c0 -5 5 -10 11 -10 5 0 7 5 4 10 -3 6 -8 10 -11 10 -2 0
-4 -4 -4 -10z"/>
<path d="M2633 962 c-13 -2 -23 -8 -23 -13 0 -7 12 -8 30 -4 25 5 35 1 60 -23
21 -21 28 -36 23 -49 -18 -50 -65 -73 -96 -46 -19 17 -19 17 -16 -2 8 -42 94
-31 119 14 34 64 -23 135 -97 123z"/>
<path d="M2770 961 c0 -5 5 -11 11 -13 7 -2 12 -33 13 -76 1 -63 3 -72 20 -72
15 0 17 4 10 28 -5 15 -9 53 -9 85 0 52 -2 57 -22 57 -13 0 -23 -4 -23 -9z"/>
<path d="M3700 940 c0 -5 5 -10 10 -10 6 0 10 5 10 10 0 6 -4 10 -10 10 -5 0
-10 -4 -10 -10z"/>
<path d="M1630 930 c0 -5 5 -10 10 -10 6 0 10 5 10 10 0 6 -4 10 -10 10 -5 0
-10 -4 -10 -10z"/>
<path d="M1670 910 c0 -5 5 -10 10 -10 6 0 10 5 10 10 0 6 -4 10 -10 10 -5 0
-10 -4 -10 -10z"/>
<path d="M3658 913 c7 -3 16 -2 19 1 4 3 -2 6 -13 5 -11 0 -14 -3 -6 -6z"/>
<path d="M3610 890 c0 -5 5 -10 10 -10 6 0 10 5 10 10 0 6 -4 10 -10 10 -5 0
-10 -4 -10 -10z"/>
<path d="M1720 879 c0 -5 5 -7 10 -4 6 3 10 8 10 11 0 2 -4 4 -10 4 -5 0 -10
-5 -10 -11z"/>
<path d="M3565 870 c-3 -5 -1 -10 4 -10 6 0 11 5 11 10 0 6 -2 10 -4 10 -3 0
-8 -4 -11 -10z"/>
<path d="M1760 860 c0 -5 7 -10 15 -10 8 0 15 5 15 10 0 6 -7 10 -15 10 -8 0
-15 -4 -15 -10z"/>
<path d="M1810 840 c0 -5 5 -10 10 -10 6 0 10 5 10 10 0 6 -4 10 -10 10 -5 0
-10 -4 -10 -10z"/>
<path d="M3520 839 c0 -5 5 -7 10 -4 6 3 10 8 10 11 0 2 -4 4 -10 4 -5 0 -10
-5 -10 -11z"/>
<path d="M1860 821 c0 -5 5 -13 10 -16 6 -3 10 -2 10 4 0 5 -4 13 -10 16 -5 3
-10 2 -10 -4z"/>
<path d="M3470 820 c0 -5 5 -10 10 -10 6 0 10 5 10 10 0 6 -4 10 -10 10 -5 0
-10 -4 -10 -10z"/>
<path d="M3420 800 c0 -5 4 -10 9 -10 6 0 13 5 16 10 3 6 -1 10 -9 10 -9 0
-16 -4 -16 -10z"/>
<path d="M1905 790 c4 -6 11 -8 16 -5 14 9 11 15 -7 15 -8 0 -12 -5 -9 -10z"/>
<path d="M1956 781 c-4 -5 -2 -12 3 -15 5 -4 12 -2 15 3 4 5 2 12 -3 15 -5 4
-12 2 -15 -3z"/>
<path d="M3380 780 c0 -5 5 -10 10 -10 6 0 10 5 10 10 0 6 -4 10 -10 10 -5 0
-10 -4 -10 -10z"/>
<path d="M2005 760 c-3 -5 1 -10 10 -10 9 0 13 5 10 10 -3 6 -8 10 -10 10 -2
0 -7 -4 -10 -10z"/>
<path d="M3325 760 c3 -5 10 -10 16 -10 5 0 9 5 9 10 0 6 -7 10 -16 10 -8 0
-12 -4 -9 -10z"/>
<path d="M3280 750 c0 -5 5 -10 11 -10 5 0 7 5 4 10 -3 6 -8 10 -11 10 -2 0
-4 -4 -4 -10z"/>
<path d="M2100 730 c0 -5 5 -10 10 -10 6 0 10 5 10 10 0 6 -4 10 -10 10 -5 0
-10 -4 -10 -10z"/>
<path d="M3230 729 c0 -5 5 -7 10 -4 6 3 10 8 10 11 0 2 -4 4 -10 4 -5 0 -10
-5 -10 -11z"/>
<path d="M2150 714 c0 -8 5 -12 10 -9 6 3 10 10 10 16 0 5 -4 9 -10 9 -5 0
-10 -7 -10 -16z"/>
<path d="M3180 720 c0 -5 5 -10 10 -10 6 0 10 5 10 10 0 6 -4 10 -10 10 -5 0
-10 -4 -10 -10z"/>
<path d="M3126 711 c-4 -5 -2 -12 3 -15 5 -4 12 -2 15 3 4 5 2 12 -3 15 -5 4
-12 2 -15 -3z"/>
<path d="M2200 700 c0 -5 5 -10 10 -10 6 0 10 5 10 10 0 6 -4 10 -10 10 -5 0
-10 -4 -10 -10z"/>
<path d="M3080 694 c0 -8 5 -12 10 -9 6 4 8 11 5 16 -9 14 -15 11 -15 -7z"/>
<path d="M2250 690 c0 -5 5 -10 10 -10 6 0 10 5 10 10 0 6 -4 10 -10 10 -5 0
-10 -4 -10 -10z"/>
<path d="M2300 680 c0 -5 5 -10 10 -10 6 0 10 5 10 10 0 6 -4 10 -10 10 -5 0
-10 -4 -10 -10z"/>
<path d="M2976 681 c-4 -5 -2 -12 3 -15 5 -4 12 -2 15 3 4 5 2 12 -3 15 -5 4
-12 2 -15 -3z"/>
<path d="M3025 680 c3 -5 8 -10 11 -10 2 0 4 5 4 10 0 6 -5 10 -11 10 -5 0 -7
-4 -4 -10z"/>
<path d="M2360 669 c0 -5 5 -7 10 -4 6 3 10 8 10 11 0 2 -4 4 -10 4 -5 0 -10
-5 -10 -11z"/>
<path d="M2410 670 c0 -5 5 -10 11 -10 5 0 7 5 4 10 -3 6 -8 10 -11 10 -2 0
-4 -4 -4 -10z"/>
<path d="M2925 670 c-3 -5 1 -10 10 -10 9 0 13 5 10 10 -3 6 -8 10 -10 10 -2
0 -7 -4 -10 -10z"/>
<path d="M2460 660 c0 -5 5 -10 10 -10 6 0 10 5 10 10 0 6 -4 10 -10 10 -5 0
-10 -4 -10 -10z"/>
<path d="M2616 661 c-4 -7 -5 -15 -2 -18 9 -9 19 4 14 18 -4 11 -6 11 -12 0z"/>
<path d="M2770 656 c0 -9 5 -16 10 -16 6 0 10 4 10 9 0 6 -4 13 -10 16 -5 3
-10 -1 -10 -9z"/>
<path d="M2825 660 c-3 -5 -1 -10 4 -10 6 0 11 5 11 10 0 6 -2 10 -4 10 -3 0
-8 -4 -11 -10z"/>
<path d="M2880 659 c0 -5 5 -7 10 -4 6 3 10 8 10 11 0 2 -4 4 -10 4 -5 0 -10
-5 -10 -11z"/>
<path d="M2515 650 c3 -5 8 -10 11 -10 2 0 4 5 4 10 0 6 -5 10 -11 10 -5 0 -7
-4 -4 -10z"/>
<path d="M2560 650 c0 -5 5 -10 10 -10 6 0 10 5 10 10 0 6 -4 10 -10 10 -5 0
-10 -4 -10 -10z"/>
<path d="M2660 650 c0 -5 5 -10 10 -10 6 0 10 5 10 10 0 6 -4 10 -10 10 -5 0
-10 -4 -10 -10z"/>
<path d="M2720 650 c0 -5 5 -10 10 -10 6 0 10 5 10 10 0 6 -4 10 -10 10 -5 0
-10 -4 -10 -10z"/>
<path d="M447 1886 c-4 -10 0 -12 14 -9 22 6 26 23 5 23 -8 0 -16 -6 -19 -14z"/>
</g>
</svg>
